<svg width="1440" height="167" viewBox="0 0 1440 167" fill="none" xmlns="http://www.w3.org/2000/svg">
<rect width="1440" height="167" fill="#18191C"/>
<path d="M109.722 89V71.5455H116.267C117.608 71.5455 118.733 71.7955 119.642 72.2955C120.557 72.7955 121.247 73.483 121.713 74.358C122.185 75.2273 122.42 76.2159 122.42 77.3239C122.42 78.4432 122.185 79.4375 121.713 80.3068C121.241 81.1761 120.545 81.8608 119.625 82.3608C118.705 82.8551 117.571 83.1023 116.224 83.1023H111.886V80.5028H115.798C116.582 80.5028 117.224 80.3665 117.724 80.0938C118.224 79.821 118.594 79.446 118.832 78.9688C119.077 78.4915 119.199 77.9432 119.199 77.3239C119.199 76.7045 119.077 76.1591 118.832 75.6875C118.594 75.2159 118.222 74.8494 117.716 74.5881C117.216 74.321 116.571 74.1875 115.781 74.1875H112.884V89H109.722ZM128.116 71.5455V89H125.031V71.5455H128.116ZM135.055 89.2642C134.226 89.2642 133.479 89.1165 132.814 88.821C132.155 88.5199 131.632 88.0767 131.246 87.4915C130.865 86.9062 130.675 86.1847 130.675 85.3267C130.675 84.5881 130.811 83.9773 131.084 83.4943C131.357 83.0114 131.729 82.625 132.2 82.3352C132.672 82.0455 133.203 81.8267 133.794 81.679C134.391 81.5256 135.007 81.4148 135.643 81.3466C136.411 81.267 137.033 81.196 137.51 81.1335C137.987 81.0653 138.334 80.9631 138.55 80.8267C138.771 80.6847 138.882 80.4659 138.882 80.1705V80.1193C138.882 79.4773 138.692 78.9801 138.311 78.6278C137.93 78.2756 137.382 78.0994 136.666 78.0994C135.911 78.0994 135.311 78.2642 134.868 78.5938C134.43 78.9233 134.135 79.3125 133.982 79.7614L131.101 79.3523C131.328 78.5568 131.703 77.892 132.226 77.358C132.749 76.8182 133.388 76.4148 134.143 76.1477C134.899 75.875 135.734 75.7386 136.649 75.7386C137.28 75.7386 137.908 75.8125 138.533 75.9602C139.158 76.108 139.729 76.3523 140.246 76.6932C140.763 77.0284 141.178 77.4858 141.49 78.0653C141.808 78.6449 141.967 79.3693 141.967 80.2386V89H139.001V87.2017H138.899C138.712 87.5653 138.447 87.9062 138.107 88.2244C137.771 88.5369 137.348 88.7898 136.837 88.983C136.331 89.1705 135.737 89.2642 135.055 89.2642ZM135.857 86.9972C136.476 86.9972 137.013 86.875 137.467 86.6307C137.922 86.3807 138.271 86.0511 138.516 85.642C138.766 85.233 138.891 84.7869 138.891 84.304V82.7614C138.794 82.8409 138.629 82.9148 138.396 82.983C138.169 83.0511 137.913 83.1108 137.629 83.1619C137.345 83.2131 137.064 83.2585 136.786 83.2983C136.507 83.3381 136.266 83.3722 136.061 83.4006C135.601 83.4631 135.189 83.5653 134.825 83.7074C134.462 83.8494 134.175 84.0483 133.964 84.304C133.754 84.554 133.649 84.8778 133.649 85.2756C133.649 85.8438 133.857 86.2727 134.271 86.5625C134.686 86.8523 135.214 86.9972 135.857 86.9972ZM150.78 89.2557C149.473 89.2557 148.351 88.9688 147.413 88.3949C146.482 87.821 145.763 87.0284 145.257 86.017C144.757 85 144.507 83.8295 144.507 82.5057C144.507 81.1761 144.763 80.0028 145.274 78.9858C145.786 77.9631 146.507 77.1676 147.439 76.5994C148.376 76.0256 149.484 75.7386 150.763 75.7386C151.825 75.7386 152.766 75.9347 153.584 76.3267C154.408 76.7131 155.064 77.2614 155.553 77.9716C156.041 78.6761 156.32 79.5 156.388 80.4432H153.439C153.32 79.8125 153.036 79.2869 152.587 78.8665C152.143 78.4403 151.55 78.2273 150.805 78.2273C150.175 78.2273 149.621 78.3977 149.143 78.7386C148.666 79.0739 148.294 79.5568 148.027 80.1875C147.766 80.8182 147.635 81.5739 147.635 82.4545C147.635 83.3466 147.766 84.1136 148.027 84.7557C148.288 85.392 148.655 85.8835 149.126 86.2301C149.604 86.571 150.163 86.7415 150.805 86.7415C151.26 86.7415 151.666 86.6562 152.024 86.4858C152.388 86.3097 152.692 86.0568 152.936 85.7273C153.18 85.3977 153.348 84.9972 153.439 84.5256H156.388C156.314 85.4517 156.041 86.2727 155.57 86.9886C155.098 87.6989 154.456 88.2557 153.643 88.6591C152.831 89.0568 151.876 89.2557 150.78 89.2557ZM164.717 89.2557C163.404 89.2557 162.271 88.983 161.316 88.4375C160.367 87.8864 159.637 87.108 159.126 86.1023C158.614 85.0909 158.359 83.9006 158.359 82.5312C158.359 81.1847 158.614 80.0028 159.126 78.9858C159.643 77.9631 160.364 77.1676 161.29 76.5994C162.217 76.0256 163.305 75.7386 164.555 75.7386C165.362 75.7386 166.123 75.8693 166.839 76.1307C167.56 76.3864 168.197 76.7841 168.748 77.3239C169.305 77.8636 169.742 78.5511 170.06 79.3864C170.379 80.2159 170.538 81.2045 170.538 82.3523V83.2983H159.808V81.2188H167.58C167.575 80.6278 167.447 80.1023 167.197 79.642C166.947 79.1761 166.597 78.8097 166.148 78.5426C165.705 78.2756 165.188 78.142 164.597 78.142C163.967 78.142 163.413 78.2955 162.935 78.6023C162.458 78.9034 162.086 79.3011 161.819 79.7955C161.558 80.2841 161.424 80.821 161.418 81.4062V83.2216C161.418 83.983 161.558 84.6364 161.836 85.1818C162.114 85.7216 162.504 86.1364 163.004 86.4261C163.504 86.7102 164.089 86.8523 164.759 86.8523C165.208 86.8523 165.614 86.7898 165.978 86.6648C166.342 86.5341 166.657 86.3438 166.924 86.0938C167.191 85.8438 167.393 85.5341 167.529 85.1648L170.41 85.4886C170.228 86.25 169.881 86.9148 169.37 87.483C168.864 88.0455 168.217 88.483 167.427 88.7955C166.637 89.1023 165.734 89.2557 164.717 89.2557ZM173.148 89V75.9091H176.097V78.1335H176.25C176.523 77.3835 176.974 76.7983 177.605 76.3778C178.236 75.9517 178.989 75.7386 179.864 75.7386C180.75 75.7386 181.497 75.9545 182.105 76.3864C182.719 76.8125 183.151 77.3949 183.401 78.1335H183.537C183.827 77.4062 184.315 76.8267 185.003 76.3949C185.696 75.9574 186.517 75.7386 187.466 75.7386C188.67 75.7386 189.653 76.1193 190.415 76.8807C191.176 77.642 191.557 78.7528 191.557 80.2131V89H188.463V80.6903C188.463 79.8778 188.247 79.2841 187.815 78.9091C187.384 78.5284 186.855 78.3381 186.23 78.3381C185.486 78.3381 184.903 78.571 184.483 79.0369C184.068 79.4972 183.861 80.0966 183.861 80.8352V89H180.835V80.5625C180.835 79.8864 180.631 79.3466 180.222 78.9432C179.818 78.5398 179.29 78.3381 178.636 78.3381C178.193 78.3381 177.79 78.4517 177.426 78.679C177.063 78.9006 176.773 79.2159 176.557 79.625C176.341 80.0284 176.233 80.5 176.233 81.0398V89H173.148ZM200.482 89.2557C199.17 89.2557 198.036 88.983 197.082 88.4375C196.133 87.8864 195.403 87.108 194.891 86.1023C194.38 85.0909 194.124 83.9006 194.124 82.5312C194.124 81.1847 194.38 80.0028 194.891 78.9858C195.408 77.9631 196.13 77.1676 197.056 76.5994C197.982 76.0256 199.07 75.7386 200.32 75.7386C201.127 75.7386 201.888 75.8693 202.604 76.1307C203.326 76.3864 203.962 76.7841 204.513 77.3239C205.07 77.8636 205.508 78.5511 205.826 79.3864C206.144 80.2159 206.303 81.2045 206.303 82.3523V83.2983H195.573V81.2188H203.346C203.34 80.6278 203.212 80.1023 202.962 79.642C202.712 79.1761 202.363 78.8097 201.914 78.5426C201.471 78.2756 200.954 78.142 200.363 78.142C199.732 78.142 199.178 78.2955 198.701 78.6023C198.224 78.9034 197.852 79.3011 197.585 79.7955C197.323 80.2841 197.19 80.821 197.184 81.4062V83.2216C197.184 83.983 197.323 84.6364 197.602 85.1818C197.88 85.7216 198.269 86.1364 198.769 86.4261C199.269 86.7102 199.854 86.8523 200.525 86.8523C200.974 86.8523 201.38 86.7898 201.744 86.6648C202.107 86.5341 202.423 86.3438 202.69 86.0938C202.957 85.8438 203.158 85.5341 203.295 85.1648L206.175 85.4886C205.994 86.25 205.647 86.9148 205.136 87.483C204.63 88.0455 203.982 88.483 203.192 88.7955C202.403 89.1023 201.499 89.2557 200.482 89.2557ZM211.999 81.3295V89H208.913V75.9091H211.862V78.1335H212.016C212.317 77.4006 212.797 76.8182 213.456 76.3864C214.121 75.9545 214.942 75.7386 215.919 75.7386C216.822 75.7386 217.609 75.9318 218.28 76.3182C218.956 76.7045 219.479 77.2642 219.848 77.9972C220.223 78.7301 220.408 79.6193 220.402 80.6648V89H217.317V81.142C217.317 80.267 217.089 79.5824 216.635 79.0881C216.186 78.5937 215.564 78.3466 214.768 78.3466C214.229 78.3466 213.749 78.4659 213.328 78.7045C212.913 78.9375 212.587 79.2756 212.348 79.7188C212.115 80.1619 211.999 80.6989 211.999 81.3295ZM230.075 75.9091V78.2955H222.55V75.9091H230.075ZM224.408 72.7727H227.493V85.0625C227.493 85.4773 227.555 85.7955 227.68 86.017C227.811 86.233 227.982 86.3807 228.192 86.4602C228.402 86.5398 228.635 86.5795 228.891 86.5795C229.084 86.5795 229.26 86.5653 229.419 86.5369C229.584 86.5085 229.709 86.483 229.794 86.4602L230.314 88.8722C230.149 88.929 229.913 88.9915 229.607 89.0597C229.305 89.1278 228.936 89.1676 228.499 89.179C227.726 89.2017 227.03 89.0852 226.411 88.8295C225.791 88.5682 225.3 88.1648 224.936 87.6193C224.578 87.0739 224.402 86.392 224.408 85.5739V72.7727ZM232.656 93.9091V75.9091H235.69V78.0739H235.869C236.028 77.7557 236.252 77.4176 236.542 77.0597C236.832 76.696 237.224 76.3864 237.718 76.1307C238.212 75.8693 238.843 75.7386 239.61 75.7386C240.621 75.7386 241.533 75.9972 242.346 76.5142C243.164 77.0256 243.812 77.7841 244.289 78.7898C244.772 79.7898 245.013 81.017 245.013 82.4716C245.013 83.9091 244.778 85.1307 244.306 86.1364C243.835 87.142 243.192 87.9091 242.38 88.4375C241.567 88.9659 240.647 89.2301 239.619 89.2301C238.869 89.2301 238.246 89.1051 237.752 88.8551C237.258 88.6051 236.86 88.304 236.559 87.9517C236.263 87.5937 236.033 87.2557 235.869 86.9375H235.741V93.9091H232.656ZM235.681 82.4545C235.681 83.3011 235.8 84.0426 236.039 84.679C236.283 85.3153 236.633 85.8125 237.087 86.1705C237.548 86.5227 238.104 86.6989 238.758 86.6989C239.44 86.6989 240.011 86.517 240.471 86.1534C240.931 85.7841 241.278 85.2812 241.511 84.6449C241.749 84.0028 241.869 83.2727 241.869 82.4545C241.869 81.642 241.752 80.9205 241.519 80.2898C241.286 79.6591 240.94 79.1648 240.479 78.8068C240.019 78.4489 239.445 78.2699 238.758 78.2699C238.099 78.2699 237.539 78.4432 237.079 78.7898C236.619 79.1364 236.269 79.6222 236.031 80.2472C235.798 80.8722 235.681 81.608 235.681 82.4545ZM250.741 71.5455V89H247.656V71.5455H250.741ZM262.257 83.4943V75.9091H265.342V89H262.351V86.6733H262.214C261.919 87.4062 261.433 88.0057 260.757 88.4716C260.087 88.9375 259.26 89.1705 258.277 89.1705C257.419 89.1705 256.661 88.9801 256.001 88.5994C255.348 88.2131 254.837 87.6534 254.467 86.9205C254.098 86.1818 253.913 85.2898 253.913 84.2443V75.9091H256.999V83.767C256.999 84.5966 257.226 85.2557 257.68 85.7443C258.135 86.233 258.732 86.4773 259.47 86.4773C259.925 86.4773 260.365 86.3665 260.791 86.1449C261.217 85.9233 261.567 85.5938 261.839 85.1562C262.118 84.7131 262.257 84.1591 262.257 83.4943ZM278.862 79.3693L276.049 79.6761C275.969 79.392 275.83 79.125 275.631 78.875C275.438 78.625 275.177 78.4233 274.847 78.2699C274.518 78.1165 274.114 78.0398 273.637 78.0398C272.995 78.0398 272.455 78.179 272.018 78.4574C271.586 78.7358 271.373 79.0966 271.379 79.5398C271.373 79.9205 271.512 80.2301 271.796 80.4688C272.086 80.7074 272.563 80.9034 273.228 81.0568L275.461 81.5341C276.7 81.8011 277.62 82.2244 278.222 82.804C278.83 83.3835 279.137 84.142 279.143 85.0795C279.137 85.9034 278.896 86.6307 278.418 87.2614C277.947 87.8864 277.29 88.375 276.45 88.7273C275.609 89.0795 274.643 89.2557 273.552 89.2557C271.95 89.2557 270.66 88.9205 269.683 88.25C268.705 87.5739 268.123 86.6335 267.935 85.429L270.944 85.1392C271.08 85.7301 271.37 86.1761 271.813 86.4773C272.256 86.7784 272.833 86.929 273.543 86.929C274.276 86.929 274.864 86.7784 275.308 86.4773C275.756 86.1761 275.981 85.804 275.981 85.3608C275.981 84.9858 275.836 84.6761 275.546 84.4318C275.262 84.1875 274.819 84 274.217 83.8693L271.984 83.4006C270.728 83.1392 269.799 82.6989 269.197 82.0795C268.594 81.4545 268.296 80.6648 268.302 79.7102C268.296 78.9034 268.515 78.2045 268.958 77.6136C269.407 77.017 270.029 76.5568 270.825 76.233C271.626 75.9034 272.549 75.7386 273.594 75.7386C275.129 75.7386 276.336 76.0653 277.217 76.7188C278.103 77.3722 278.651 78.2557 278.862 79.3693Z" fill="white"/>
<path d="M97 76.1301H86.4965V65.6995H76.4306C76.4306 71.4618 71.7624 76.1301 66 76.1301V86.1959H76.4306V96.6265H86.4965C86.4965 90.8642 91.2376 86.1959 97 86.1959V76.1301Z" fill="white"/>
<path d="M663.175 82.3208H665.001V79.1408C664.686 79.0975 663.603 79 662.341 79C659.708 79 657.905 80.6558 657.905 83.6992V86.5H655V90.055H657.905V99H661.467V90.0558H664.254L664.697 86.5008H661.466V84.0517C661.467 83.0242 661.743 82.3208 663.175 82.3208Z" fill="#767F8C"/>
<g clip-path="url(#clip0_1127_1739)">
<path d="M704.588 84.1987C704.357 83.3419 703.682 82.6666 702.825 82.4359C701.26 82.0076 695 82.0076 695 82.0076C695 82.0076 688.74 82.0076 687.175 82.4196C686.334 82.6501 685.642 83.3421 685.412 84.1987C685 85.7637 685 89.0092 685 89.0092C685 89.0092 685 92.271 685.412 93.8197C685.643 94.6763 686.318 95.3518 687.175 95.5825C688.756 96.0108 695 96.0108 695 96.0108C695 96.0108 701.26 96.0108 702.825 95.5988C703.682 95.3683 704.357 94.6928 704.588 93.8361C705 92.271 705 89.0257 705 89.0257C705 89.0257 705.016 85.7637 704.588 84.1987Z" fill="#767F8C"/>
<path d="M693.006 92.0077L698.212 89.0093L693.006 86.011V92.0077Z" fill="#18191C"/>
</g>
<g clip-path="url(#clip1_1127_1739)">
<path d="M744.98 84.8801C744.934 83.8174 744.762 83.0868 744.516 82.4537C744.262 81.7818 743.871 81.1801 743.359 80.68C742.859 80.1721 742.253 79.7774 741.589 79.5274C740.952 79.2813 740.226 79.1094 739.163 79.0626C738.092 79.0118 737.752 79 735.037 79C732.322 79 731.982 79.0118 730.915 79.0586C729.853 79.1055 729.122 79.2775 728.489 79.5235C727.817 79.7774 727.215 80.1681 726.715 80.68C726.207 81.1801 725.813 81.7857 725.563 82.4499C725.316 83.0868 725.145 83.8134 725.098 84.8761C725.047 85.9467 725.035 86.2866 725.035 89.002C725.035 91.7173 725.047 92.0572 725.094 93.1239C725.141 94.1865 725.313 94.9171 725.559 95.5502C725.813 96.2221 726.207 96.8238 726.715 97.3239C727.215 97.8318 727.821 98.2265 728.485 98.4765C729.122 98.7226 729.849 98.8945 730.911 98.9413C731.978 98.9883 732.318 98.9999 735.033 98.9999C737.749 98.9999 738.089 98.9883 739.155 98.9413C740.218 98.8945 740.948 98.7226 741.581 98.4765C742.925 97.9568 743.988 96.8941 744.508 95.5502C744.754 94.9133 744.926 94.1865 744.973 93.1239C745.019 92.0572 745.031 91.7173 745.031 89.002C745.031 86.2866 745.027 85.9467 744.98 84.8801ZM743.179 93.0457C743.136 94.0225 742.972 94.5499 742.836 94.9015C742.499 95.7728 741.808 96.4643 740.937 96.8004C740.585 96.9372 740.054 97.1012 739.081 97.1441C738.026 97.1911 737.71 97.2027 735.041 97.2027C732.373 97.2027 732.052 97.1911 731.001 97.1441C730.024 97.1012 729.497 96.9372 729.145 96.8004C728.712 96.6402 728.317 96.3862 727.997 96.0541C727.665 95.7298 727.411 95.3391 727.25 94.9055C727.114 94.5539 726.95 94.0225 726.907 93.0497C726.86 91.9948 726.848 91.6783 726.848 89.0097C726.848 86.3412 726.86 86.0209 726.907 84.9699C726.95 83.9932 727.114 83.4657 727.25 83.1141C727.411 82.6804 727.665 82.2859 728.001 81.9654C728.325 81.6333 728.716 81.3793 729.149 81.2192C729.501 81.0825 730.032 80.9184 731.005 80.8754C732.06 80.8285 732.377 80.8168 735.045 80.8168C737.717 80.8168 738.034 80.8285 739.085 80.8754C740.062 80.9184 740.589 81.0825 740.941 81.2192C741.374 81.3793 741.769 81.6333 742.089 81.9654C742.421 82.2897 742.675 82.6804 742.836 83.1141C742.972 83.4657 743.136 83.997 743.179 84.9699C743.226 86.0248 743.238 86.3412 743.238 89.0097C743.238 91.6783 743.226 91.9908 743.179 93.0457Z" fill="#767F8C"/>
<path d="M735.036 83.864C732.2 83.864 729.898 86.1652 729.898 89.0017C729.898 91.8383 732.2 94.1395 735.036 94.1395C737.873 94.1395 740.174 91.8383 740.174 89.0017C740.174 86.1652 737.873 83.864 735.036 83.864ZM735.036 92.3344C733.196 92.3344 731.703 90.842 731.703 89.0017C731.703 87.1615 733.196 85.669 735.036 85.669C736.876 85.669 738.369 87.1615 738.369 89.0017C738.369 90.842 736.876 92.3344 735.036 92.3344Z" fill="#767F8C"/>
<path d="M741.577 83.6611C741.577 84.3235 741.04 84.8605 740.377 84.8605C739.715 84.8605 739.178 84.3235 739.178 83.6611C739.178 82.9986 739.715 82.4617 740.377 82.4617C741.04 82.4617 741.577 82.9986 741.577 83.6611Z" fill="#767F8C"/>
</g>
<g clip-path="url(#clip2_1127_1739)">
<path d="M785 82.7988C784.256 83.125 783.464 83.3412 782.637 83.4462C783.487 82.9388 784.136 82.1412 784.441 81.18C783.649 81.6525 782.774 81.9863 781.841 82.1725C781.089 81.3713 780.016 80.875 778.846 80.875C776.576 80.875 774.749 82.7175 774.749 84.9763C774.749 85.3012 774.776 85.6137 774.844 85.9112C771.435 85.745 768.419 84.1113 766.392 81.6225C766.039 82.2363 765.831 82.9388 765.831 83.695C765.831 85.115 766.562 86.3737 767.652 87.1025C766.994 87.09 766.347 86.8988 765.8 86.5975C765.8 86.61 765.8 86.6262 765.8 86.6425C765.8 88.635 767.221 90.29 769.085 90.6712C768.751 90.7625 768.388 90.8062 768.01 90.8062C767.747 90.8062 767.482 90.7913 767.234 90.7362C767.765 92.36 769.273 93.5538 771.065 93.5925C769.67 94.6838 767.899 95.3412 765.981 95.3412C765.645 95.3412 765.322 95.3263 765 95.285C766.816 96.4563 768.969 97.125 771.29 97.125C778.835 97.125 782.96 90.875 782.96 85.4575C782.96 85.2762 782.954 85.1013 782.945 84.9275C783.759 84.35 784.442 83.6288 785 82.7988Z" fill="#767F8C"/>
</g>
<path d="M636.967 115H636.087C636.035 114.747 635.943 114.524 635.813 114.332C635.685 114.141 635.529 113.98 635.344 113.849C635.162 113.717 634.96 113.617 634.737 113.551C634.515 113.485 634.283 113.452 634.041 113.452C633.601 113.452 633.202 113.563 632.844 113.786C632.489 114.008 632.206 114.336 631.996 114.769C631.787 115.202 631.683 115.734 631.683 116.364C631.683 116.993 631.787 117.525 631.996 117.958C632.206 118.391 632.489 118.719 632.844 118.942C633.202 119.164 633.601 119.276 634.041 119.276C634.283 119.276 634.515 119.242 634.737 119.176C634.96 119.11 635.162 119.012 635.344 118.881C635.529 118.749 635.685 118.587 635.813 118.395C635.943 118.201 636.035 117.978 636.087 117.727H636.967C636.901 118.099 636.78 118.432 636.605 118.725C636.43 119.019 636.212 119.268 635.952 119.474C635.691 119.678 635.399 119.833 635.075 119.94C634.753 120.046 634.408 120.099 634.041 120.099C633.421 120.099 632.869 119.948 632.386 119.645C631.903 119.342 631.523 118.911 631.246 118.352C630.969 117.794 630.831 117.131 630.831 116.364C630.831 115.597 630.969 114.934 631.246 114.375C631.523 113.816 631.903 113.385 632.386 113.082C632.869 112.779 633.421 112.628 634.041 112.628C634.408 112.628 634.753 112.681 635.075 112.788C635.399 112.894 635.691 113.05 635.952 113.256C636.212 113.46 636.43 113.709 636.605 114.002C636.78 114.293 636.901 114.626 636.967 115ZM640.493 120.114C640 120.114 639.568 119.996 639.197 119.762C638.827 119.528 638.538 119.2 638.33 118.778C638.124 118.357 638.021 117.865 638.021 117.301C638.021 116.733 638.124 116.237 638.33 115.813C638.538 115.389 638.827 115.06 639.197 114.826C639.568 114.592 640 114.474 640.493 114.474C640.985 114.474 641.416 114.592 641.785 114.826C642.157 115.06 642.446 115.389 642.652 115.813C642.86 116.237 642.964 116.733 642.964 117.301C642.964 117.865 642.86 118.357 642.652 118.778C642.446 119.2 642.157 119.528 641.785 119.762C641.416 119.996 640.985 120.114 640.493 120.114ZM640.493 119.361C640.867 119.361 641.175 119.265 641.416 119.073C641.657 118.881 641.836 118.629 641.952 118.317C642.068 118.004 642.126 117.666 642.126 117.301C642.126 116.937 642.068 116.597 641.952 116.282C641.836 115.967 641.657 115.713 641.416 115.518C641.175 115.324 640.867 115.227 640.493 115.227C640.119 115.227 639.811 115.324 639.569 115.518C639.328 115.713 639.149 115.967 639.033 116.282C638.917 116.597 638.859 116.937 638.859 117.301C638.859 117.666 638.917 118.004 639.033 118.317C639.149 118.629 639.328 118.881 639.569 119.073C639.811 119.265 640.119 119.361 640.493 119.361ZM644.244 122.045V114.545H645.053V115.412H645.153C645.214 115.317 645.299 115.196 645.408 115.05C645.52 114.901 645.678 114.768 645.884 114.652C646.093 114.534 646.374 114.474 646.729 114.474C647.189 114.474 647.594 114.589 647.944 114.819C648.294 115.049 648.568 115.374 648.764 115.795C648.961 116.217 649.059 116.714 649.059 117.287C649.059 117.865 648.961 118.365 648.764 118.789C648.568 119.21 648.295 119.537 647.947 119.769C647.599 119.999 647.198 120.114 646.744 120.114C646.393 120.114 646.113 120.056 645.902 119.94C645.691 119.821 645.529 119.687 645.415 119.538C645.302 119.387 645.214 119.261 645.153 119.162H645.082V122.045H644.244ZM645.067 117.273C645.067 117.685 645.128 118.048 645.249 118.363C645.369 118.675 645.546 118.92 645.778 119.098C646.01 119.273 646.294 119.361 646.63 119.361C646.98 119.361 647.273 119.268 647.507 119.084C647.744 118.897 647.921 118.646 648.04 118.331C648.161 118.014 648.221 117.661 648.221 117.273C648.221 116.889 648.162 116.544 648.043 116.236C647.927 115.926 647.751 115.681 647.514 115.501C647.28 115.318 646.985 115.227 646.63 115.227C646.289 115.227 646.003 115.314 645.771 115.487C645.539 115.657 645.363 115.896 645.245 116.204C645.127 116.509 645.067 116.866 645.067 117.273ZM650.682 122.045C650.54 122.045 650.413 122.034 650.302 122.01C650.191 121.989 650.114 121.967 650.071 121.946L650.284 121.207C650.488 121.259 650.668 121.278 650.824 121.264C650.98 121.25 651.119 121.18 651.239 121.055C651.362 120.932 651.475 120.732 651.577 120.455L651.733 120.028L649.716 114.545H650.625L652.131 118.892H652.188L653.693 114.545H654.602L652.287 120.795C652.183 121.077 652.054 121.31 651.9 121.495C651.746 121.682 651.567 121.821 651.364 121.911C651.162 122 650.935 122.045 650.682 122.045ZM655.708 120V114.545H656.518V115.369H656.575C656.674 115.099 656.854 114.88 657.115 114.712C657.375 114.544 657.669 114.46 657.995 114.46C658.057 114.46 658.134 114.461 658.226 114.464C658.319 114.466 658.388 114.47 658.436 114.474V115.327C658.407 115.32 658.342 115.309 658.24 115.295C658.141 115.278 658.036 115.27 657.924 115.27C657.659 115.27 657.422 115.326 657.214 115.437C657.008 115.546 656.845 115.697 656.724 115.891C656.606 116.083 656.547 116.302 656.547 116.548V120H655.708ZM659.429 120V114.545H660.267V120H659.429ZM659.855 113.636C659.692 113.636 659.551 113.581 659.433 113.469C659.317 113.358 659.259 113.224 659.259 113.068C659.259 112.912 659.317 112.778 659.433 112.667C659.551 112.556 659.692 112.5 659.855 112.5C660.019 112.5 660.158 112.556 660.274 112.667C660.393 112.778 660.452 112.912 660.452 113.068C660.452 113.224 660.393 113.358 660.274 113.469C660.158 113.581 660.019 113.636 659.855 113.636ZM664.004 122.159C663.599 122.159 663.251 122.107 662.96 122.003C662.669 121.901 662.426 121.766 662.232 121.598C662.04 121.432 661.887 121.255 661.774 121.065L662.441 120.597C662.517 120.696 662.613 120.81 662.729 120.938C662.845 121.068 663.004 121.18 663.205 121.275C663.408 121.372 663.675 121.42 664.004 121.42C664.444 121.42 664.808 121.314 665.094 121.101C665.381 120.888 665.524 120.554 665.524 120.099V118.991H665.453C665.391 119.091 665.304 119.214 665.19 119.361C665.079 119.505 664.918 119.634 664.707 119.748C664.499 119.859 664.217 119.915 663.862 119.915C663.422 119.915 663.026 119.811 662.676 119.602C662.328 119.394 662.052 119.091 661.848 118.693C661.647 118.295 661.547 117.812 661.547 117.244C661.547 116.686 661.645 116.199 661.841 115.785C662.038 115.368 662.311 115.046 662.662 114.819C663.012 114.589 663.417 114.474 663.876 114.474C664.231 114.474 664.513 114.534 664.721 114.652C664.932 114.768 665.093 114.901 665.204 115.05C665.318 115.196 665.405 115.317 665.467 115.412H665.552V114.545H666.362V120.156C666.362 120.625 666.255 121.006 666.042 121.3C665.832 121.596 665.547 121.812 665.19 121.95C664.835 122.089 664.44 122.159 664.004 122.159ZM663.975 119.162C664.312 119.162 664.596 119.085 664.828 118.931C665.06 118.777 665.236 118.556 665.357 118.267C665.478 117.978 665.538 117.633 665.538 117.23C665.538 116.837 665.479 116.49 665.36 116.19C665.242 115.889 665.067 115.653 664.835 115.483C664.603 115.312 664.316 115.227 663.975 115.227C663.62 115.227 663.324 115.317 663.088 115.497C662.853 115.677 662.677 115.919 662.559 116.222C662.443 116.525 662.385 116.861 662.385 117.23C662.385 117.609 662.444 117.944 662.562 118.235C662.683 118.524 662.86 118.751 663.095 118.917C663.332 119.08 663.625 119.162 663.975 119.162ZM668.734 116.719V120H667.896V112.727H668.734V115.398H668.805C668.933 115.116 669.125 114.892 669.38 114.727C669.638 114.558 669.982 114.474 670.41 114.474C670.782 114.474 671.107 114.549 671.387 114.698C671.666 114.845 671.883 115.071 672.037 115.376C672.193 115.679 672.271 116.065 672.271 116.534V120H671.433V116.591C671.433 116.158 671.32 115.823 671.096 115.586C670.873 115.347 670.564 115.227 670.169 115.227C669.894 115.227 669.648 115.285 669.43 115.401C669.215 115.517 669.044 115.687 668.919 115.909C668.796 116.132 668.734 116.402 668.734 116.719ZM676.176 114.545V115.256H673.35V114.545H676.176ZM674.173 113.239H675.012V118.438C675.012 118.674 675.046 118.852 675.115 118.97C675.186 119.086 675.276 119.164 675.384 119.205C675.496 119.242 675.613 119.261 675.736 119.261C675.828 119.261 675.904 119.257 675.963 119.247C676.022 119.235 676.07 119.226 676.105 119.219L676.276 119.972C676.219 119.993 676.14 120.014 676.038 120.036C675.936 120.059 675.807 120.071 675.651 120.071C675.414 120.071 675.182 120.02 674.955 119.918C674.73 119.817 674.543 119.661 674.394 119.453C674.247 119.245 674.173 118.982 674.173 118.665V113.239ZM681.982 116.364C681.982 115.975 682.077 115.621 682.267 115.302C682.456 114.982 682.71 114.728 683.03 114.538C683.35 114.349 683.704 114.254 684.092 114.254C684.428 114.254 684.738 114.326 685.022 114.471C685.309 114.615 685.545 114.813 685.732 115.064C685.919 115.312 686.035 115.594 686.08 115.909H685.221C685.174 115.665 685.042 115.466 684.827 115.312C684.611 115.156 684.366 115.078 684.092 115.078C683.855 115.078 683.64 115.136 683.445 115.252C683.251 115.368 683.096 115.523 682.98 115.717C682.864 115.911 682.806 116.127 682.806 116.364C682.806 116.6 682.864 116.816 682.98 117.01C683.096 117.204 683.251 117.359 683.445 117.475C683.64 117.591 683.855 117.649 684.092 117.649C684.366 117.649 684.598 117.572 684.788 117.418C684.98 117.262 685.1 117.062 685.15 116.818H686.009C685.964 117.133 685.854 117.416 685.679 117.667C685.504 117.915 685.279 118.112 685.004 118.256C684.732 118.401 684.428 118.473 684.092 118.473C683.704 118.473 683.35 118.378 683.03 118.189C682.71 118 682.456 117.745 682.267 117.425C682.077 117.106 681.982 116.752 681.982 116.364ZM684.056 120.114C683.54 120.114 683.055 120.017 682.6 119.822C682.148 119.628 681.749 119.36 681.404 119.016C681.06 118.671 680.79 118.272 680.594 117.82C680.4 117.367 680.304 116.882 680.306 116.364C680.309 115.845 680.407 115.36 680.601 114.908C680.798 114.455 681.067 114.058 681.411 113.714C681.754 113.369 682.152 113.099 682.604 112.905C683.056 112.711 683.54 112.614 684.056 112.614C684.575 112.614 685.06 112.711 685.512 112.905C685.967 113.099 686.365 113.369 686.705 113.714C687.049 114.058 687.317 114.455 687.512 114.908C687.706 115.36 687.804 115.845 687.806 116.364C687.809 116.882 687.713 117.367 687.519 117.82C687.325 118.272 687.056 118.671 686.713 119.016C686.369 119.36 685.97 119.628 685.516 119.822C685.061 120.017 684.575 120.114 684.056 120.114ZM684.056 119.29C684.461 119.29 684.841 119.214 685.196 119.062C685.551 118.911 685.863 118.701 686.13 118.434C686.398 118.166 686.607 117.856 686.759 117.504C686.91 117.148 686.985 116.77 686.982 116.367C686.98 115.962 686.903 115.582 686.752 115.227C686.6 114.872 686.391 114.561 686.123 114.293C685.856 114.026 685.545 113.816 685.193 113.665C684.84 113.513 684.461 113.438 684.056 113.438C683.654 113.438 683.276 113.513 682.923 113.665C682.571 113.816 682.261 114.027 681.993 114.297C681.726 114.564 681.515 114.876 681.361 115.231C681.209 115.584 681.133 115.962 681.13 116.367C681.128 116.767 681.202 117.145 681.354 117.5C681.505 117.853 681.715 118.163 681.982 118.43C682.252 118.698 682.564 118.909 682.916 119.062C683.271 119.214 683.651 119.29 684.056 119.29ZM692.198 120V119.361L694.599 116.733C694.88 116.425 695.112 116.158 695.295 115.93C695.477 115.701 695.612 115.485 695.7 115.284C695.79 115.08 695.835 114.867 695.835 114.645C695.835 114.389 695.773 114.168 695.65 113.981C695.529 113.794 695.363 113.649 695.153 113.548C694.942 113.446 694.705 113.395 694.442 113.395C694.163 113.395 693.919 113.453 693.711 113.569C693.505 113.683 693.345 113.842 693.232 114.048C693.12 114.254 693.065 114.496 693.065 114.773H692.227C692.227 114.347 692.325 113.973 692.521 113.651C692.718 113.329 692.985 113.078 693.324 112.898C693.665 112.718 694.047 112.628 694.471 112.628C694.897 112.628 695.275 112.718 695.604 112.898C695.933 113.078 696.191 113.32 696.378 113.626C696.565 113.931 696.658 114.271 696.658 114.645C696.658 114.912 696.61 115.174 696.513 115.43C696.418 115.683 696.252 115.966 696.016 116.278C695.781 116.589 695.456 116.967 695.039 117.415L693.406 119.162V119.219H696.786V120H692.198ZM700.625 120.099C700.09 120.099 699.634 119.954 699.258 119.663C698.881 119.369 698.594 118.944 698.395 118.388C698.196 117.829 698.097 117.154 698.097 116.364C698.097 115.578 698.196 114.906 698.395 114.35C698.596 113.791 698.885 113.365 699.261 113.072C699.64 112.776 700.095 112.628 700.625 112.628C701.155 112.628 701.609 112.776 701.985 113.072C702.364 113.365 702.653 113.791 702.852 114.35C703.053 114.906 703.153 115.578 703.153 116.364C703.153 117.154 703.054 117.829 702.855 118.388C702.656 118.944 702.369 119.369 701.992 119.663C701.616 119.954 701.16 120.099 700.625 120.099ZM700.625 119.318C701.155 119.318 701.567 119.062 701.861 118.551C702.154 118.04 702.301 117.311 702.301 116.364C702.301 115.734 702.234 115.198 702.099 114.755C701.966 114.312 701.774 113.975 701.523 113.743C701.275 113.511 700.975 113.395 700.625 113.395C700.099 113.395 699.689 113.654 699.393 114.173C699.097 114.689 698.949 115.419 698.949 116.364C698.949 116.993 699.015 117.528 699.148 117.969C699.28 118.409 699.471 118.744 699.719 118.974C699.97 119.203 700.272 119.318 700.625 119.318ZM704.503 120V119.361L706.903 116.733C707.185 116.425 707.417 116.158 707.599 115.93C707.782 115.701 707.917 115.485 708.004 115.284C708.094 115.08 708.139 114.867 708.139 114.645C708.139 114.389 708.078 114.168 707.955 113.981C707.834 113.794 707.668 113.649 707.457 113.548C707.247 113.446 707.01 113.395 706.747 113.395C706.468 113.395 706.224 113.453 706.016 113.569C705.81 113.683 705.65 113.842 705.536 114.048C705.425 114.254 705.369 114.496 705.369 114.773H704.531C704.531 114.347 704.629 113.973 704.826 113.651C705.022 113.329 705.29 113.078 705.629 112.898C705.969 112.718 706.352 112.628 706.776 112.628C707.202 112.628 707.579 112.718 707.908 112.898C708.237 113.078 708.496 113.32 708.683 113.626C708.87 113.931 708.963 114.271 708.963 114.645C708.963 114.912 708.915 115.174 708.817 115.43C708.723 115.683 708.557 115.966 708.32 116.278C708.086 116.589 707.76 116.967 707.344 117.415L705.71 119.162V119.219H709.091V120H704.503ZM710.231 118.509V117.784L713.427 112.727H713.952V113.849H713.597L711.183 117.67V117.727H715.487V118.509H710.231ZM713.654 120V118.288V117.951V112.727H714.492V120H713.654ZM717.1 120.057C716.925 120.057 716.775 119.994 716.65 119.869C716.524 119.743 716.461 119.593 716.461 119.418C716.461 119.242 716.524 119.092 716.65 118.967C716.775 118.841 716.925 118.778 717.1 118.778C717.276 118.778 717.426 118.841 717.551 118.967C717.677 119.092 717.74 119.242 717.74 119.418C717.74 119.534 717.71 119.64 717.651 119.737C717.594 119.834 717.517 119.912 717.42 119.972C717.325 120.028 717.219 120.057 717.1 120.057ZM722.468 120H721.545L724.215 112.727H725.124L727.795 120H726.871L724.698 113.878H724.641L722.468 120ZM722.809 117.159H726.531V117.94H722.809V117.159ZM729.652 112.727V120H728.814V112.727H729.652ZM732.025 112.727V120H731.187V112.727H732.025ZM736.373 120V114.545H737.182V115.369H737.239C737.338 115.099 737.518 114.88 737.779 114.712C738.039 114.544 738.333 114.46 738.659 114.46C738.721 114.46 738.798 114.461 738.89 114.464C738.983 114.466 739.052 114.47 739.1 114.474V115.327C739.071 115.32 739.006 115.309 738.904 115.295C738.805 115.278 738.7 115.27 738.588 115.27C738.323 115.27 738.087 115.326 737.878 115.437C737.672 115.546 737.509 115.697 737.388 115.891C737.27 116.083 737.211 116.302 737.211 116.548V120H736.373ZM740.093 120V114.545H740.931V120H740.093ZM740.519 113.636C740.356 113.636 740.215 113.581 740.097 113.469C739.981 113.358 739.923 113.224 739.923 113.068C739.923 112.912 739.981 112.778 740.097 112.667C740.215 112.556 740.356 112.5 740.519 112.5C740.683 112.5 740.822 112.556 740.938 112.667C741.057 112.778 741.116 112.912 741.116 113.068C741.116 113.224 741.057 113.358 740.938 113.469C740.822 113.581 740.683 113.636 740.519 113.636ZM744.668 122.159C744.263 122.159 743.915 122.107 743.624 122.003C743.333 121.901 743.09 121.766 742.896 121.598C742.704 121.432 742.551 121.255 742.438 121.065L743.105 120.597C743.181 120.696 743.277 120.81 743.393 120.938C743.509 121.068 743.668 121.18 743.869 121.275C744.073 121.372 744.339 121.42 744.668 121.42C745.108 121.42 745.472 121.314 745.758 121.101C746.045 120.888 746.188 120.554 746.188 120.099V118.991H746.117C746.055 119.091 745.968 119.214 745.854 119.361C745.743 119.505 745.582 119.634 745.371 119.748C745.163 119.859 744.881 119.915 744.526 119.915C744.086 119.915 743.69 119.811 743.34 119.602C742.992 119.394 742.716 119.091 742.512 118.693C742.311 118.295 742.211 117.812 742.211 117.244C742.211 116.686 742.309 116.199 742.505 115.785C742.702 115.368 742.975 115.046 743.326 114.819C743.676 114.589 744.081 114.474 744.54 114.474C744.895 114.474 745.177 114.534 745.385 114.652C745.596 114.768 745.757 114.901 745.868 115.05C745.982 115.196 746.069 115.317 746.131 115.412H746.216V114.545H747.026V120.156C747.026 120.625 746.919 121.006 746.706 121.3C746.496 121.596 746.212 121.812 745.854 121.95C745.499 122.089 745.104 122.159 744.668 122.159ZM744.64 119.162C744.976 119.162 745.26 119.085 745.492 118.931C745.724 118.777 745.9 118.556 746.021 118.267C746.142 117.978 746.202 117.633 746.202 117.23C746.202 116.837 746.143 116.49 746.025 116.19C745.906 115.889 745.731 115.653 745.499 115.483C745.267 115.312 744.98 115.227 744.64 115.227C744.284 115.227 743.989 115.317 743.752 115.497C743.517 115.677 743.341 115.919 743.223 116.222C743.107 116.525 743.049 116.861 743.049 117.23C743.049 117.609 743.108 117.944 743.226 118.235C743.347 118.524 743.525 118.751 743.759 118.917C743.996 119.08 744.289 119.162 744.64 119.162ZM749.398 116.719V120H748.56V112.727H749.398V115.398H749.469C749.597 115.116 749.789 114.892 750.044 114.727C750.302 114.558 750.646 114.474 751.074 114.474C751.446 114.474 751.771 114.549 752.051 114.698C752.33 114.845 752.547 115.071 752.701 115.376C752.857 115.679 752.935 116.065 752.935 116.534V120H752.097V116.591C752.097 116.158 751.984 115.823 751.76 115.586C751.537 115.347 751.228 115.227 750.833 115.227C750.558 115.227 750.312 115.285 750.094 115.401C749.879 115.517 749.708 115.687 749.583 115.909C749.46 116.132 749.398 116.402 749.398 116.719ZM756.84 114.545V115.256H754.014V114.545H756.84ZM754.838 113.239H755.676V118.438C755.676 118.674 755.71 118.852 755.779 118.97C755.85 119.086 755.94 119.164 756.048 119.205C756.16 119.242 756.277 119.261 756.4 119.261C756.492 119.261 756.568 119.257 756.627 119.247C756.686 119.235 756.734 119.226 756.769 119.219L756.94 119.972C756.883 119.993 756.804 120.014 756.702 120.036C756.6 120.059 756.471 120.071 756.315 120.071C756.078 120.071 755.846 120.02 755.619 119.918C755.394 119.817 755.207 119.661 755.058 119.453C754.911 119.245 754.838 118.982 754.838 118.665V113.239ZM761.867 115.767L761.114 115.98C761.067 115.855 760.997 115.733 760.905 115.614C760.815 115.494 760.692 115.394 760.535 115.316C760.379 115.238 760.179 115.199 759.935 115.199C759.601 115.199 759.323 115.276 759.101 115.43C758.881 115.581 758.77 115.774 758.77 116.009C758.77 116.217 758.846 116.381 758.998 116.502C759.149 116.623 759.386 116.723 759.708 116.804L760.518 117.003C761.005 117.121 761.369 117.302 761.608 117.546C761.847 117.788 761.966 118.099 761.966 118.48C761.966 118.793 761.876 119.072 761.697 119.318C761.519 119.564 761.27 119.759 760.951 119.901C760.631 120.043 760.26 120.114 759.836 120.114C759.279 120.114 758.819 119.993 758.454 119.751C758.09 119.51 757.859 119.157 757.762 118.693L758.557 118.494C758.633 118.788 758.776 119.008 758.987 119.155C759.2 119.302 759.478 119.375 759.822 119.375C760.212 119.375 760.522 119.292 760.752 119.126C760.984 118.958 761.1 118.757 761.1 118.523C761.1 118.333 761.034 118.175 760.901 118.047C760.769 117.917 760.565 117.82 760.29 117.756L759.381 117.543C758.882 117.424 758.515 117.241 758.28 116.992C758.048 116.741 757.932 116.428 757.932 116.051C757.932 115.743 758.019 115.471 758.192 115.234C758.367 114.998 758.605 114.812 758.905 114.677C759.208 114.542 759.552 114.474 759.935 114.474C760.475 114.474 760.899 114.593 761.206 114.83C761.517 115.066 761.737 115.379 761.867 115.767ZM766.154 120V112.727H768.612C769.18 112.727 769.646 112.824 770.011 113.018C770.375 113.21 770.645 113.474 770.82 113.81C770.996 114.147 771.083 114.529 771.083 114.957C771.083 115.386 770.996 115.766 770.82 116.097C770.645 116.429 770.376 116.689 770.014 116.879C769.652 117.066 769.189 117.159 768.626 117.159H766.637V116.364H768.597C768.986 116.364 769.298 116.307 769.535 116.193C769.774 116.08 769.947 115.919 770.053 115.71C770.162 115.5 770.217 115.249 770.217 114.957C770.217 114.666 770.162 114.412 770.053 114.194C769.944 113.976 769.77 113.808 769.531 113.69C769.292 113.569 768.976 113.509 768.583 113.509H767.035V120H766.154ZM769.577 116.733L771.367 120H770.344L768.583 116.733H769.577ZM774.665 120.114C774.14 120.114 773.686 119.998 773.305 119.766C772.926 119.531 772.634 119.205 772.428 118.786C772.224 118.364 772.123 117.874 772.123 117.315C772.123 116.757 772.224 116.264 772.428 115.838C772.634 115.41 772.921 115.076 773.287 114.837C773.657 114.595 774.088 114.474 774.58 114.474C774.864 114.474 775.145 114.522 775.422 114.616C775.699 114.711 775.951 114.865 776.178 115.078C776.405 115.289 776.586 115.568 776.721 115.916C776.856 116.264 776.924 116.693 776.924 117.202V117.557H772.719V116.832H776.072C776.072 116.525 776.01 116.25 775.887 116.009C775.766 115.767 775.593 115.576 775.368 115.437C775.146 115.297 774.883 115.227 774.58 115.227C774.246 115.227 773.957 115.31 773.714 115.476C773.472 115.639 773.286 115.852 773.156 116.115C773.026 116.378 772.961 116.66 772.961 116.96V117.443C772.961 117.855 773.032 118.204 773.174 118.491C773.318 118.775 773.518 118.991 773.774 119.141C774.03 119.287 774.327 119.361 774.665 119.361C774.885 119.361 775.084 119.33 775.262 119.268C775.442 119.205 775.597 119.11 775.727 118.984C775.857 118.857 775.958 118.698 776.029 118.509L776.839 118.736C776.753 119.01 776.61 119.252 776.409 119.46C776.208 119.666 775.959 119.827 775.663 119.943C775.367 120.057 775.035 120.114 774.665 120.114ZM782.062 115.767L781.309 115.98C781.262 115.855 781.192 115.733 781.1 115.614C781.01 115.494 780.887 115.394 780.731 115.316C780.574 115.238 780.374 115.199 780.131 115.199C779.797 115.199 779.519 115.276 779.296 115.43C779.076 115.581 778.966 115.774 778.966 116.009C778.966 116.217 779.041 116.381 779.193 116.502C779.345 116.623 779.581 116.723 779.903 116.804L780.713 117.003C781.201 117.121 781.564 117.302 781.803 117.546C782.042 117.788 782.162 118.099 782.162 118.48C782.162 118.793 782.072 119.072 781.892 119.318C781.714 119.564 781.466 119.759 781.146 119.901C780.827 120.043 780.455 120.114 780.031 120.114C779.475 120.114 779.014 119.993 778.65 119.751C778.285 119.51 778.054 119.157 777.957 118.693L778.753 118.494C778.828 118.788 778.972 119.008 779.182 119.155C779.395 119.302 779.674 119.375 780.017 119.375C780.407 119.375 780.718 119.292 780.947 119.126C781.179 118.958 781.295 118.757 781.295 118.523C781.295 118.333 781.229 118.175 781.096 118.047C780.964 117.917 780.76 117.82 780.486 117.756L779.577 117.543C779.077 117.424 778.71 117.241 778.476 116.992C778.244 116.741 778.128 116.428 778.128 116.051C778.128 115.743 778.214 115.471 778.387 115.234C778.562 114.998 778.8 114.812 779.101 114.677C779.404 114.542 779.747 114.474 780.131 114.474C780.67 114.474 781.094 114.593 781.402 114.83C781.712 115.066 781.932 115.379 782.062 115.767ZM785.71 120.114C785.185 120.114 784.731 119.998 784.35 119.766C783.971 119.531 783.679 119.205 783.473 118.786C783.269 118.364 783.168 117.874 783.168 117.315C783.168 116.757 783.269 116.264 783.473 115.838C783.679 115.41 783.965 115.076 784.332 114.837C784.702 114.595 785.133 114.474 785.625 114.474C785.909 114.474 786.19 114.522 786.467 114.616C786.744 114.711 786.996 114.865 787.223 115.078C787.45 115.289 787.631 115.568 787.766 115.916C787.901 116.264 787.969 116.693 787.969 117.202V117.557H783.764V116.832H787.116C787.116 116.525 787.055 116.25 786.932 116.009C786.811 115.767 786.638 115.576 786.413 115.437C786.191 115.297 785.928 115.227 785.625 115.227C785.291 115.227 785.002 115.31 784.759 115.476C784.517 115.639 784.331 115.852 784.201 116.115C784.071 116.378 784.006 116.66 784.006 116.96V117.443C784.006 117.855 784.077 118.204 784.219 118.491C784.363 118.775 784.563 118.991 784.819 119.141C785.075 119.287 785.372 119.361 785.71 119.361C785.93 119.361 786.129 119.33 786.307 119.268C786.487 119.205 786.642 119.11 786.772 118.984C786.902 118.857 787.003 118.698 787.074 118.509L787.884 118.736C787.798 119.01 787.655 119.252 787.454 119.46C787.253 119.666 787.004 119.827 786.708 119.943C786.412 120.057 786.08 120.114 785.71 120.114ZM789.244 120V114.545H790.053V115.369H790.11C790.21 115.099 790.389 114.88 790.65 114.712C790.91 114.544 791.204 114.46 791.531 114.46C791.592 114.46 791.669 114.461 791.761 114.464C791.854 114.466 791.924 114.47 791.971 114.474V115.327C791.942 115.32 791.877 115.309 791.776 115.295C791.676 115.278 791.571 115.27 791.46 115.27C791.194 115.27 790.958 115.326 790.749 115.437C790.543 115.546 790.38 115.697 790.259 115.891C790.141 116.083 790.082 116.302 790.082 116.548V120H789.244ZM797.591 114.545L795.574 120H794.721L792.704 114.545H793.613L795.119 118.892H795.176L796.681 114.545H797.591ZM800.788 120.114C800.263 120.114 799.809 119.998 799.428 119.766C799.049 119.531 798.757 119.205 798.551 118.786C798.348 118.364 798.246 117.874 798.246 117.315C798.246 116.757 798.348 116.264 798.551 115.838C798.757 115.41 799.044 115.076 799.411 114.837C799.78 114.595 800.211 114.474 800.703 114.474C800.987 114.474 801.268 114.522 801.545 114.616C801.822 114.711 802.074 114.865 802.301 115.078C802.528 115.289 802.71 115.568 802.844 115.916C802.979 116.264 803.047 116.693 803.047 117.202V117.557H798.842V116.832H802.195C802.195 116.525 802.133 116.25 802.01 116.009C801.889 115.767 801.716 115.576 801.491 115.437C801.269 115.297 801.006 115.227 800.703 115.227C800.369 115.227 800.08 115.31 799.837 115.476C799.595 115.639 799.409 115.852 799.279 116.115C799.149 116.378 799.084 116.66 799.084 116.96V117.443C799.084 117.855 799.155 118.204 799.297 118.491C799.441 118.775 799.641 118.991 799.897 119.141C800.153 119.287 800.45 119.361 800.788 119.361C801.009 119.361 801.207 119.33 801.385 119.268C801.565 119.205 801.72 119.11 801.85 118.984C801.98 118.857 802.081 118.698 802.152 118.509L802.962 118.736C802.876 119.01 802.733 119.252 802.532 119.46C802.331 119.666 802.082 119.827 801.786 119.943C801.49 120.057 801.158 120.114 800.788 120.114ZM806.381 120.114C805.927 120.114 805.526 119.999 805.178 119.769C804.83 119.537 804.557 119.21 804.361 118.789C804.164 118.365 804.066 117.865 804.066 117.287C804.066 116.714 804.164 116.217 804.361 115.795C804.557 115.374 804.831 115.049 805.181 114.819C805.531 114.589 805.936 114.474 806.396 114.474C806.751 114.474 807.031 114.534 807.237 114.652C807.446 114.768 807.604 114.901 807.713 115.05C807.824 115.196 807.911 115.317 807.972 115.412H808.043V112.727H808.881V120H808.072V119.162H807.972C807.911 119.261 807.823 119.387 807.71 119.538C807.596 119.687 807.434 119.821 807.223 119.94C807.012 120.056 806.732 120.114 806.381 120.114ZM806.495 119.361C806.831 119.361 807.115 119.273 807.347 119.098C807.579 118.92 807.756 118.675 807.876 118.363C807.997 118.048 808.058 117.685 808.058 117.273C808.058 116.866 807.998 116.509 807.88 116.204C807.762 115.896 807.586 115.657 807.354 115.487C807.122 115.314 806.836 115.227 806.495 115.227C806.14 115.227 805.844 115.318 805.607 115.501C805.373 115.681 805.196 115.926 805.078 116.236C804.962 116.544 804.904 116.889 804.904 117.273C804.904 117.661 804.963 118.014 805.082 118.331C805.202 118.646 805.38 118.897 805.614 119.084C805.851 119.268 806.145 119.361 806.495 119.361Z" fill="#F9F9F9"/>
<path d="M1129.78 88H1128.9C1128.85 87.7467 1128.75 87.5241 1128.62 87.3324C1128.5 87.1406 1128.34 86.9796 1128.16 86.8494C1127.97 86.7169 1127.77 86.6174 1127.55 86.5511C1127.33 86.4848 1127.09 86.4517 1126.85 86.4517C1126.41 86.4517 1126.01 86.563 1125.66 86.7855C1125.3 87.008 1125.02 87.3359 1124.81 87.7692C1124.6 88.2024 1124.49 88.7339 1124.49 89.3636C1124.49 89.9934 1124.6 90.5249 1124.81 90.9581C1125.02 91.3913 1125.3 91.7192 1125.66 91.9418C1126.01 92.1643 1126.41 92.2756 1126.85 92.2756C1127.09 92.2756 1127.33 92.2424 1127.55 92.1761C1127.77 92.1098 1127.97 92.0116 1128.16 91.8814C1128.34 91.7488 1128.5 91.5866 1128.62 91.3949C1128.75 91.2008 1128.85 90.9782 1128.9 90.7273H1129.78C1129.71 91.099 1129.59 91.4316 1129.42 91.7251C1129.24 92.0187 1129.02 92.2685 1128.76 92.4744C1128.5 92.678 1128.21 92.8331 1127.89 92.9396C1127.56 93.0462 1127.22 93.0994 1126.85 93.0994C1126.23 93.0994 1125.68 92.9479 1125.2 92.6449C1124.71 92.3419 1124.33 91.911 1124.06 91.3523C1123.78 90.7936 1123.64 90.1307 1123.64 89.3636C1123.64 88.5966 1123.78 87.9337 1124.06 87.375C1124.33 86.8163 1124.71 86.3854 1125.2 86.0824C1125.68 85.7794 1126.23 85.6278 1126.85 85.6278C1127.22 85.6278 1127.56 85.6811 1127.89 85.7876C1128.21 85.8942 1128.5 86.0504 1128.76 86.2564C1129.02 86.46 1129.24 86.7086 1129.42 87.0021C1129.59 87.2933 1129.71 87.6259 1129.78 88ZM1133.3 93.1136C1132.81 93.1136 1132.38 92.9964 1132.01 92.7621C1131.64 92.5277 1131.35 92.1998 1131.14 91.7784C1130.94 91.357 1130.83 90.8646 1130.83 90.3011C1130.83 89.733 1130.94 89.237 1131.14 88.8132C1131.35 88.3894 1131.64 88.0604 1132.01 87.826C1132.38 87.5916 1132.81 87.4744 1133.3 87.4744C1133.8 87.4744 1134.23 87.5916 1134.6 87.826C1134.97 88.0604 1135.26 88.3894 1135.46 88.8132C1135.67 89.237 1135.78 89.733 1135.78 90.3011C1135.78 90.8646 1135.67 91.357 1135.46 91.7784C1135.26 92.1998 1134.97 92.5277 1134.6 92.7621C1134.23 92.9964 1133.8 93.1136 1133.3 93.1136ZM1133.3 92.3608C1133.68 92.3608 1133.99 92.2649 1134.23 92.0732C1134.47 91.8814 1134.65 91.6293 1134.76 91.3168C1134.88 91.0043 1134.94 90.6657 1134.94 90.3011C1134.94 89.9366 1134.88 89.5968 1134.76 89.282C1134.65 88.9671 1134.47 88.7126 1134.23 88.5185C1133.99 88.3243 1133.68 88.2273 1133.3 88.2273C1132.93 88.2273 1132.62 88.3243 1132.38 88.5185C1132.14 88.7126 1131.96 88.9671 1131.84 89.282C1131.73 89.5968 1131.67 89.9366 1131.67 90.3011C1131.67 90.6657 1131.73 91.0043 1131.84 91.3168C1131.96 91.6293 1132.14 91.8814 1132.38 92.0732C1132.62 92.2649 1132.93 92.3608 1133.3 92.3608ZM1137.89 89.7188V93H1137.06V87.5455H1137.86V88.3977H1137.94C1138.06 88.1207 1138.26 87.8982 1138.52 87.7301C1138.78 87.5597 1139.11 87.4744 1139.53 87.4744C1139.9 87.4744 1140.22 87.5502 1140.5 87.7017C1140.77 87.8509 1140.99 88.0781 1141.14 88.3835C1141.3 88.6866 1141.37 89.0701 1141.37 89.5341V93H1140.54V89.5909C1140.54 89.1624 1140.42 88.8286 1140.2 88.5895C1139.98 88.348 1139.67 88.2273 1139.29 88.2273C1139.02 88.2273 1138.78 88.2853 1138.57 88.4013C1138.36 88.5173 1138.2 88.6866 1138.07 88.9091C1137.95 89.1316 1137.89 89.4015 1137.89 89.7188ZM1145.28 87.5455V88.2557H1142.45V87.5455H1145.28ZM1143.27 86.2386H1144.11V91.4375C1144.11 91.6742 1144.15 91.8518 1144.22 91.9702C1144.29 92.0862 1144.38 92.1643 1144.48 92.2045C1144.6 92.2424 1144.71 92.2614 1144.84 92.2614C1144.93 92.2614 1145 92.2566 1145.06 92.2472C1145.12 92.2353 1145.17 92.2259 1145.21 92.2188L1145.38 92.9716C1145.32 92.9929 1145.24 93.0142 1145.14 93.0355C1145.04 93.0592 1144.91 93.071 1144.75 93.071C1144.51 93.071 1144.28 93.0201 1144.06 92.9183C1143.83 92.8165 1143.64 92.6615 1143.49 92.4531C1143.35 92.2448 1143.27 91.982 1143.27 91.6648V86.2386ZM1148.14 93.1278C1147.8 93.1278 1147.48 93.0627 1147.2 92.9325C1146.92 92.8 1146.7 92.6094 1146.53 92.3608C1146.36 92.1098 1146.28 91.8068 1146.28 91.4517C1146.28 91.1392 1146.34 90.8859 1146.47 90.6918C1146.59 90.4953 1146.75 90.3414 1146.96 90.2301C1147.17 90.1188 1147.39 90.036 1147.64 89.9815C1147.89 89.9247 1148.15 89.8797 1148.4 89.8466C1148.73 89.804 1149 89.772 1149.2 89.7507C1149.41 89.727 1149.56 89.688 1149.66 89.6335C1149.76 89.5791 1149.8 89.4844 1149.8 89.3494V89.321C1149.8 88.9706 1149.71 88.6984 1149.52 88.5043C1149.33 88.3101 1149.04 88.2131 1148.65 88.2131C1148.25 88.2131 1147.94 88.3007 1147.71 88.4759C1147.49 88.651 1147.33 88.8381 1147.23 89.0369L1146.44 88.7528C1146.58 88.4214 1146.77 88.1634 1147.01 87.9787C1147.25 87.7917 1147.51 87.6615 1147.79 87.5881C1148.07 87.5123 1148.35 87.4744 1148.63 87.4744C1148.8 87.4744 1149 87.4957 1149.23 87.5384C1149.46 87.5786 1149.68 87.6626 1149.89 87.7905C1150.11 87.9183 1150.29 88.1113 1150.43 88.3693C1150.57 88.6274 1150.64 88.973 1150.64 89.4062V93H1149.8V92.2614H1149.76C1149.71 92.3797 1149.61 92.5064 1149.48 92.6413C1149.35 92.7763 1149.17 92.8911 1148.95 92.9858C1148.73 93.0805 1148.46 93.1278 1148.14 93.1278ZM1148.27 92.375C1148.6 92.375 1148.88 92.3099 1149.11 92.1797C1149.34 92.0495 1149.51 91.8814 1149.63 91.6754C1149.75 91.4695 1149.8 91.2528 1149.8 91.0256V90.2585C1149.77 90.3011 1149.69 90.3402 1149.57 90.3757C1149.45 90.4089 1149.31 90.4384 1149.16 90.4645C1149 90.4882 1148.85 90.5095 1148.71 90.5284C1148.56 90.545 1148.45 90.5592 1148.36 90.571C1148.14 90.5994 1147.93 90.6456 1147.74 90.7095C1147.56 90.7711 1147.41 90.8646 1147.29 90.9901C1147.18 91.1132 1147.12 91.2812 1147.12 91.4943C1147.12 91.7855 1147.23 92.0057 1147.44 92.1548C1147.66 92.3016 1147.94 92.375 1148.27 92.375ZM1154.39 93.1136C1153.88 93.1136 1153.44 92.9929 1153.07 92.7514C1152.7 92.5099 1152.41 92.1773 1152.21 91.7536C1152.02 91.3298 1151.92 90.8456 1151.92 90.3011C1151.92 89.7472 1152.02 89.2583 1152.22 88.8345C1152.43 88.4084 1152.71 88.0758 1153.08 87.8366C1153.45 87.5952 1153.88 87.4744 1154.37 87.4744C1154.76 87.4744 1155.1 87.5455 1155.41 87.6875C1155.72 87.8295 1155.97 88.0284 1156.17 88.2841C1156.36 88.5398 1156.49 88.8381 1156.53 89.179H1155.7C1155.63 88.9304 1155.49 88.7102 1155.27 88.5185C1155.05 88.3243 1154.76 88.2273 1154.39 88.2273C1154.06 88.2273 1153.78 88.3125 1153.53 88.483C1153.29 88.651 1153.09 88.889 1152.96 89.1967C1152.82 89.5021 1152.75 89.8608 1152.75 90.2727C1152.75 90.6941 1152.82 91.0611 1152.95 91.3736C1153.09 91.6861 1153.28 91.9287 1153.52 92.1016C1153.77 92.2744 1154.06 92.3608 1154.39 92.3608C1154.61 92.3608 1154.8 92.3229 1154.98 92.2472C1155.16 92.1714 1155.31 92.0625 1155.43 91.9205C1155.56 91.7784 1155.64 91.608 1155.7 91.4091H1156.53C1156.49 91.7311 1156.37 92.0211 1156.18 92.2791C1156 92.5348 1155.75 92.7384 1155.45 92.8899C1155.14 93.0391 1154.79 93.1136 1154.39 93.1136ZM1160.13 87.5455V88.2557H1157.3V87.5455H1160.13ZM1158.13 86.2386H1158.97V91.4375C1158.97 91.6742 1159 91.8518 1159.07 91.9702C1159.14 92.0862 1159.23 92.1643 1159.34 92.2045C1159.45 92.2424 1159.57 92.2614 1159.69 92.2614C1159.78 92.2614 1159.86 92.2566 1159.92 92.2472C1159.98 92.2353 1160.02 92.2259 1160.06 92.2188L1160.23 92.9716C1160.17 92.9929 1160.09 93.0142 1159.99 93.0355C1159.89 93.0592 1159.76 93.071 1159.6 93.071C1159.37 93.071 1159.14 93.0201 1158.91 92.9183C1158.68 92.8165 1158.5 92.6615 1158.35 92.4531C1158.2 92.2448 1158.13 91.982 1158.13 91.6648V86.2386ZM1167.64 90.7699V87.5455H1168.48V93H1167.64V92.0767H1167.58C1167.46 92.3537 1167.26 92.5893 1166.99 92.7834C1166.72 92.9751 1166.38 93.071 1165.96 93.071C1165.62 93.071 1165.32 92.9964 1165.06 92.8473C1164.79 92.6958 1164.58 92.4685 1164.43 92.1655C1164.28 91.8601 1164.2 91.4754 1164.2 91.0114V87.5455H1165.04V90.9545C1165.04 91.3523 1165.15 91.6695 1165.38 91.9062C1165.6 92.143 1165.89 92.2614 1166.23 92.2614C1166.44 92.2614 1166.66 92.2081 1166.87 92.1016C1167.09 91.995 1167.27 91.8317 1167.42 91.6115C1167.57 91.3913 1167.64 91.1108 1167.64 90.7699ZM1173.88 88.767L1173.12 88.9801C1173.08 88.8546 1173.01 88.7327 1172.92 88.6143C1172.83 88.4936 1172.7 88.3942 1172.55 88.3161C1172.39 88.2379 1172.19 88.1989 1171.95 88.1989C1171.61 88.1989 1171.33 88.2758 1171.11 88.4297C1170.89 88.5812 1170.78 88.7741 1170.78 89.0085C1170.78 89.2169 1170.86 89.3814 1171.01 89.5021C1171.16 89.6229 1171.4 89.7235 1171.72 89.804L1172.53 90.0028C1173.02 90.1212 1173.38 90.3023 1173.62 90.5462C1173.86 90.7876 1173.98 91.099 1173.98 91.4801C1173.98 91.7926 1173.89 92.072 1173.71 92.3182C1173.53 92.5644 1173.28 92.7585 1172.96 92.9006C1172.64 93.0426 1172.27 93.1136 1171.85 93.1136C1171.29 93.1136 1170.83 92.9929 1170.47 92.7514C1170.1 92.5099 1169.87 92.1572 1169.77 91.6932L1170.57 91.4943C1170.64 91.7879 1170.79 92.008 1171 92.1548C1171.21 92.3016 1171.49 92.375 1171.83 92.375C1172.22 92.375 1172.53 92.2921 1172.76 92.1264C1172.99 91.9583 1173.11 91.7571 1173.11 91.5227C1173.11 91.3333 1173.04 91.1747 1172.91 91.0469C1172.78 90.9167 1172.58 90.8196 1172.3 90.7557L1171.39 90.5426C1170.89 90.4242 1170.53 90.2408 1170.29 89.9922C1170.06 89.7412 1169.94 89.4276 1169.94 89.0511C1169.94 88.7434 1170.03 88.4711 1170.2 88.2344C1170.38 87.9976 1170.62 87.8118 1170.92 87.6768C1171.22 87.5419 1171.56 87.4744 1171.95 87.4744C1172.49 87.4744 1172.91 87.5928 1173.22 87.8295C1173.53 88.0663 1173.75 88.3788 1173.88 88.767ZM1179.66 93.1278C1179.31 93.1278 1179 93.0627 1178.72 92.9325C1178.43 92.8 1178.21 92.6094 1178.04 92.3608C1177.88 92.1098 1177.8 91.8068 1177.8 91.4517C1177.8 91.1392 1177.86 90.8859 1177.98 90.6918C1178.1 90.4953 1178.27 90.3414 1178.47 90.2301C1178.68 90.1188 1178.91 90.036 1179.16 89.9815C1179.41 89.9247 1179.66 89.8797 1179.91 89.8466C1180.24 89.804 1180.51 89.772 1180.72 89.7507C1180.93 89.727 1181.08 89.688 1181.17 89.6335C1181.27 89.5791 1181.32 89.4844 1181.32 89.3494V89.321C1181.32 88.9706 1181.22 88.6984 1181.03 88.5043C1180.84 88.3101 1180.55 88.2131 1180.17 88.2131C1179.77 88.2131 1179.45 88.3007 1179.23 88.4759C1179 88.651 1178.84 88.8381 1178.75 89.0369L1177.95 88.7528C1178.09 88.4214 1178.28 88.1634 1178.52 87.9787C1178.76 87.7917 1179.02 87.6615 1179.3 87.5881C1179.59 87.5123 1179.86 87.4744 1180.14 87.4744C1180.31 87.4744 1180.52 87.4957 1180.74 87.5384C1180.97 87.5786 1181.19 87.6626 1181.41 87.7905C1181.62 87.9183 1181.8 88.1113 1181.94 88.3693C1182.09 88.6274 1182.16 88.973 1182.16 89.4062V93H1181.32V92.2614H1181.28C1181.22 92.3797 1181.12 92.5064 1180.99 92.6413C1180.86 92.7763 1180.68 92.8911 1180.46 92.9858C1180.24 93.0805 1179.97 93.1278 1179.66 93.1278ZM1179.78 92.375C1180.12 92.375 1180.39 92.3099 1180.62 92.1797C1180.85 92.0495 1181.02 91.8814 1181.14 91.6754C1181.26 91.4695 1181.32 91.2528 1181.32 91.0256V90.2585C1181.28 90.3011 1181.2 90.3402 1181.08 90.3757C1180.97 90.4089 1180.83 90.4384 1180.67 90.4645C1180.52 90.4882 1180.37 90.5095 1180.22 90.5284C1180.08 90.545 1179.96 90.5592 1179.87 90.571C1179.65 90.5994 1179.45 90.6456 1179.26 90.7095C1179.07 90.7711 1178.92 90.8646 1178.8 90.9901C1178.69 91.1132 1178.63 91.2812 1178.63 91.4943C1178.63 91.7855 1178.74 92.0057 1178.96 92.1548C1179.17 92.3016 1179.45 92.375 1179.78 92.375ZM1186.06 87.5455V88.2557H1183.23V87.5455H1186.06ZM1184.06 86.2386H1184.89V91.4375C1184.89 91.6742 1184.93 91.8518 1185 91.9702C1185.07 92.0862 1185.16 92.1643 1185.27 92.2045C1185.38 92.2424 1185.49 92.2614 1185.62 92.2614C1185.71 92.2614 1185.79 92.2566 1185.85 92.2472C1185.9 92.2353 1185.95 92.2259 1185.99 92.2188L1186.16 92.9716C1186.1 92.9929 1186.02 93.0142 1185.92 93.0355C1185.82 93.0592 1185.69 93.071 1185.53 93.071C1185.3 93.071 1185.06 93.0201 1184.84 92.9183C1184.61 92.8165 1184.42 92.6615 1184.28 92.4531C1184.13 92.2448 1184.06 91.982 1184.06 91.6648V86.2386ZM1190.12 93V92.3608L1192.52 89.733C1192.8 89.4252 1193.03 89.1577 1193.21 88.9304C1193.4 88.7008 1193.53 88.4853 1193.62 88.2841C1193.71 88.0805 1193.75 87.8674 1193.75 87.6449C1193.75 87.3892 1193.69 87.1679 1193.57 86.9808C1193.45 86.7938 1193.28 86.6494 1193.07 86.5476C1192.86 86.4458 1192.62 86.3949 1192.36 86.3949C1192.08 86.3949 1191.84 86.4529 1191.63 86.5689C1191.42 86.6825 1191.26 86.8423 1191.15 87.0483C1191.04 87.2543 1190.98 87.4957 1190.98 87.7727H1190.15C1190.15 87.3466 1190.24 86.9725 1190.44 86.6506C1190.64 86.3286 1190.9 86.0777 1191.24 85.8977C1191.58 85.7178 1191.97 85.6278 1192.39 85.6278C1192.82 85.6278 1193.19 85.7178 1193.52 85.8977C1193.85 86.0777 1194.11 86.3203 1194.3 86.6257C1194.48 86.9311 1194.58 87.2708 1194.58 87.6449C1194.58 87.9124 1194.53 88.174 1194.43 88.4297C1194.34 88.683 1194.17 88.9659 1193.93 89.2784C1193.7 89.5885 1193.37 89.9673 1192.96 90.4148L1191.32 92.1619V92.2188H1194.71V93H1190.12ZM1198.54 93.0994C1198.01 93.0994 1197.55 92.9538 1197.18 92.6626C1196.8 92.3691 1196.51 91.9441 1196.31 91.3878C1196.11 90.8291 1196.02 90.1544 1196.02 89.3636C1196.02 88.5777 1196.11 87.9065 1196.31 87.3501C1196.52 86.7914 1196.8 86.3653 1197.18 86.0717C1197.56 85.7758 1198.01 85.6278 1198.54 85.6278C1199.07 85.6278 1199.53 85.7758 1199.9 86.0717C1200.28 86.3653 1200.57 86.7914 1200.77 87.3501C1200.97 87.9065 1201.07 88.5777 1201.07 89.3636C1201.07 90.1544 1200.97 90.8291 1200.77 91.3878C1200.58 91.9441 1200.29 92.3691 1199.91 92.6626C1199.53 92.9538 1199.08 93.0994 1198.54 93.0994ZM1198.54 92.3182C1199.07 92.3182 1199.49 92.0625 1199.78 91.5511C1200.07 91.0398 1200.22 90.3106 1200.22 89.3636C1200.22 88.7339 1200.15 88.1977 1200.02 87.755C1199.89 87.3123 1199.69 86.9749 1199.44 86.7429C1199.19 86.5109 1198.89 86.3949 1198.54 86.3949C1198.02 86.3949 1197.61 86.6541 1197.31 87.1726C1197.02 87.6887 1196.87 88.419 1196.87 89.3636C1196.87 89.9934 1196.93 90.5284 1197.07 90.9688C1197.2 91.4091 1197.39 91.7441 1197.64 91.9737C1197.89 92.2034 1198.19 92.3182 1198.54 92.3182ZM1204.04 93.1278C1203.7 93.1278 1203.38 93.0627 1203.1 92.9325C1202.82 92.8 1202.59 92.6094 1202.43 92.3608C1202.26 92.1098 1202.18 91.8068 1202.18 91.4517C1202.18 91.1392 1202.24 90.8859 1202.36 90.6918C1202.49 90.4953 1202.65 90.3414 1202.86 90.2301C1203.06 90.1188 1203.29 90.036 1203.54 89.9815C1203.79 89.9247 1204.04 89.8797 1204.3 89.8466C1204.63 89.804 1204.9 89.772 1205.1 89.7507C1205.31 89.727 1205.46 89.688 1205.56 89.6335C1205.65 89.5791 1205.7 89.4844 1205.7 89.3494V89.321C1205.7 88.9706 1205.61 88.6984 1205.42 88.5043C1205.23 88.3101 1204.94 88.2131 1204.55 88.2131C1204.15 88.2131 1203.84 88.3007 1203.61 88.4759C1203.38 88.651 1203.22 88.8381 1203.13 89.0369L1202.34 88.7528C1202.48 88.4214 1202.67 88.1634 1202.9 87.9787C1203.14 87.7917 1203.4 87.6615 1203.69 87.5881C1203.97 87.5123 1204.25 87.4744 1204.52 87.4744C1204.7 87.4744 1204.9 87.4957 1205.13 87.5384C1205.36 87.5786 1205.58 87.6626 1205.79 87.7905C1206.01 87.9183 1206.19 88.1113 1206.33 88.3693C1206.47 88.6274 1206.54 88.973 1206.54 89.4062V93H1205.7V92.2614H1205.66C1205.6 92.3797 1205.51 92.5064 1205.38 92.6413C1205.24 92.7763 1205.07 92.8911 1204.85 92.9858C1204.63 93.0805 1204.36 93.1278 1204.04 93.1278ZM1204.17 92.375C1204.5 92.375 1204.78 92.3099 1205.01 92.1797C1205.24 92.0495 1205.41 91.8814 1205.53 91.6754C1205.64 91.4695 1205.7 91.2528 1205.7 91.0256V90.2585C1205.67 90.3011 1205.59 90.3402 1205.47 90.3757C1205.35 90.4089 1205.21 90.4384 1205.06 90.4645C1204.9 90.4882 1204.75 90.5095 1204.61 90.5284C1204.46 90.545 1204.34 90.5592 1204.25 90.571C1204.04 90.5994 1203.83 90.6456 1203.64 90.7095C1203.46 90.7711 1203.3 90.8646 1203.19 90.9901C1203.08 91.1132 1203.02 91.2812 1203.02 91.4943C1203.02 91.7855 1203.13 92.0057 1203.34 92.1548C1203.56 92.3016 1203.84 92.375 1204.17 92.375ZM1210.37 85.6278C1210.67 85.6302 1210.97 85.687 1211.27 85.7983C1211.57 85.9096 1211.84 86.0942 1212.08 86.3523C1212.33 86.608 1212.53 86.9571 1212.68 87.3999C1212.83 87.8426 1212.9 88.3977 1212.9 89.0653C1212.9 89.7116 1212.84 90.2857 1212.72 90.7876C1212.59 91.2872 1212.42 91.7086 1212.19 92.0518C1211.96 92.3951 1211.69 92.6555 1211.36 92.8331C1211.03 93.0107 1210.67 93.0994 1210.26 93.0994C1209.85 93.0994 1209.49 93.0189 1209.17 92.858C1208.85 92.6946 1208.59 92.4685 1208.39 92.1797C1208.19 91.8885 1208.06 91.5511 1208 91.1676H1208.87C1208.94 91.5014 1209.1 91.7772 1209.33 91.995C1209.57 92.2105 1209.87 92.3182 1210.26 92.3182C1210.82 92.3182 1211.26 92.0732 1211.59 91.5831C1211.91 91.093 1212.08 90.4006 1212.08 89.5057H1212.02C1211.89 89.7045 1211.73 89.8762 1211.55 90.0206C1211.37 90.165 1211.16 90.2763 1210.94 90.3544C1210.72 90.4325 1210.48 90.4716 1210.23 90.4716C1209.81 90.4716 1209.43 90.3686 1209.08 90.1626C1208.74 89.9543 1208.46 89.669 1208.25 89.3068C1208.05 88.9422 1207.94 88.5256 1207.94 88.0568C1207.94 87.6117 1208.04 87.2045 1208.24 86.8352C1208.44 86.4635 1208.72 86.1676 1209.09 85.9474C1209.45 85.7273 1209.88 85.6207 1210.37 85.6278ZM1210.37 86.4091C1210.07 86.4091 1209.8 86.4837 1209.57 86.6328C1209.33 86.7796 1209.14 86.9785 1209 87.2294C1208.86 87.478 1208.8 87.7538 1208.8 88.0568C1208.8 88.3598 1208.86 88.6357 1208.99 88.8842C1209.13 89.1304 1209.31 89.3269 1209.54 89.4737C1209.78 89.6181 1210.05 89.6903 1210.34 89.6903C1210.57 89.6903 1210.78 89.6465 1210.97 89.5589C1211.17 89.469 1211.34 89.3471 1211.48 89.1932C1211.63 89.0369 1211.74 88.8606 1211.82 88.6641C1211.91 88.4652 1211.95 88.258 1211.95 88.0426C1211.95 87.7585 1211.88 87.4922 1211.74 87.2436C1211.61 86.995 1211.42 86.7938 1211.18 86.6399C1210.94 86.486 1210.67 86.4091 1210.37 86.4091ZM1216.85 85.7273V93H1215.97V86.6506H1215.93L1214.15 87.8295V86.9347L1215.97 85.7273H1216.85ZM1220.56 93.1278C1220.22 93.1278 1219.91 93.0627 1219.62 92.9325C1219.34 92.8 1219.12 92.6094 1218.95 92.3608C1218.79 92.1098 1218.7 91.8068 1218.7 91.4517C1218.7 91.1392 1218.77 90.8859 1218.89 90.6918C1219.01 90.4953 1219.18 90.3414 1219.38 90.2301C1219.59 90.1188 1219.82 90.036 1220.06 89.9815C1220.31 89.9247 1220.57 89.8797 1220.82 89.8466C1221.15 89.804 1221.42 89.772 1221.63 89.7507C1221.83 89.727 1221.99 89.688 1222.08 89.6335C1222.18 89.5791 1222.23 89.4844 1222.23 89.3494V89.321C1222.23 88.9706 1222.13 88.6984 1221.94 88.5043C1221.75 88.3101 1221.46 88.2131 1221.08 88.2131C1220.68 88.2131 1220.36 88.3007 1220.13 88.4759C1219.91 88.651 1219.75 88.8381 1219.66 89.0369L1218.86 88.7528C1219 88.4214 1219.19 88.1634 1219.43 87.9787C1219.67 87.7917 1219.93 87.6615 1220.21 87.5881C1220.49 87.5123 1220.77 87.4744 1221.05 87.4744C1221.22 87.4744 1221.42 87.4957 1221.65 87.5384C1221.88 87.5786 1222.1 87.6626 1222.32 87.7905C1222.53 87.9183 1222.71 88.1113 1222.85 88.3693C1222.99 88.6274 1223.06 88.973 1223.06 89.4062V93H1222.23V92.2614H1222.18C1222.13 92.3797 1222.03 92.5064 1221.9 92.6413C1221.77 92.7763 1221.59 92.8911 1221.37 92.9858C1221.15 93.0805 1220.88 93.1278 1220.56 93.1278ZM1220.69 92.375C1221.02 92.375 1221.3 92.3099 1221.53 92.1797C1221.76 92.0495 1221.93 91.8814 1222.05 91.6754C1222.17 91.4695 1222.23 91.2528 1222.23 91.0256V90.2585C1222.19 90.3011 1222.11 90.3402 1221.99 90.3757C1221.87 90.4089 1221.74 90.4384 1221.58 90.4645C1221.43 90.4882 1221.28 90.5095 1221.13 90.5284C1220.98 90.545 1220.87 90.5592 1220.78 90.571C1220.56 90.5994 1220.36 90.6456 1220.17 90.7095C1219.98 90.7711 1219.83 90.8646 1219.71 90.9901C1219.6 91.1132 1219.54 91.2812 1219.54 91.4943C1219.54 91.7855 1219.65 92.0057 1219.86 92.1548C1220.08 92.3016 1220.36 92.375 1220.69 92.375ZM1225.43 89.7188V93H1224.59V85.7273H1225.43V88.3977H1225.5C1225.63 88.116 1225.82 87.8923 1226.08 87.7266C1226.34 87.5585 1226.68 87.4744 1227.11 87.4744C1227.48 87.4744 1227.81 87.549 1228.08 87.6982C1228.36 87.8449 1228.58 88.071 1228.73 88.3764C1228.89 88.6795 1228.97 89.0653 1228.97 89.5341V93H1228.13V89.5909C1228.13 89.1577 1228.02 88.8227 1227.79 88.5859C1227.57 88.3468 1227.26 88.2273 1226.87 88.2273C1226.59 88.2273 1226.35 88.2853 1226.13 88.4013C1225.91 88.5173 1225.74 88.6866 1225.62 88.9091C1225.49 89.1316 1225.43 89.4015 1225.43 89.7188ZM1232.8 85.6278C1233.1 85.6302 1233.4 85.687 1233.7 85.7983C1234 85.9096 1234.27 86.0942 1234.52 86.3523C1234.76 86.608 1234.96 86.9571 1235.11 87.3999C1235.26 87.8426 1235.33 88.3977 1235.33 89.0653C1235.33 89.7116 1235.27 90.2857 1235.15 90.7876C1235.03 91.2872 1234.85 91.7086 1234.62 92.0518C1234.39 92.3951 1234.12 92.6555 1233.79 92.8331C1233.47 93.0107 1233.1 93.0994 1232.69 93.0994C1232.28 93.0994 1231.92 93.0189 1231.6 92.858C1231.28 92.6946 1231.02 92.4685 1230.82 92.1797C1230.62 91.8885 1230.49 91.5511 1230.43 91.1676H1231.3C1231.38 91.5014 1231.53 91.7772 1231.76 91.995C1232 92.2105 1232.31 92.3182 1232.69 92.3182C1233.25 92.3182 1233.69 92.0732 1234.02 91.5831C1234.34 91.093 1234.51 90.4006 1234.51 89.5057H1234.45C1234.32 89.7045 1234.16 89.8762 1233.98 90.0206C1233.8 90.165 1233.59 90.2763 1233.37 90.3544C1233.15 90.4325 1232.91 90.4716 1232.66 90.4716C1232.24 90.4716 1231.86 90.3686 1231.51 90.1626C1231.17 89.9543 1230.89 89.669 1230.68 89.3068C1230.48 88.9422 1230.37 88.5256 1230.37 88.0568C1230.37 87.6117 1230.47 87.2045 1230.67 86.8352C1230.87 86.4635 1231.16 86.1676 1231.52 85.9474C1231.88 85.7273 1232.31 85.6207 1232.8 85.6278ZM1232.8 86.4091C1232.51 86.4091 1232.24 86.4837 1232 86.6328C1231.76 86.7796 1231.57 86.9785 1231.43 87.2294C1231.3 87.478 1231.23 87.7538 1231.23 88.0568C1231.23 88.3598 1231.29 88.6357 1231.43 88.8842C1231.56 89.1304 1231.74 89.3269 1231.98 89.4737C1232.21 89.6181 1232.48 89.6903 1232.78 89.6903C1233 89.6903 1233.21 89.6465 1233.4 89.5589C1233.6 89.469 1233.77 89.3471 1233.91 89.1932C1234.06 89.0369 1234.17 88.8606 1234.26 88.6641C1234.34 88.4652 1234.38 88.258 1234.38 88.0426C1234.38 87.7585 1234.31 87.4922 1234.17 87.2436C1234.04 86.995 1233.85 86.7938 1233.61 86.6399C1233.38 86.486 1233.11 86.4091 1232.8 86.4091ZM1240.93 94.9176C1240.21 94.9176 1239.57 94.8182 1239.01 94.6193C1238.46 94.4228 1237.99 94.1328 1237.61 93.7493C1237.23 93.3658 1236.94 92.8958 1236.75 92.3395C1236.56 91.7831 1236.46 91.1463 1236.46 90.429C1236.46 89.7353 1236.56 89.1151 1236.75 88.5682C1236.95 88.0213 1237.24 87.5573 1237.62 87.1761C1237.99 86.7926 1238.45 86.5002 1238.99 86.299C1239.54 86.0978 1240.15 85.9972 1240.83 85.9972C1241.5 85.9972 1242.08 86.1061 1242.58 86.3239C1243.08 86.5393 1243.5 86.8317 1243.84 87.201C1244.18 87.5679 1244.43 87.9811 1244.6 88.4403C1244.77 88.8996 1244.85 89.3731 1244.85 89.8608C1244.85 90.2041 1244.84 90.5521 1244.8 90.9048C1244.77 91.2576 1244.7 91.5819 1244.59 91.8778C1244.49 92.1714 1244.32 92.4081 1244.1 92.5881C1243.88 92.768 1243.58 92.858 1243.21 92.858C1243.04 92.858 1242.86 92.8319 1242.66 92.7798C1242.46 92.7277 1242.28 92.6413 1242.13 92.5206C1241.98 92.3999 1241.88 92.2377 1241.86 92.0341H1241.81C1241.76 92.1714 1241.67 92.3016 1241.55 92.4247C1241.43 92.5478 1241.28 92.6461 1241.09 92.7195C1240.91 92.7929 1240.68 92.8248 1240.41 92.8153C1240.1 92.8035 1239.83 92.7348 1239.59 92.6094C1239.36 92.4815 1239.16 92.3087 1239 92.0909C1238.85 91.8707 1238.73 91.6162 1238.65 91.3274C1238.57 91.0362 1238.53 90.7225 1238.53 90.3864C1238.53 90.0668 1238.58 89.7744 1238.67 89.5092C1238.77 89.2441 1238.9 89.0121 1239.07 88.8132C1239.24 88.6143 1239.44 88.4557 1239.67 88.3374C1239.89 88.2166 1240.14 88.142 1240.41 88.1136C1240.64 88.09 1240.86 88.1006 1241.05 88.1456C1241.25 88.1882 1241.41 88.2533 1241.53 88.3409C1241.66 88.4261 1241.74 88.5208 1241.77 88.625H1241.81V88.2273H1242.57V91.4375C1242.57 91.6364 1242.62 91.8116 1242.73 91.9631C1242.84 92.1146 1243.01 92.1903 1243.22 92.1903C1243.46 92.1903 1243.65 92.1075 1243.77 91.9418C1243.9 91.776 1243.99 91.5204 1244.04 91.1747C1244.09 90.8291 1244.11 90.3864 1244.11 89.8466C1244.11 89.5294 1244.07 89.2169 1243.98 88.9091C1243.9 88.599 1243.77 88.3089 1243.59 88.0391C1243.42 87.7692 1243.2 87.5312 1242.94 87.3253C1242.67 87.1193 1242.36 86.9583 1242 86.8423C1241.65 86.724 1241.24 86.6648 1240.79 86.6648C1240.23 86.6648 1239.74 86.7512 1239.3 86.924C1238.86 87.0945 1238.49 87.3442 1238.18 87.6733C1237.87 88 1237.64 88.3977 1237.48 88.8665C1237.32 89.3329 1237.24 89.8632 1237.24 90.4574C1237.24 91.0611 1237.32 91.5973 1237.48 92.0661C1237.64 92.5348 1237.88 92.9302 1238.19 93.2521C1238.5 93.5741 1238.89 93.8179 1239.36 93.9837C1239.82 94.1518 1240.36 94.2358 1240.96 94.2358C1241.22 94.2358 1241.48 94.2109 1241.73 94.1612C1241.99 94.1115 1242.21 94.0571 1242.4 93.9979C1242.6 93.9387 1242.74 93.8949 1242.82 93.8665L1243.02 94.5199C1242.87 94.5814 1242.68 94.643 1242.45 94.7045C1242.21 94.7661 1241.96 94.817 1241.69 94.8572C1241.43 94.8975 1241.17 94.9176 1240.93 94.9176ZM1240.52 92.0909C1240.84 92.0909 1241.1 92.027 1241.29 91.8991C1241.49 91.7713 1241.63 91.5784 1241.72 91.3203C1241.81 91.0623 1241.86 90.7367 1241.86 90.3438C1241.86 89.946 1241.81 89.6359 1241.71 89.4134C1241.61 89.1908 1241.46 89.0346 1241.27 88.9446C1241.07 88.8546 1240.83 88.8097 1240.55 88.8097C1240.28 88.8097 1240.05 88.8807 1239.86 89.0227C1239.67 89.1624 1239.52 89.3494 1239.42 89.5838C1239.32 89.8158 1239.27 90.0691 1239.27 90.3438C1239.27 90.6468 1239.31 90.9321 1239.39 91.1996C1239.47 91.4647 1239.6 91.6802 1239.79 91.8459C1239.97 92.0092 1240.21 92.0909 1240.52 92.0909ZM1247.71 93.1278C1247.37 93.1278 1247.05 93.0627 1246.77 92.9325C1246.49 92.8 1246.27 92.6094 1246.1 92.3608C1245.94 92.1098 1245.85 91.8068 1245.85 91.4517C1245.85 91.1392 1245.91 90.8859 1246.04 90.6918C1246.16 90.4953 1246.32 90.3414 1246.53 90.2301C1246.74 90.1188 1246.96 90.036 1247.21 89.9815C1247.46 89.9247 1247.72 89.8797 1247.97 89.8466C1248.3 89.804 1248.57 89.772 1248.77 89.7507C1248.98 89.727 1249.13 89.688 1249.23 89.6335C1249.33 89.5791 1249.37 89.4844 1249.37 89.3494V89.321C1249.37 88.9706 1249.28 88.6984 1249.09 88.5043C1248.9 88.3101 1248.61 88.2131 1248.22 88.2131C1247.82 88.2131 1247.51 88.3007 1247.28 88.4759C1247.06 88.651 1246.9 88.8381 1246.8 89.0369L1246.01 88.7528C1246.15 88.4214 1246.34 88.1634 1246.58 87.9787C1246.82 87.7917 1247.08 87.6615 1247.36 87.5881C1247.64 87.5123 1247.92 87.4744 1248.2 87.4744C1248.37 87.4744 1248.57 87.4957 1248.8 87.5384C1249.03 87.5786 1249.25 87.6626 1249.46 87.7905C1249.68 87.9183 1249.86 88.1113 1250 88.3693C1250.14 88.6274 1250.21 88.973 1250.21 89.4062V93H1249.37V92.2614H1249.33C1249.28 92.3797 1249.18 92.5064 1249.05 92.6413C1248.92 92.7763 1248.74 92.8911 1248.52 92.9858C1248.3 93.0805 1248.03 93.1278 1247.71 93.1278ZM1247.84 92.375C1248.17 92.375 1248.45 92.3099 1248.68 92.1797C1248.91 92.0495 1249.08 91.8814 1249.2 91.6754C1249.32 91.4695 1249.37 91.2528 1249.37 91.0256V90.2585C1249.34 90.3011 1249.26 90.3402 1249.14 90.3757C1249.02 90.4089 1248.88 90.4384 1248.73 90.4645C1248.57 90.4882 1248.42 90.5095 1248.28 90.5284C1248.13 90.545 1248.02 90.5592 1247.93 90.571C1247.71 90.5994 1247.5 90.6456 1247.32 90.7095C1247.13 90.7711 1246.98 90.8646 1246.86 90.9901C1246.75 91.1132 1246.69 91.2812 1246.69 91.4943C1246.69 91.7855 1246.8 92.0057 1247.01 92.1548C1247.23 92.3016 1247.51 92.375 1247.84 92.375ZM1254.03 93.1136C1253.5 93.1136 1253.05 92.9976 1252.67 92.7656C1252.29 92.5312 1252 92.2045 1251.79 91.7855C1251.59 91.3641 1251.49 90.8741 1251.49 90.3153C1251.49 89.7566 1251.59 89.2642 1251.79 88.8381C1252 88.4096 1252.28 88.0758 1252.65 87.8366C1253.02 87.5952 1253.45 87.4744 1253.94 87.4744C1254.23 87.4744 1254.51 87.5218 1254.79 87.6165C1255.06 87.7112 1255.32 87.8651 1255.54 88.0781C1255.77 88.2888 1255.95 88.5682 1256.09 88.9162C1256.22 89.2642 1256.29 89.6927 1256.29 90.2017V90.5568H1252.08V89.8324H1255.44C1255.44 89.5246 1255.37 89.25 1255.25 89.0085C1255.13 88.767 1254.96 88.5765 1254.73 88.4368C1254.51 88.2971 1254.25 88.2273 1253.94 88.2273C1253.61 88.2273 1253.32 88.3101 1253.08 88.4759C1252.84 88.6392 1252.65 88.8523 1252.52 89.1151C1252.39 89.3778 1252.33 89.6596 1252.33 89.9602V90.4432C1252.33 90.8551 1252.4 91.2043 1252.54 91.4908C1252.68 91.7749 1252.88 91.9915 1253.14 92.1406C1253.39 92.2874 1253.69 92.3608 1254.03 92.3608C1254.25 92.3608 1254.45 92.33 1254.63 92.2685C1254.81 92.2045 1254.96 92.1098 1255.09 91.9844C1255.22 91.8565 1255.32 91.6979 1255.39 91.5085L1256.2 91.7358C1256.12 92.0104 1255.97 92.2519 1255.77 92.4602C1255.57 92.6662 1255.32 92.8272 1255.03 92.9432C1254.73 93.0568 1254.4 93.1136 1254.03 93.1136ZM1259.78 93.1136C1259.27 93.1136 1258.83 92.9929 1258.46 92.7514C1258.09 92.5099 1257.8 92.1773 1257.61 91.7536C1257.41 91.3298 1257.31 90.8456 1257.31 90.3011C1257.31 89.7472 1257.41 89.2583 1257.61 88.8345C1257.82 88.4084 1258.11 88.0758 1258.47 87.8366C1258.84 87.5952 1259.27 87.4744 1259.76 87.4744C1260.15 87.4744 1260.49 87.5455 1260.8 87.6875C1261.11 87.8295 1261.36 88.0284 1261.56 88.2841C1261.75 88.5398 1261.88 88.8381 1261.92 89.179H1261.09C1261.02 88.9304 1260.88 88.7102 1260.66 88.5185C1260.44 88.3243 1260.15 88.2273 1259.78 88.2273C1259.45 88.2273 1259.17 88.3125 1258.92 88.483C1258.68 88.651 1258.49 88.889 1258.35 89.1967C1258.21 89.5021 1258.15 89.8608 1258.15 90.2727C1258.15 90.6941 1258.21 91.0611 1258.34 91.3736C1258.48 91.6861 1258.67 91.9287 1258.91 92.1016C1259.16 92.2744 1259.45 92.3608 1259.78 92.3608C1260 92.3608 1260.19 92.3229 1260.37 92.2472C1260.55 92.1714 1260.7 92.0625 1260.82 91.9205C1260.95 91.7784 1261.03 91.608 1261.09 91.4091H1261.92C1261.88 91.7311 1261.76 92.0211 1261.57 92.2791C1261.39 92.5348 1261.14 92.7384 1260.84 92.8899C1260.53 93.0391 1260.18 93.1136 1259.78 93.1136ZM1263.76 93.0568C1263.58 93.0568 1263.43 92.9941 1263.31 92.8686C1263.18 92.7431 1263.12 92.5928 1263.12 92.4176C1263.12 92.2424 1263.18 92.0921 1263.31 91.9666C1263.43 91.8411 1263.58 91.7784 1263.76 91.7784C1263.93 91.7784 1264.09 91.8411 1264.21 91.9666C1264.34 92.0921 1264.4 92.2424 1264.4 92.4176C1264.4 92.5336 1264.37 92.6402 1264.31 92.7372C1264.25 92.8343 1264.18 92.9124 1264.08 92.9716C1263.98 93.0284 1263.88 93.0568 1263.76 93.0568ZM1268.19 93.1136C1267.66 93.1136 1267.21 92.9976 1266.83 92.7656C1266.45 92.5312 1266.16 92.2045 1265.95 91.7855C1265.75 91.3641 1265.65 90.8741 1265.65 90.3153C1265.65 89.7566 1265.75 89.2642 1265.95 88.8381C1266.16 88.4096 1266.44 88.0758 1266.81 87.8366C1267.18 87.5952 1267.61 87.4744 1268.1 87.4744C1268.39 87.4744 1268.67 87.5218 1268.95 87.6165C1269.22 87.7112 1269.48 87.8651 1269.7 88.0781C1269.93 88.2888 1270.11 88.5682 1270.25 88.9162C1270.38 89.2642 1270.45 89.6927 1270.45 90.2017V90.5568H1266.24V89.8324H1269.6C1269.6 89.5246 1269.53 89.25 1269.41 89.0085C1269.29 88.767 1269.12 88.5765 1268.89 88.4368C1268.67 88.2971 1268.41 88.2273 1268.1 88.2273C1267.77 88.2273 1267.48 88.3101 1267.24 88.4759C1267 88.6392 1266.81 88.8523 1266.68 89.1151C1266.55 89.3778 1266.49 89.6596 1266.49 89.9602V90.4432C1266.49 90.8551 1266.56 91.2043 1266.7 91.4908C1266.84 91.7749 1267.04 91.9915 1267.3 92.1406C1267.55 92.2874 1267.85 92.3608 1268.19 92.3608C1268.41 92.3608 1268.61 92.33 1268.79 92.2685C1268.97 92.2045 1269.12 92.1098 1269.25 91.9844C1269.38 91.8565 1269.48 91.6979 1269.55 91.5085L1270.36 91.7358C1270.28 92.0104 1270.13 92.2519 1269.93 92.4602C1269.73 92.6662 1269.48 92.8272 1269.19 92.9432C1268.89 93.0568 1268.56 93.1136 1268.19 93.1136ZM1273.78 93.1136C1273.33 93.1136 1272.93 92.9988 1272.58 92.7692C1272.23 92.5372 1271.96 92.2105 1271.76 91.7891C1271.57 91.3653 1271.47 90.8646 1271.47 90.2869C1271.47 89.714 1271.57 89.2169 1271.76 88.7955C1271.96 88.3741 1272.23 88.0485 1272.58 87.8189C1272.93 87.5893 1273.34 87.4744 1273.8 87.4744C1274.15 87.4744 1274.43 87.5336 1274.64 87.652C1274.85 87.768 1275.01 87.9006 1275.11 88.0497C1275.23 88.1965 1275.31 88.3172 1275.37 88.4119H1275.44V85.7273H1276.28V93H1275.47V92.1619H1275.37C1275.31 92.2614 1275.22 92.3868 1275.11 92.5384C1275 92.6875 1274.84 92.8213 1274.62 92.9396C1274.41 93.0556 1274.13 93.1136 1273.78 93.1136ZM1273.9 92.3608C1274.23 92.3608 1274.52 92.2732 1274.75 92.098C1274.98 91.9205 1275.16 91.6754 1275.28 91.3629C1275.4 91.0481 1275.46 90.6847 1275.46 90.2727C1275.46 89.8655 1275.4 89.5092 1275.28 89.2038C1275.16 88.8961 1274.99 88.657 1274.76 88.4865C1274.52 88.3137 1274.24 88.2273 1273.9 88.2273C1273.54 88.2273 1273.25 88.3184 1273.01 88.5007C1272.77 88.6806 1272.6 88.9257 1272.48 89.2358C1272.36 89.5436 1272.31 89.8892 1272.31 90.2727C1272.31 90.661 1272.36 91.0137 1272.48 91.331C1272.6 91.6458 1272.78 91.8968 1273.02 92.0838C1273.25 92.2685 1273.55 92.3608 1273.9 92.3608ZM1281.37 90.7699V87.5455H1282.21V93H1281.37V92.0767H1281.31C1281.19 92.3537 1280.99 92.5893 1280.72 92.7834C1280.45 92.9751 1280.11 93.071 1279.7 93.071C1279.35 93.071 1279.05 92.9964 1278.79 92.8473C1278.52 92.6958 1278.31 92.4685 1278.16 92.1655C1278.01 91.8601 1277.93 91.4754 1277.93 91.0114V87.5455H1278.77V90.9545C1278.77 91.3523 1278.88 91.6695 1279.11 91.9062C1279.33 92.143 1279.62 92.2614 1279.97 92.2614C1280.17 92.2614 1280.39 92.2081 1280.6 92.1016C1280.82 91.995 1281 91.8317 1281.15 91.6115C1281.3 91.3913 1281.37 91.1108 1281.37 90.7699ZM1284.36 93.0568C1284.18 93.0568 1284.03 92.9941 1283.9 92.8686C1283.78 92.7431 1283.72 92.5928 1283.72 92.4176C1283.72 92.2424 1283.78 92.0921 1283.9 91.9666C1284.03 91.8411 1284.18 91.7784 1284.36 91.7784C1284.53 91.7784 1284.68 91.8411 1284.81 91.9666C1284.93 92.0921 1284.99 92.2424 1284.99 92.4176C1284.99 92.5336 1284.96 92.6402 1284.91 92.7372C1284.85 92.8343 1284.77 92.9124 1284.67 92.9716C1284.58 93.0284 1284.47 93.0568 1284.36 93.0568ZM1286.5 93V87.5455H1287.34V93H1286.5ZM1286.92 86.6364C1286.76 86.6364 1286.62 86.5807 1286.5 86.4695C1286.39 86.3582 1286.33 86.2244 1286.33 86.0682C1286.33 85.9119 1286.39 85.7782 1286.5 85.6669C1286.62 85.5556 1286.76 85.5 1286.92 85.5C1287.09 85.5 1287.23 85.5556 1287.34 85.6669C1287.46 85.7782 1287.52 85.9119 1287.52 86.0682C1287.52 86.2244 1287.46 86.3582 1287.34 86.4695C1287.23 86.5807 1287.09 86.6364 1286.92 86.6364ZM1289.71 89.7188V93H1288.87V87.5455H1289.68V88.3977H1289.75C1289.88 88.1207 1290.07 87.8982 1290.33 87.7301C1290.6 87.5597 1290.93 87.4744 1291.34 87.4744C1291.71 87.4744 1292.04 87.5502 1292.31 87.7017C1292.59 87.8509 1292.81 88.0781 1292.96 88.3835C1293.11 88.6866 1293.19 89.0701 1293.19 89.5341V93H1292.35V89.5909C1292.35 89.1624 1292.24 88.8286 1292.02 88.5895C1291.8 88.348 1291.49 88.2273 1291.1 88.2273C1290.83 88.2273 1290.6 88.2853 1290.38 88.4013C1290.18 88.5173 1290.01 88.6866 1289.89 88.9091C1289.77 89.1316 1289.71 89.4015 1289.71 89.7188Z" fill="#F9F9F9"/>
<defs>
<clipPath id="clip0_1127_1739">
<rect width="20" height="20" fill="white" transform="translate(685 79)"/>
</clipPath>
<clipPath id="clip1_1127_1739">
<rect width="20" height="20" fill="white" transform="translate(725 79)"/>
</clipPath>
<clipPath id="clip2_1127_1739">
<rect width="20" height="20" fill="white" transform="translate(765 79)"/>
</clipPath>
</defs>
</svg>
