<svg width="296" height="145" viewBox="0 0 296 145" fill="none" xmlns="http://www.w3.org/2000/svg">
<g clip-path="url(#clip0_844_6219)">
<rect y="0.106445" width="295.5" height="144.606" rx="16.766" fill="#F5E3DB"/>
<rect x="75.9707" y="-72.1968" width="143.559" height="143.559" rx="71.7793" fill="#FFEBE3"/>
<path d="M148 61C156.947 61 164.2 53.747 164.2 44.8C164.2 35.853 156.947 28.6 148 28.6C139.053 28.6 131.8 35.853 131.8 44.8C131.8 53.747 139.053 61 148 61Z" stroke="#FC5F00" stroke-width="2.7" stroke-linecap="round"/>
<path d="M135.4 55.6L131.8 59.2M160.6 55.6L164.2 59.2" stroke="#FC5F00" stroke-width="2.7" stroke-linecap="round" stroke-linejoin="round"/>
<path d="M160.6 27.8255L161.672 27.2896C163.193 26.5288 163.765 26.6159 164.975 27.8255C166.184 29.0351 166.271 29.6067 165.51 31.1282L164.975 32.2001M135.4 27.8255L134.328 27.2896C132.807 26.5288 132.235 26.6159 131.025 27.8255C129.816 29.0351 129.729 29.6067 130.49 31.1282L131.025 32.2001" stroke="#FC5F00" stroke-width="2.7" stroke-linecap="round"/>
<path d="M148 38.5V45.7L151.6 49.3" stroke="#6E00BE" stroke-width="2.7" stroke-linecap="round" stroke-linejoin="round"/>
<path d="M148 27.7V25" stroke="#6E00BE" stroke-width="2.7" stroke-linecap="round" stroke-linejoin="round"/>
<path d="M144.4 25H151.6" stroke="#6E00BE" stroke-width="2.7" stroke-linecap="round" stroke-linejoin="round"/>
<rect x="-57.7373" y="91.7953" width="89.0692" height="89.0692" rx="44.5346" transform="rotate(-45 -57.7373 91.7953)" fill="#FFEBE3"/>
<rect x="245.726" y="-16.6595" width="89.0691" height="89.0691" rx="44.5346" fill="#FFEBE3"/>
<path d="M100.152 97H96.1284L89.6106 85.683H89.5268C89.5408 86.0323 89.5548 86.3885 89.5687 86.7518C89.5827 87.1011 89.5967 87.4574 89.6106 87.8206C89.6386 88.1699 89.6595 88.5262 89.6735 88.8895C89.6875 89.2388 89.7015 89.595 89.7154 89.9583V97H86.8862V82.0364H90.889L97.3859 93.2486H97.4487C97.4348 92.8993 97.4208 92.557 97.4068 92.2217C97.3928 91.8724 97.3789 91.5301 97.3649 91.1948C97.3649 90.8455 97.3579 90.5032 97.3439 90.1679C97.33 89.8186 97.316 89.4693 97.302 89.12V82.0364H100.152V97ZM114.078 91.2577C114.078 92.2077 113.945 93.053 113.68 93.7935C113.428 94.534 113.058 95.1627 112.569 95.6797C112.094 96.1827 111.514 96.5669 110.83 96.8323C110.145 97.0838 109.37 97.2096 108.503 97.2096C107.707 97.2096 106.966 97.0838 106.282 96.8323C105.611 96.5669 105.031 96.1827 104.542 95.6797C104.053 95.1627 103.669 94.534 103.39 93.7935C103.124 93.053 102.991 92.2077 102.991 91.2577C102.991 89.9862 103.215 88.9174 103.662 88.0512C104.109 87.171 104.752 86.5003 105.59 86.0393C106.428 85.5782 107.42 85.3477 108.566 85.3477C109.642 85.3477 110.592 85.5782 111.416 86.0393C112.241 86.5003 112.89 87.171 113.365 88.0512C113.84 88.9174 114.078 89.9862 114.078 91.2577ZM106.177 91.2577C106.177 92.0121 106.254 92.6478 106.408 93.1648C106.575 93.6678 106.834 94.052 107.183 94.3174C107.532 94.5689 107.986 94.6947 108.545 94.6947C109.104 94.6947 109.551 94.5689 109.886 94.3174C110.236 94.052 110.487 93.6678 110.641 93.1648C110.809 92.6478 110.892 92.0121 110.892 91.2577C110.892 90.5032 110.809 89.8745 110.641 89.3715C110.487 88.8685 110.236 88.4913 109.886 88.2398C109.537 87.9883 109.083 87.8626 108.524 87.8626C107.7 87.8626 107.099 88.149 106.722 88.7218C106.359 89.2807 106.177 90.126 106.177 91.2577ZM121.479 94.7156C121.828 94.7156 122.164 94.6807 122.485 94.6109C122.806 94.541 123.128 94.4572 123.449 94.3594V96.6856C123.114 96.8254 122.694 96.9441 122.191 97.0419C121.702 97.1537 121.165 97.2096 120.578 97.2096C119.893 97.2096 119.278 97.0978 118.733 96.8743C118.203 96.6507 117.776 96.2665 117.455 95.7216C117.148 95.1627 116.994 94.3943 116.994 93.4163V87.9045H115.506V86.5841L117.225 85.5363L118.126 83.1262H120.117V85.5572H123.323V87.9045H120.117V93.4163C120.117 93.8494 120.242 94.1777 120.494 94.4013C120.745 94.6109 121.074 94.7156 121.479 94.7156ZM128.868 85.5572V97H125.746V85.5572H128.868ZM127.318 81.0723C127.779 81.0723 128.177 81.1841 128.512 81.4077C128.847 81.6172 129.015 82.0154 129.015 82.6022C129.015 83.1751 128.847 83.5733 128.512 83.7968C128.177 84.0204 127.779 84.1321 127.318 84.1321C126.842 84.1321 126.437 84.0204 126.102 83.7968C125.781 83.5733 125.62 83.1751 125.62 82.6022C125.62 82.0154 125.781 81.6172 126.102 81.4077C126.437 81.1841 126.842 81.0723 127.318 81.0723ZM138.46 87.9045H135.757V97H132.634V87.9045H130.916V86.3955L132.634 85.5572V84.7189C132.634 83.7409 132.795 82.9865 133.116 82.4555C133.451 81.9106 133.92 81.5264 134.52 81.3029C135.135 81.0793 135.855 80.9676 136.679 80.9676C137.294 80.9676 137.846 81.0165 138.335 81.1143C138.838 81.2121 139.243 81.3238 139.55 81.4496L138.754 83.7339C138.516 83.6641 138.258 83.6012 137.978 83.5453C137.699 83.4755 137.378 83.4405 137.014 83.4405C136.581 83.4405 136.26 83.5733 136.05 83.8387C135.855 84.1042 135.757 84.4395 135.757 84.8447V85.5572H138.46V87.9045ZM143.364 85.5572V97H140.242V85.5572H143.364ZM141.814 81.0723C142.275 81.0723 142.673 81.1841 143.008 81.4077C143.343 81.6172 143.511 82.0154 143.511 82.6022C143.511 83.1751 143.343 83.5733 143.008 83.7968C142.673 84.0204 142.275 84.1321 141.814 84.1321C141.338 84.1321 140.933 84.0204 140.598 83.7968C140.277 83.5733 140.116 83.1751 140.116 82.6022C140.116 82.0154 140.277 81.6172 140.598 81.4077C140.933 81.1841 141.338 81.0723 141.814 81.0723ZM151.294 97.2096C150.163 97.2096 149.199 97.007 148.402 96.6018C147.606 96.1827 146.998 95.54 146.579 94.6737C146.16 93.8075 145.95 92.6967 145.95 91.3415C145.95 89.9443 146.188 88.8056 146.663 87.9254C147.138 87.0452 147.794 86.3955 148.633 85.9764C149.485 85.5572 150.463 85.3477 151.567 85.3477C152.349 85.3477 153.027 85.4245 153.6 85.5782C154.186 85.7319 154.696 85.9135 155.13 86.1231L154.207 88.5332C153.718 88.3376 153.257 88.1769 152.824 88.0512C152.405 87.9254 151.986 87.8626 151.567 87.8626C151.022 87.8626 150.568 87.9953 150.205 88.2607C149.841 88.5122 149.569 88.8965 149.387 89.4134C149.22 89.9164 149.136 90.5521 149.136 91.3205C149.136 92.075 149.226 92.7037 149.408 93.2067C149.604 93.6957 149.883 94.066 150.246 94.3174C150.61 94.555 151.05 94.6737 151.567 94.6737C152.223 94.6737 152.803 94.5899 153.306 94.4222C153.809 94.2406 154.298 93.9961 154.773 93.6887V96.3503C154.298 96.6577 153.795 96.8743 153.264 97C152.747 97.1397 152.091 97.2096 151.294 97.2096ZM162.101 85.3267C163.638 85.3267 164.812 85.662 165.622 86.3327C166.447 86.9893 166.859 88.0023 166.859 89.3715V97H164.679L164.071 95.4491H163.988C163.666 95.8543 163.331 96.1896 162.982 96.4551C162.646 96.7206 162.255 96.9092 161.808 97.021C161.375 97.1467 160.837 97.2096 160.194 97.2096C159.524 97.2096 158.916 97.0838 158.371 96.8323C157.84 96.5669 157.421 96.1687 157.114 95.6378C156.806 95.0929 156.653 94.4083 156.653 93.5839C156.653 92.3684 157.079 91.4742 157.931 90.9014C158.783 90.3146 160.062 89.9932 161.766 89.9373L163.757 89.8745V89.3715C163.757 88.7707 163.596 88.3306 163.275 88.0512C162.968 87.7717 162.535 87.632 161.976 87.632C161.417 87.632 160.872 87.7159 160.341 87.8835C159.81 88.0372 159.279 88.2328 158.748 88.4703L157.721 86.3536C158.336 86.0323 159.014 85.7808 159.754 85.5991C160.509 85.4175 161.291 85.3267 162.101 85.3267ZM162.542 91.7397C161.536 91.7676 160.837 91.9493 160.446 92.2846C160.055 92.6199 159.859 93.06 159.859 93.6049C159.859 94.0799 159.999 94.4222 160.278 94.6318C160.558 94.8274 160.921 94.9252 161.368 94.9252C162.039 94.9252 162.604 94.7296 163.066 94.3384C163.527 93.9332 163.757 93.3674 163.757 92.6409V91.6978L162.542 91.7397ZM174.875 94.7156C175.225 94.7156 175.56 94.6807 175.881 94.6109C176.203 94.541 176.524 94.4572 176.845 94.3594V96.6856C176.51 96.8254 176.091 96.9441 175.588 97.0419C175.099 97.1537 174.561 97.2096 173.974 97.2096C173.29 97.2096 172.675 97.0978 172.13 96.8743C171.599 96.6507 171.173 96.2665 170.852 95.7216C170.544 95.1627 170.39 94.3943 170.39 93.4163V87.9045H168.902V86.5841L170.621 85.5363L171.522 83.1262H173.513V85.5572H176.72V87.9045H173.513V93.4163C173.513 93.8494 173.639 94.1777 173.89 94.4013C174.142 94.6109 174.47 94.7156 174.875 94.7156ZM182.265 85.5572V97H179.142V85.5572H182.265ZM180.714 81.0723C181.175 81.0723 181.573 81.1841 181.909 81.4077C182.244 81.6172 182.412 82.0154 182.412 82.6022C182.412 83.1751 182.244 83.5733 181.909 83.7968C181.573 84.0204 181.175 84.1321 180.714 84.1321C180.239 84.1321 179.834 84.0204 179.498 83.7968C179.177 83.5733 179.016 83.1751 179.016 82.6022C179.016 82.0154 179.177 81.6172 179.498 81.4077C179.834 81.1841 180.239 81.0723 180.714 81.0723ZM195.923 91.2577C195.923 92.2077 195.79 93.053 195.524 93.7935C195.273 94.534 194.903 95.1627 194.414 95.6797C193.939 96.1827 193.359 96.5669 192.674 96.8323C191.99 97.0838 191.214 97.2096 190.348 97.2096C189.551 97.2096 188.811 97.0838 188.126 96.8323C187.456 96.5669 186.876 96.1827 186.387 95.6797C185.898 95.1627 185.514 94.534 185.234 93.7935C184.969 93.053 184.836 92.2077 184.836 91.2577C184.836 89.9862 185.06 88.9174 185.507 88.0512C185.954 87.171 186.596 86.5003 187.435 86.0393C188.273 85.5782 189.265 85.3477 190.411 85.3477C191.487 85.3477 192.437 85.5782 193.261 86.0393C194.085 86.5003 194.735 87.171 195.21 88.0512C195.685 88.9174 195.923 89.9862 195.923 91.2577ZM188.022 91.2577C188.022 92.0121 188.098 92.6478 188.252 93.1648C188.42 93.6678 188.678 94.052 189.028 94.3174C189.377 94.5689 189.831 94.6947 190.39 94.6947C190.949 94.6947 191.396 94.5689 191.731 94.3174C192.08 94.052 192.332 93.6678 192.486 93.1648C192.653 92.6478 192.737 92.0121 192.737 91.2577C192.737 90.5032 192.653 89.8745 192.486 89.3715C192.332 88.8685 192.08 88.4913 191.731 88.2398C191.382 87.9883 190.928 87.8626 190.369 87.8626C189.544 87.8626 188.944 88.149 188.566 88.7218C188.203 89.2807 188.022 90.126 188.022 91.2577ZM205 85.3477C206.23 85.3477 207.215 85.683 207.955 86.3536C208.696 87.0103 209.066 88.0721 209.066 89.5391V97H205.943V90.3146C205.943 89.4902 205.796 88.8755 205.503 88.4703C205.21 88.0512 204.742 87.8416 204.099 87.8416C203.149 87.8416 202.499 88.1699 202.15 88.8266C201.801 89.4693 201.626 90.3984 201.626 91.6139V97H198.503V85.5572H200.892L201.312 87.0243H201.479C201.731 86.633 202.038 86.3187 202.401 86.0812C202.765 85.8297 203.17 85.648 203.617 85.5363C204.064 85.4105 204.525 85.3477 205 85.3477Z" fill="#8D3C1A"/>
<path d="M119.766 117.259H122.721V121.66C122.268 121.82 121.807 121.937 121.338 122.013C120.876 122.088 120.348 122.126 119.753 122.126C118.881 122.126 118.144 121.941 117.54 121.572C116.945 121.195 116.492 120.663 116.182 119.976C115.872 119.28 115.717 118.458 115.717 117.511C115.717 116.572 115.889 115.759 116.232 115.071C116.576 114.384 117.075 113.852 117.729 113.475C118.383 113.089 119.171 112.896 120.093 112.896C120.562 112.896 121.006 112.942 121.426 113.034C121.853 113.127 122.247 113.257 122.608 113.424L122.193 114.405C121.899 114.263 121.564 114.141 121.187 114.04C120.818 113.94 120.436 113.889 120.042 113.889C119.38 113.889 118.814 114.036 118.345 114.33C117.875 114.623 117.515 115.042 117.263 115.587C117.012 116.124 116.886 116.765 116.886 117.511C116.886 118.223 116.991 118.856 117.201 119.41C117.41 119.955 117.741 120.382 118.194 120.692C118.655 120.994 119.254 121.145 119.992 121.145C120.235 121.145 120.449 121.137 120.633 121.12C120.826 121.095 121.002 121.065 121.161 121.032C121.321 120.998 121.467 120.965 121.602 120.931V118.265H119.766V117.259ZM127.054 115.134C127.599 115.134 128.068 115.26 128.462 115.512C128.856 115.763 129.158 116.119 129.368 116.58C129.585 117.033 129.694 117.565 129.694 118.177V118.844H125.369C125.386 119.607 125.566 120.189 125.91 120.592C126.253 120.986 126.735 121.183 127.356 121.183C127.758 121.183 128.114 121.145 128.424 121.069C128.743 120.986 129.07 120.868 129.405 120.717V121.686C129.078 121.837 128.756 121.946 128.437 122.013C128.127 122.088 127.75 122.126 127.305 122.126C126.702 122.126 126.169 121.996 125.708 121.736C125.247 121.476 124.887 121.09 124.627 120.579C124.367 120.059 124.237 119.426 124.237 118.68C124.237 117.943 124.354 117.31 124.589 116.782C124.824 116.253 125.151 115.847 125.57 115.562C125.998 115.277 126.492 115.134 127.054 115.134ZM127.054 116.04C126.568 116.04 126.182 116.212 125.897 116.555C125.612 116.891 125.444 117.36 125.394 117.964H128.563C128.563 117.578 128.508 117.243 128.399 116.958C128.29 116.673 128.123 116.45 127.896 116.291C127.678 116.124 127.398 116.04 127.054 116.04ZM133.457 121.22C133.616 121.22 133.78 121.208 133.947 121.183C134.115 121.149 134.253 121.116 134.362 121.082V121.925C134.245 121.983 134.077 122.029 133.859 122.063C133.65 122.105 133.449 122.126 133.256 122.126C132.921 122.126 132.61 122.067 132.325 121.95C132.04 121.824 131.81 121.61 131.634 121.308C131.466 121.007 131.382 120.583 131.382 120.038V116.115H130.489V115.587L131.407 115.147L131.822 113.713H132.476V115.26H134.312V116.115H132.476V120.013C132.476 120.424 132.568 120.73 132.753 120.931C132.937 121.124 133.172 121.22 133.457 121.22ZM141.78 115.134C142.534 115.134 143.104 115.331 143.49 115.725C143.884 116.111 144.081 116.74 144.081 117.612V122H142.987V117.687C142.987 117.142 142.874 116.735 142.647 116.467C142.421 116.199 142.073 116.065 141.604 116.065C140.916 116.065 140.438 116.274 140.17 116.694C139.91 117.113 139.78 117.716 139.78 118.504V122H138.686V115.26H139.567L139.73 116.178H139.793C139.927 115.943 140.099 115.75 140.308 115.6C140.518 115.44 140.749 115.323 141 115.248C141.252 115.172 141.511 115.134 141.78 115.134ZM151.575 118.617C151.575 119.179 151.504 119.678 151.361 120.114C151.227 120.541 151.03 120.906 150.77 121.208C150.51 121.51 150.196 121.74 149.827 121.899C149.458 122.05 149.048 122.126 148.595 122.126C148.176 122.126 147.786 122.05 147.425 121.899C147.073 121.74 146.763 121.51 146.495 121.208C146.235 120.906 146.034 120.541 145.891 120.114C145.749 119.678 145.678 119.179 145.678 118.617C145.678 117.871 145.795 117.243 146.03 116.731C146.273 116.212 146.616 115.818 147.061 115.549C147.505 115.273 148.029 115.134 148.633 115.134C149.211 115.134 149.718 115.273 150.154 115.549C150.598 115.818 150.946 116.212 151.198 116.731C151.449 117.243 151.575 117.871 151.575 118.617ZM146.809 118.617C146.809 119.146 146.872 119.607 146.998 120.001C147.124 120.386 147.321 120.684 147.589 120.893C147.857 121.103 148.201 121.208 148.62 121.208C149.039 121.208 149.383 121.103 149.651 120.893C149.919 120.684 150.116 120.386 150.242 120.001C150.376 119.607 150.443 119.146 150.443 118.617C150.443 118.081 150.376 117.624 150.242 117.247C150.116 116.87 149.919 116.58 149.651 116.379C149.383 116.17 149.035 116.065 148.607 116.065C147.979 116.065 147.522 116.291 147.237 116.744C146.952 117.197 146.809 117.821 146.809 118.617ZM155.376 121.22C155.536 121.22 155.699 121.208 155.867 121.183C156.034 121.149 156.173 121.116 156.282 121.082V121.925C156.164 121.983 155.997 122.029 155.779 122.063C155.569 122.105 155.368 122.126 155.175 122.126C154.84 122.126 154.53 122.067 154.245 121.95C153.96 121.824 153.729 121.61 153.553 121.308C153.385 121.007 153.302 120.583 153.302 120.038V116.115H152.409V115.587L153.327 115.147L153.742 113.713H154.396V115.26H156.231V116.115H154.396V120.013C154.396 120.424 154.488 120.73 154.672 120.931C154.857 121.124 155.091 121.22 155.376 121.22ZM158.642 115.26V122H157.548V115.26H158.642ZM158.102 112.733C158.269 112.733 158.416 112.791 158.542 112.909C158.667 113.018 158.73 113.194 158.73 113.437C158.73 113.672 158.667 113.848 158.542 113.965C158.416 114.082 158.269 114.141 158.102 114.141C157.926 114.141 157.775 114.082 157.649 113.965C157.523 113.848 157.46 113.672 157.46 113.437C157.46 113.194 157.523 113.018 157.649 112.909C157.775 112.791 157.926 112.733 158.102 112.733ZM163.598 116.115H162.013V122H160.907V116.115H159.813V115.6L160.907 115.222V114.833C160.907 114.254 160.987 113.785 161.146 113.424C161.314 113.064 161.552 112.8 161.863 112.632C162.173 112.464 162.546 112.381 162.982 112.381C163.242 112.381 163.476 112.406 163.686 112.456C163.904 112.498 164.092 112.548 164.252 112.607L163.963 113.475C163.828 113.433 163.678 113.391 163.51 113.349C163.351 113.307 163.183 113.286 163.007 113.286C162.672 113.286 162.42 113.412 162.252 113.663C162.093 113.906 162.013 114.292 162.013 114.82V115.26H163.598V116.115ZM165.836 115.26V122H164.742V115.26H165.836ZM165.295 112.733C165.463 112.733 165.61 112.791 165.736 112.909C165.861 113.018 165.924 113.194 165.924 113.437C165.924 113.672 165.861 113.848 165.736 113.965C165.61 114.082 165.463 114.141 165.295 114.141C165.119 114.141 164.968 114.082 164.843 113.965C164.717 113.848 164.654 113.672 164.654 113.437C164.654 113.194 164.717 113.018 164.843 112.909C164.968 112.791 165.119 112.733 165.295 112.733ZM170.291 115.134C170.836 115.134 171.305 115.26 171.699 115.512C172.093 115.763 172.395 116.119 172.605 116.58C172.822 117.033 172.931 117.565 172.931 118.177V118.844H168.606C168.623 119.607 168.803 120.189 169.147 120.592C169.49 120.986 169.972 121.183 170.593 121.183C170.995 121.183 171.351 121.145 171.661 121.069C171.98 120.986 172.307 120.868 172.642 120.717V121.686C172.315 121.837 171.993 121.946 171.674 122.013C171.364 122.088 170.987 122.126 170.542 122.126C169.939 122.126 169.406 121.996 168.945 121.736C168.484 121.476 168.124 121.09 167.864 120.579C167.604 120.059 167.474 119.426 167.474 118.68C167.474 117.943 167.591 117.31 167.826 116.782C168.061 116.253 168.388 115.847 168.807 115.562C169.235 115.277 169.729 115.134 170.291 115.134ZM170.291 116.04C169.805 116.04 169.419 116.212 169.134 116.555C168.849 116.891 168.681 117.36 168.631 117.964H171.8C171.8 117.578 171.745 117.243 171.636 116.958C171.527 116.673 171.36 116.45 171.133 116.291C170.915 116.124 170.635 116.04 170.291 116.04ZM176.757 122.126C175.977 122.126 175.349 121.837 174.871 121.258C174.401 120.671 174.167 119.799 174.167 118.643C174.167 117.486 174.406 116.614 174.883 116.027C175.361 115.432 175.99 115.134 176.77 115.134C177.096 115.134 177.381 115.18 177.625 115.273C177.868 115.356 178.077 115.474 178.253 115.625C178.438 115.776 178.593 115.943 178.719 116.128H178.794C178.786 116.019 178.769 115.859 178.744 115.65C178.727 115.432 178.719 115.26 178.719 115.134V112.443H179.813V122H178.932L178.769 121.095H178.719C178.593 121.287 178.438 121.463 178.253 121.623C178.077 121.774 177.863 121.895 177.612 121.987C177.369 122.08 177.084 122.126 176.757 122.126ZM176.958 121.208C177.612 121.208 178.069 121.015 178.329 120.629C178.597 120.235 178.731 119.644 178.731 118.856V118.655C178.731 117.817 178.605 117.176 178.354 116.731C178.102 116.279 177.633 116.052 176.946 116.052C176.392 116.052 175.977 116.291 175.701 116.769C175.432 117.238 175.298 117.871 175.298 118.668C175.298 119.473 175.432 120.097 175.701 120.541C175.977 120.986 176.396 121.208 176.958 121.208Z" fill="black"/>
</g>
<defs>
<clipPath id="clip0_844_6219">
<rect y="0.106445" width="295.5" height="144.606" rx="16.766" fill="white"/>
</clipPath>
</defs>
</svg>
