<svg width="296" height="145" viewBox="0 0 296 145" fill="none" xmlns="http://www.w3.org/2000/svg">
<g clip-path="url(#clip0_844_6230)">
<rect x="0.265625" y="0.106445" width="295.5" height="144.606" rx="16.766" fill="#CCEFFF" fill-opacity="0.45"/>
<rect x="76.2363" y="-72.1968" width="143.559" height="143.559" rx="71.7793" fill="#00AEFF" fill-opacity="0.1"/>
<rect x="-57.4717" y="91.7953" width="89.0692" height="89.0692" rx="44.5346" transform="rotate(-45 -57.4717 91.7953)" fill="#00AEFF" fill-opacity="0.05"/>
<rect x="245.992" y="-16.6595" width="89.0691" height="89.0691" rx="44.5346" fill="#00AEFF" fill-opacity="0.05"/>
<path d="M134.761 95.4994C134.761 96.3796 134.544 97.148 134.111 97.8047C133.678 98.4613 133.049 98.9713 132.225 99.3346C131.415 99.6839 130.423 99.8585 129.249 99.8585C128.732 99.8585 128.222 99.8236 127.719 99.7537C127.23 99.6839 126.755 99.5861 126.294 99.4603C125.847 99.3206 125.421 99.1529 125.016 98.9573V96.0023C125.728 96.3097 126.462 96.5961 127.216 96.8616C127.985 97.1131 128.746 97.2388 129.501 97.2388C130.018 97.2388 130.43 97.169 130.737 97.0292C131.059 96.8895 131.289 96.7009 131.429 96.4634C131.582 96.2259 131.659 95.9534 131.659 95.6461C131.659 95.2688 131.527 94.9475 131.261 94.682C131.01 94.4165 130.667 94.172 130.234 93.9485C129.801 93.711 129.305 93.4595 128.746 93.194C128.397 93.0264 128.02 92.8308 127.615 92.6072C127.209 92.3697 126.818 92.0833 126.441 91.748C126.078 91.3987 125.777 90.9795 125.54 90.4905C125.302 90.0015 125.183 89.4147 125.183 88.7301C125.183 87.8359 125.386 87.0745 125.791 86.4457C126.21 85.803 126.797 85.314 127.552 84.9787C128.32 84.6434 129.221 84.4757 130.255 84.4757C131.038 84.4757 131.778 84.5665 132.477 84.7482C133.189 84.9298 133.93 85.1883 134.698 85.5236L133.671 87.9966C132.987 87.7172 132.372 87.5006 131.827 87.3469C131.282 87.1932 130.723 87.1164 130.15 87.1164C129.759 87.1164 129.424 87.1792 129.144 87.305C128.865 87.4307 128.648 87.6054 128.495 87.8289C128.355 88.0525 128.285 88.3179 128.285 88.6253C128.285 88.9746 128.39 89.275 128.6 89.5265C128.809 89.764 129.123 89.9945 129.543 90.2181C129.962 90.4416 130.486 90.7071 131.114 91.0145C131.883 91.3777 132.533 91.755 133.063 92.1462C133.608 92.5374 134.028 92.9984 134.321 93.5294C134.614 94.0603 134.761 94.7169 134.761 95.4994ZM142.05 97.3646C142.399 97.3646 142.734 97.3296 143.056 97.2598C143.377 97.1899 143.698 97.1061 144.02 97.0083V99.3346C143.684 99.4743 143.265 99.593 142.762 99.6908C142.273 99.8026 141.735 99.8585 141.148 99.8585C140.464 99.8585 139.849 99.7467 139.304 99.5232C138.773 99.2996 138.347 98.9154 138.026 98.3705C137.718 97.8117 137.565 97.0432 137.565 96.0652V90.5534H136.077V89.2331L137.795 88.1852L138.696 85.7751H140.687V88.2062H143.894V90.5534H140.687V96.0652C140.687 96.4983 140.813 96.8267 141.065 97.0502C141.316 97.2598 141.644 97.3646 142.05 97.3646ZM151.011 87.9756C152.548 87.9756 153.721 88.3109 154.532 88.9816C155.356 89.6383 155.768 90.6512 155.768 92.0204V99.6489H153.589L152.981 98.0981H152.897C152.576 98.5033 152.24 98.8386 151.891 99.104C151.556 99.3695 151.165 99.5581 150.717 99.6699C150.284 99.7956 149.746 99.8585 149.104 99.8585C148.433 99.8585 147.825 99.7328 147.28 99.4813C146.75 99.2158 146.33 98.8176 146.023 98.2867C145.716 97.7418 145.562 97.0572 145.562 96.2329C145.562 95.0173 145.988 94.1231 146.84 93.5503C147.693 92.9635 148.971 92.6422 150.676 92.5863L152.667 92.5234V92.0204C152.667 91.4196 152.506 90.9795 152.185 90.7001C151.877 90.4207 151.444 90.2809 150.885 90.2809C150.326 90.2809 149.781 90.3648 149.25 90.5324C148.72 90.6861 148.189 90.8817 147.658 91.1192L146.631 89.0025C147.246 88.6812 147.923 88.4297 148.664 88.2481C149.418 88.0664 150.201 87.9756 151.011 87.9756ZM151.451 94.3886C150.445 94.4165 149.746 94.5982 149.355 94.9335C148.964 95.2688 148.768 95.7089 148.768 96.2538C148.768 96.7289 148.908 97.0712 149.188 97.2807C149.467 97.4763 149.83 97.5741 150.277 97.5741C150.948 97.5741 151.514 97.3785 151.975 96.9873C152.436 96.5822 152.667 96.0163 152.667 95.2898V94.3467L151.451 94.3886ZM163.785 97.3646C164.134 97.3646 164.469 97.3296 164.791 97.2598C165.112 97.1899 165.433 97.1061 165.755 97.0083V99.3346C165.419 99.4743 165 99.593 164.497 99.6908C164.008 99.8026 163.47 99.8585 162.884 99.8585C162.199 99.8585 161.584 99.7467 161.039 99.5232C160.508 99.2996 160.082 98.9154 159.761 98.3705C159.454 97.8117 159.3 97.0432 159.3 96.0652V90.5534H157.812V89.2331L159.53 88.1852L160.432 85.7751H162.423V88.2062H165.629V90.5534H162.423V96.0652C162.423 96.4983 162.548 96.8267 162.8 97.0502C163.051 97.2598 163.38 97.3646 163.785 97.3646ZM176.036 96.2538C176.036 97.0223 175.855 97.6789 175.491 98.2238C175.128 98.7547 174.583 99.1599 173.857 99.4394C173.13 99.7188 172.229 99.8585 171.153 99.8585C170.357 99.8585 169.672 99.8026 169.099 99.6908C168.527 99.593 167.954 99.4254 167.381 99.1879V96.6101C167.996 96.8895 168.659 97.1201 169.372 97.3017C170.084 97.4833 170.713 97.5741 171.258 97.5741C171.873 97.5741 172.306 97.4833 172.557 97.3017C172.823 97.1201 172.956 96.8825 172.956 96.5891C172.956 96.3935 172.9 96.2189 172.788 96.0652C172.69 95.9115 172.467 95.7369 172.117 95.5413C171.768 95.3457 171.223 95.0942 170.483 94.7868C169.77 94.4794 169.183 94.179 168.722 93.8856C168.261 93.5783 167.919 93.215 167.695 92.7958C167.472 92.3627 167.36 91.8248 167.36 91.1821C167.36 90.1203 167.772 89.3239 168.596 88.793C169.421 88.262 170.518 87.9966 171.887 87.9966C172.599 87.9966 173.277 88.0664 173.92 88.2062C174.562 88.3459 175.226 88.5764 175.911 88.8978L174.968 91.1402C174.59 90.9725 174.227 90.8258 173.878 90.7001C173.528 90.5744 173.186 90.4765 172.851 90.4067C172.529 90.3368 172.194 90.3019 171.845 90.3019C171.384 90.3019 171.035 90.3648 170.797 90.4905C170.573 90.6163 170.462 90.8049 170.462 91.0564C170.462 91.238 170.518 91.4057 170.629 91.5594C170.755 91.6991 170.986 91.8528 171.321 92.0204C171.67 92.1881 172.18 92.4116 172.851 92.6911C173.508 92.9565 174.073 93.2359 174.548 93.5294C175.023 93.8088 175.387 94.1651 175.638 94.5982C175.904 95.0173 176.036 95.5692 176.036 96.2538Z" fill="#1B4A5F"/>
<path d="M77.9477 121.598C77.9477 122.135 77.822 122.592 77.5705 122.969C77.3274 123.338 76.9795 123.623 76.5268 123.824C76.0825 124.025 75.5502 124.126 74.9299 124.126C74.6197 124.126 74.3179 124.109 74.0245 124.075C73.7395 124.042 73.4754 123.996 73.2323 123.937C72.9976 123.87 72.788 123.79 72.6036 123.698V122.617C72.897 122.751 73.2533 122.872 73.6724 122.981C74.0999 123.09 74.5359 123.145 74.9801 123.145C75.3909 123.145 75.7304 123.086 75.9987 122.969C76.2753 122.852 76.4807 122.684 76.6148 122.466C76.7573 122.248 76.8286 121.992 76.8286 121.699C76.8286 121.405 76.7657 121.158 76.64 120.957C76.5226 120.756 76.3214 120.571 76.0364 120.404C75.7514 120.228 75.3616 120.043 74.867 119.85C74.5149 119.708 74.2047 119.557 73.9365 119.398C73.6682 119.23 73.4419 119.041 73.2574 118.832C73.073 118.622 72.9347 118.383 72.8425 118.115C72.7503 117.847 72.7042 117.537 72.7042 117.185C72.7042 116.707 72.8173 116.3 73.0437 115.965C73.2784 115.621 73.597 115.357 73.9993 115.173C74.4101 114.988 74.8837 114.896 75.4203 114.896C75.8813 114.896 76.3047 114.942 76.6903 115.034C77.0759 115.127 77.4322 115.248 77.7591 115.399L77.407 116.367C77.1052 116.233 76.7825 116.12 76.4388 116.028C76.1035 115.936 75.7556 115.889 75.3951 115.889C75.0514 115.889 74.7622 115.944 74.5275 116.053C74.3011 116.162 74.1293 116.317 74.0119 116.518C73.8946 116.711 73.8359 116.937 73.8359 117.197C73.8359 117.499 73.8946 117.75 74.0119 117.952C74.1293 118.153 74.3221 118.333 74.5903 118.492C74.8586 118.652 75.2149 118.824 75.6592 119.008C76.1538 119.201 76.5687 119.41 76.904 119.637C77.2477 119.855 77.5076 120.119 77.6837 120.429C77.8597 120.739 77.9477 121.129 77.9477 121.598ZM81.954 117.134C82.4989 117.134 82.9683 117.26 83.3623 117.512C83.7563 117.763 84.0581 118.119 84.2677 118.58C84.4856 119.033 84.5946 119.565 84.5946 120.177V120.844H80.269C80.2858 121.607 80.466 122.189 80.8097 122.592C81.1534 122.986 81.6354 123.183 82.2558 123.183C82.6581 123.183 83.0144 123.145 83.3246 123.069C83.6431 122.986 83.9701 122.868 84.3054 122.717V123.686C83.9785 123.837 83.6557 123.946 83.3372 124.013C83.027 124.088 82.6498 124.126 82.2055 124.126C81.6019 124.126 81.0696 123.996 80.6085 123.736C80.1474 123.476 79.787 123.09 79.5271 122.579C79.2672 122.059 79.1373 121.426 79.1373 120.68C79.1373 119.943 79.2546 119.31 79.4894 118.782C79.7241 118.253 80.051 117.847 80.4702 117.562C80.8977 117.277 81.3923 117.134 81.954 117.134ZM81.954 118.04C81.4678 118.04 81.0821 118.212 80.7971 118.555C80.5121 118.891 80.3444 119.36 80.2941 119.964H83.4629C83.4629 119.578 83.4084 119.243 83.2994 118.958C83.1905 118.673 83.0228 118.45 82.7965 118.291C82.5785 118.124 82.2977 118.04 81.954 118.04ZM88.6464 117.134C89.1913 117.134 89.6608 117.26 90.0548 117.512C90.4488 117.763 90.7506 118.119 90.9601 118.58C91.1781 119.033 91.2871 119.565 91.2871 120.177V120.844H86.9615C86.9782 121.607 87.1585 122.189 87.5022 122.592C87.8459 122.986 88.3279 123.183 88.9482 123.183C89.3506 123.183 89.7069 123.145 90.0171 123.069C90.3356 122.986 90.6625 122.868 90.9979 122.717V123.686C90.6709 123.837 90.3482 123.946 90.0296 124.013C89.7195 124.088 89.3422 124.126 88.8979 124.126C88.2943 124.126 87.762 123.996 87.301 123.736C86.8399 123.476 86.4794 123.09 86.2196 122.579C85.9597 122.059 85.8298 121.426 85.8298 120.68C85.8298 119.943 85.9471 119.31 86.1818 118.782C86.4166 118.253 86.7435 117.847 87.1626 117.562C87.5902 117.277 88.0848 117.134 88.6464 117.134ZM88.6464 118.04C88.1602 118.04 87.7746 118.212 87.4896 118.555C87.2046 118.891 87.0369 119.36 86.9866 119.964H90.1554C90.1554 119.578 90.1009 119.243 89.9919 118.958C89.8829 118.673 89.7153 118.45 89.4889 118.291C89.271 118.124 88.9901 118.04 88.6464 118.04ZM94.9634 117.26H96.1454L97.4909 121.095C97.5747 121.322 97.6502 121.54 97.7172 121.749C97.7843 121.959 97.843 122.164 97.8933 122.365C97.9436 122.558 97.9813 122.747 98.0065 122.931H98.0442C98.0945 122.722 98.1657 122.449 98.2579 122.114C98.3585 121.77 98.4633 121.426 98.5723 121.083L99.8423 117.26H101.037L98.3082 124.931C98.1573 125.35 97.9771 125.714 97.7675 126.024C97.5663 126.343 97.3191 126.586 97.0256 126.754C96.7322 126.93 96.3802 127.018 95.9694 127.018C95.785 127.018 95.6173 127.005 95.4664 126.98C95.3239 126.963 95.2023 126.942 95.1018 126.917V126.037C95.1856 126.054 95.2904 126.071 95.4161 126.087C95.5419 126.104 95.6718 126.113 95.8059 126.113C96.049 126.113 96.2586 126.062 96.4346 125.962C96.6107 125.869 96.7616 125.731 96.8873 125.547C97.0131 125.371 97.1179 125.161 97.2017 124.918L97.5161 124.025L94.9634 117.26ZM107.58 120.617C107.58 121.179 107.509 121.678 107.367 122.114C107.232 122.541 107.035 122.906 106.776 123.208C106.516 123.51 106.201 123.74 105.832 123.899C105.464 124.05 105.053 124.126 104.6 124.126C104.181 124.126 103.791 124.05 103.431 123.899C103.079 123.74 102.769 123.51 102.5 123.208C102.24 122.906 102.039 122.541 101.897 122.114C101.754 121.678 101.683 121.179 101.683 120.617C101.683 119.871 101.8 119.243 102.035 118.731C102.278 118.212 102.622 117.818 103.066 117.549C103.51 117.273 104.034 117.134 104.638 117.134C105.216 117.134 105.724 117.273 106.159 117.549C106.604 117.818 106.952 118.212 107.203 118.731C107.455 119.243 107.58 119.871 107.58 120.617ZM102.815 120.617C102.815 121.146 102.877 121.607 103.003 122.001C103.129 122.386 103.326 122.684 103.594 122.893C103.862 123.103 104.206 123.208 104.625 123.208C105.044 123.208 105.388 123.103 105.656 122.893C105.925 122.684 106.122 122.386 106.247 122.001C106.382 121.607 106.449 121.146 106.449 120.617C106.449 120.081 106.382 119.624 106.247 119.247C106.122 118.87 105.925 118.58 105.656 118.379C105.388 118.17 105.04 118.065 104.613 118.065C103.984 118.065 103.527 118.291 103.242 118.744C102.957 119.197 102.815 119.821 102.815 120.617ZM114.551 117.26V124H113.67L113.507 123.107H113.457C113.322 123.342 113.146 123.535 112.928 123.686C112.719 123.837 112.488 123.946 112.237 124.013C111.985 124.088 111.721 124.126 111.445 124.126C110.942 124.126 110.518 124.042 110.175 123.874C109.831 123.698 109.571 123.43 109.395 123.069C109.227 122.709 109.144 122.244 109.144 121.674V117.26H110.25V121.598C110.25 122.135 110.363 122.537 110.59 122.805C110.816 123.074 111.164 123.208 111.633 123.208C112.094 123.208 112.455 123.116 112.715 122.931C112.983 122.738 113.172 122.462 113.281 122.101C113.398 121.732 113.457 121.288 113.457 120.768V117.26H114.551ZM119.543 117.134C119.66 117.134 119.786 117.143 119.92 117.159C120.054 117.168 120.171 117.185 120.272 117.21L120.146 118.228C120.046 118.203 119.932 118.182 119.807 118.165C119.689 118.149 119.576 118.14 119.467 118.14C119.224 118.14 118.994 118.195 118.776 118.304C118.558 118.413 118.361 118.568 118.185 118.769C118.017 118.962 117.883 119.197 117.782 119.473C117.682 119.75 117.631 120.06 117.631 120.404V124H116.537V117.26H117.43L117.556 118.492H117.606C117.74 118.241 117.9 118.015 118.084 117.813C118.277 117.604 118.495 117.44 118.738 117.323C118.981 117.197 119.249 117.134 119.543 117.134ZM127.575 117.134C128.354 117.134 128.979 117.424 129.448 118.002C129.926 118.58 130.165 119.452 130.165 120.617C130.165 121.38 130.056 122.026 129.838 122.554C129.62 123.074 129.314 123.468 128.92 123.736C128.535 123.996 128.082 124.126 127.562 124.126C127.235 124.126 126.946 124.08 126.695 123.987C126.452 123.895 126.242 123.778 126.066 123.635C125.89 123.484 125.739 123.321 125.613 123.145H125.538C125.555 123.287 125.571 123.468 125.588 123.686C125.605 123.904 125.613 124.092 125.613 124.251V127.018H124.519V117.26H125.412L125.563 118.178H125.613C125.739 117.985 125.89 117.809 126.066 117.65C126.242 117.491 126.452 117.365 126.695 117.273C126.946 117.18 127.24 117.134 127.575 117.134ZM127.361 118.065C126.942 118.065 126.602 118.153 126.343 118.329C126.091 118.497 125.907 118.752 125.789 119.096C125.672 119.44 125.613 119.876 125.613 120.404V120.617C125.613 121.171 125.664 121.64 125.764 122.026C125.873 122.411 126.058 122.705 126.317 122.906C126.577 123.107 126.934 123.208 127.386 123.208C127.763 123.208 128.074 123.095 128.317 122.868C128.56 122.642 128.74 122.336 128.857 121.95C128.975 121.556 129.033 121.108 129.033 120.605C129.033 119.834 128.895 119.218 128.619 118.756C128.35 118.295 127.931 118.065 127.361 118.065ZM134.228 117.147C134.999 117.147 135.573 117.327 135.951 117.688C136.336 118.048 136.529 118.622 136.529 119.41V124H135.737L135.523 123.044H135.473C135.288 123.287 135.1 123.493 134.907 123.66C134.723 123.82 134.505 123.937 134.253 124.013C134.01 124.088 133.708 124.126 133.348 124.126C132.971 124.126 132.631 124.054 132.329 123.912C132.027 123.769 131.789 123.552 131.613 123.258C131.436 122.956 131.348 122.579 131.348 122.126C131.348 121.456 131.596 120.94 132.09 120.58C132.585 120.211 133.348 120.01 134.379 119.976L135.448 119.938V119.536C135.448 118.974 135.335 118.585 135.108 118.367C134.89 118.149 134.576 118.04 134.165 118.04C133.838 118.04 133.524 118.094 133.222 118.203C132.929 118.304 132.648 118.421 132.38 118.555L132.04 117.725C132.325 117.566 132.656 117.432 133.033 117.323C133.411 117.206 133.809 117.147 134.228 117.147ZM134.53 120.743C133.759 120.777 133.222 120.911 132.92 121.146C132.627 121.38 132.48 121.711 132.48 122.139C132.48 122.516 132.585 122.793 132.795 122.969C133.004 123.145 133.277 123.233 133.612 123.233C134.132 123.233 134.568 123.078 134.92 122.768C135.272 122.449 135.448 121.963 135.448 121.309V120.705L134.53 120.743ZM142.643 122.139C142.643 122.575 142.539 122.94 142.329 123.233C142.128 123.526 141.839 123.749 141.461 123.899C141.084 124.05 140.632 124.126 140.103 124.126C139.659 124.126 139.273 124.088 138.947 124.013C138.628 123.937 138.347 123.832 138.104 123.698V122.692C138.364 122.826 138.674 122.952 139.035 123.069C139.395 123.178 139.76 123.233 140.129 123.233C140.64 123.233 141.009 123.145 141.235 122.969C141.47 122.784 141.587 122.541 141.587 122.24C141.587 122.072 141.541 121.921 141.449 121.787C141.365 121.653 141.21 121.519 140.984 121.385C140.766 121.25 140.447 121.099 140.028 120.932C139.626 120.764 139.278 120.597 138.984 120.429C138.699 120.261 138.477 120.06 138.318 119.825C138.167 119.591 138.091 119.289 138.091 118.92C138.091 118.35 138.309 117.91 138.745 117.6C139.19 117.289 139.768 117.134 140.481 117.134C140.866 117.134 141.227 117.176 141.562 117.26C141.897 117.336 142.216 117.445 142.518 117.587L142.153 118.467C141.977 118.383 141.793 118.312 141.6 118.253C141.407 118.186 141.21 118.136 141.009 118.103C140.816 118.061 140.619 118.04 140.418 118.04C140.007 118.04 139.693 118.115 139.475 118.266C139.257 118.409 139.148 118.606 139.148 118.857C139.148 119.041 139.198 119.201 139.299 119.335C139.399 119.469 139.563 119.599 139.789 119.725C140.024 119.842 140.342 119.98 140.745 120.14C141.147 120.299 141.491 120.462 141.776 120.63C142.061 120.798 142.275 121.003 142.417 121.246C142.568 121.481 142.643 121.779 142.643 122.139ZM146.342 123.22C146.501 123.22 146.665 123.208 146.833 123.183C147 123.149 147.139 123.116 147.248 123.082V123.925C147.13 123.983 146.963 124.029 146.745 124.063C146.535 124.105 146.334 124.126 146.141 124.126C145.806 124.126 145.496 124.067 145.211 123.95C144.925 123.824 144.695 123.61 144.519 123.308C144.351 123.007 144.267 122.583 144.267 122.038V118.115H143.375V117.587L144.293 117.147L144.708 115.713H145.361V117.26H147.197V118.115H145.361V122.013C145.361 122.424 145.454 122.73 145.638 122.931C145.822 123.124 146.057 123.22 146.342 123.22ZM154.627 117.134C155.407 117.134 156.031 117.424 156.501 118.002C156.979 118.58 157.217 119.452 157.217 120.617C157.217 121.38 157.108 122.026 156.891 122.554C156.673 123.074 156.367 123.468 155.973 123.736C155.587 123.996 155.134 124.126 154.615 124.126C154.288 124.126 153.998 124.08 153.747 123.987C153.504 123.895 153.294 123.778 153.118 123.635C152.942 123.484 152.791 123.321 152.666 123.145H152.59C152.607 123.287 152.624 123.468 152.64 123.686C152.657 123.904 152.666 124.092 152.666 124.251V127.018H151.572V117.26H152.464L152.615 118.178H152.666C152.791 117.985 152.942 117.809 153.118 117.65C153.294 117.491 153.504 117.365 153.747 117.273C153.998 117.18 154.292 117.134 154.627 117.134ZM154.413 118.065C153.994 118.065 153.655 118.153 153.395 118.329C153.143 118.497 152.959 118.752 152.842 119.096C152.724 119.44 152.666 119.876 152.666 120.404V120.617C152.666 121.171 152.716 121.64 152.816 122.026C152.925 122.411 153.11 122.705 153.37 122.906C153.63 123.107 153.986 123.208 154.439 123.208C154.816 123.208 155.126 123.095 155.369 122.868C155.612 122.642 155.792 122.336 155.91 121.95C156.027 121.556 156.086 121.108 156.086 120.605C156.086 119.834 155.947 119.218 155.671 118.756C155.403 118.295 154.983 118.065 154.413 118.065ZM161.318 117.134C161.863 117.134 162.332 117.26 162.726 117.512C163.12 117.763 163.422 118.119 163.632 118.58C163.85 119.033 163.959 119.565 163.959 120.177V120.844H159.633C159.65 121.607 159.83 122.189 160.174 122.592C160.517 122.986 160.999 123.183 161.62 123.183C162.022 123.183 162.378 123.145 162.689 123.069C163.007 122.986 163.334 122.868 163.669 122.717V123.686C163.343 123.837 163.02 123.946 162.701 124.013C162.391 124.088 162.014 124.126 161.57 124.126C160.966 124.126 160.434 123.996 159.973 123.736C159.511 123.476 159.151 123.09 158.891 122.579C158.631 122.059 158.501 121.426 158.501 120.68C158.501 119.943 158.619 119.31 158.853 118.782C159.088 118.253 159.415 117.847 159.834 117.562C160.262 117.277 160.756 117.134 161.318 117.134ZM161.318 118.04C160.832 118.04 160.446 118.212 160.161 118.555C159.876 118.891 159.708 119.36 159.658 119.964H162.827C162.827 119.578 162.772 119.243 162.663 118.958C162.555 118.673 162.387 118.45 162.161 118.291C161.943 118.124 161.662 118.04 161.318 118.04ZM168.551 117.134C168.669 117.134 168.794 117.143 168.928 117.159C169.063 117.168 169.18 117.185 169.281 117.21L169.155 118.228C169.054 118.203 168.941 118.182 168.815 118.165C168.698 118.149 168.585 118.14 168.476 118.14C168.233 118.14 168.002 118.195 167.784 118.304C167.566 118.413 167.369 118.568 167.193 118.769C167.025 118.962 166.891 119.197 166.791 119.473C166.69 119.75 166.64 120.06 166.64 120.404V124H165.546V117.26H166.439L166.564 118.492H166.615C166.749 118.241 166.908 118.015 167.093 117.813C167.285 117.604 167.503 117.44 167.746 117.323C167.99 117.197 168.258 117.134 168.551 117.134ZM173.425 118.115H171.841V124H170.734V118.115H169.64V117.6L170.734 117.222V116.833C170.734 116.254 170.814 115.785 170.973 115.424C171.141 115.064 171.38 114.8 171.69 114.632C172 114.464 172.373 114.381 172.809 114.381C173.069 114.381 173.304 114.406 173.513 114.456C173.731 114.498 173.92 114.548 174.079 114.607L173.79 115.475C173.656 115.433 173.505 115.391 173.337 115.349C173.178 115.307 173.01 115.286 172.834 115.286C172.499 115.286 172.248 115.412 172.08 115.663C171.921 115.906 171.841 116.292 171.841 116.82V117.26H173.425V118.115ZM180.105 120.617C180.105 121.179 180.033 121.678 179.891 122.114C179.757 122.541 179.56 122.906 179.3 123.208C179.04 123.51 178.726 123.74 178.357 123.899C177.988 124.05 177.577 124.126 177.124 124.126C176.705 124.126 176.315 124.05 175.955 123.899C175.603 123.74 175.293 123.51 175.024 123.208C174.765 122.906 174.563 122.541 174.421 122.114C174.278 121.678 174.207 121.179 174.207 120.617C174.207 119.871 174.325 119.243 174.559 118.731C174.802 118.212 175.146 117.818 175.59 117.549C176.035 117.273 176.559 117.134 177.162 117.134C177.741 117.134 178.248 117.273 178.684 117.549C179.128 117.818 179.476 118.212 179.727 118.731C179.979 119.243 180.105 119.871 180.105 120.617ZM175.339 120.617C175.339 121.146 175.402 121.607 175.527 122.001C175.653 122.386 175.85 122.684 176.118 122.893C176.387 123.103 176.73 123.208 177.15 123.208C177.569 123.208 177.912 123.103 178.181 122.893C178.449 122.684 178.646 122.386 178.772 122.001C178.906 121.607 178.973 121.146 178.973 120.617C178.973 120.081 178.906 119.624 178.772 119.247C178.646 118.87 178.449 118.58 178.181 118.379C177.912 118.17 177.565 118.065 177.137 118.065C176.508 118.065 176.051 118.291 175.766 118.744C175.481 119.197 175.339 119.821 175.339 120.617ZM184.736 117.134C184.853 117.134 184.979 117.143 185.113 117.159C185.247 117.168 185.365 117.185 185.465 117.21L185.339 118.228C185.239 118.203 185.126 118.182 185 118.165C184.883 118.149 184.769 118.14 184.66 118.14C184.417 118.14 184.187 118.195 183.969 118.304C183.751 118.413 183.554 118.568 183.378 118.769C183.21 118.962 183.076 119.197 182.975 119.473C182.875 119.75 182.825 120.06 182.825 120.404V124H181.731V117.26H182.623L182.749 118.492H182.799C182.934 118.241 183.093 118.015 183.277 117.813C183.47 117.604 183.688 117.44 183.931 117.323C184.174 117.197 184.442 117.134 184.736 117.134ZM193.646 117.134C194.367 117.134 194.904 117.331 195.256 117.725C195.608 118.111 195.784 118.74 195.784 119.612V124H194.703V119.662C194.703 119.134 194.598 118.735 194.388 118.467C194.187 118.199 193.869 118.065 193.433 118.065C192.829 118.065 192.397 118.253 192.138 118.631C191.886 119.008 191.76 119.557 191.76 120.278V124H190.666V119.662C190.666 119.31 190.62 119.016 190.528 118.782C190.436 118.538 190.297 118.358 190.113 118.241C189.929 118.124 189.69 118.065 189.396 118.065C188.977 118.065 188.646 118.161 188.403 118.354C188.16 118.538 187.988 118.811 187.887 119.171C187.787 119.532 187.736 119.976 187.736 120.504V124H186.642V117.26H187.523L187.686 118.178H187.749C187.883 117.943 188.047 117.75 188.239 117.6C188.432 117.44 188.646 117.323 188.881 117.248C189.115 117.172 189.359 117.134 189.61 117.134C190.096 117.134 190.503 117.227 190.83 117.411C191.157 117.595 191.396 117.88 191.547 118.266H191.622C191.832 117.88 192.117 117.595 192.477 117.411C192.846 117.227 193.236 117.134 193.646 117.134ZM200.158 117.147C200.929 117.147 201.503 117.327 201.881 117.688C202.266 118.048 202.459 118.622 202.459 119.41V124H201.667L201.453 123.044H201.403C201.218 123.287 201.03 123.493 200.837 123.66C200.653 123.82 200.435 123.937 200.183 124.013C199.94 124.088 199.638 124.126 199.278 124.126C198.901 124.126 198.561 124.054 198.259 123.912C197.957 123.769 197.719 123.552 197.543 123.258C197.366 122.956 197.278 122.579 197.278 122.126C197.278 121.456 197.526 120.94 198.02 120.58C198.515 120.211 199.278 120.01 200.309 119.976L201.378 119.938V119.536C201.378 118.974 201.265 118.585 201.038 118.367C200.82 118.149 200.506 118.04 200.095 118.04C199.768 118.04 199.454 118.094 199.152 118.203C198.859 118.304 198.578 118.421 198.31 118.555L197.97 117.725C198.255 117.566 198.586 117.432 198.963 117.323C199.341 117.206 199.739 117.147 200.158 117.147ZM200.46 120.743C199.689 120.777 199.152 120.911 198.85 121.146C198.557 121.38 198.41 121.711 198.41 122.139C198.41 122.516 198.515 122.793 198.725 122.969C198.934 123.145 199.207 123.233 199.542 123.233C200.062 123.233 200.498 123.078 200.85 122.768C201.202 122.449 201.378 121.963 201.378 121.309V120.705L200.46 120.743ZM207.505 117.134C208.259 117.134 208.829 117.331 209.215 117.725C209.609 118.111 209.806 118.74 209.806 119.612V124H208.712V119.687C208.712 119.142 208.599 118.735 208.372 118.467C208.146 118.199 207.798 118.065 207.329 118.065C206.641 118.065 206.163 118.274 205.895 118.694C205.635 119.113 205.505 119.716 205.505 120.504V124H204.411V117.26H205.292L205.455 118.178H205.518C205.652 117.943 205.824 117.75 206.033 117.6C206.243 117.44 206.474 117.323 206.725 117.248C206.976 117.172 207.236 117.134 207.505 117.134ZM214.307 124.126C213.737 124.126 213.234 124.004 212.798 123.761C212.362 123.518 212.019 123.141 211.767 122.629C211.524 122.118 211.403 121.464 211.403 120.668C211.403 119.838 211.532 119.163 211.792 118.643C212.052 118.124 212.404 117.742 212.849 117.499C213.301 117.256 213.813 117.134 214.383 117.134C214.71 117.134 215.024 117.172 215.326 117.248C215.636 117.315 215.887 117.398 216.08 117.499L215.741 118.417C215.548 118.341 215.322 118.27 215.062 118.203C214.81 118.136 214.575 118.103 214.358 118.103C213.947 118.103 213.607 118.199 213.339 118.392C213.071 118.585 212.87 118.87 212.735 119.247C212.601 119.624 212.534 120.094 212.534 120.655C212.534 121.192 212.601 121.649 212.735 122.026C212.87 122.403 213.067 122.688 213.326 122.881C213.595 123.074 213.922 123.17 214.307 123.17C214.651 123.17 214.957 123.132 215.225 123.057C215.493 122.981 215.741 122.889 215.967 122.78V123.761C215.749 123.878 215.51 123.966 215.25 124.025C214.99 124.092 214.676 124.126 214.307 124.126ZM219.929 117.134C220.474 117.134 220.944 117.26 221.338 117.512C221.732 117.763 222.033 118.119 222.243 118.58C222.461 119.033 222.57 119.565 222.57 120.177V120.844H218.244C218.261 121.607 218.441 122.189 218.785 122.592C219.129 122.986 219.611 123.183 220.231 123.183C220.633 123.183 220.99 123.145 221.3 123.069C221.618 122.986 221.945 122.868 222.281 122.717V123.686C221.954 123.837 221.631 123.946 221.312 124.013C221.002 124.088 220.625 124.126 220.181 124.126C219.577 124.126 219.045 123.996 218.584 123.736C218.123 123.476 217.762 123.09 217.502 122.579C217.243 122.059 217.113 121.426 217.113 120.68C217.113 119.943 217.23 119.31 217.465 118.782C217.699 118.253 218.026 117.847 218.445 117.562C218.873 117.277 219.368 117.134 219.929 117.134ZM219.929 118.04C219.443 118.04 219.057 118.212 218.772 118.555C218.487 118.891 218.32 119.36 218.269 119.964H221.438C221.438 119.578 221.384 119.243 221.275 118.958C221.166 118.673 220.998 118.45 220.772 118.291C220.554 118.124 220.273 118.04 219.929 118.04Z" fill="black"/>
<path d="M141.333 42.3334V37.3334" stroke="#FCA510" stroke-width="2.5" stroke-linecap="round" stroke-linejoin="round"/>
<path d="M148 37.3333V29" stroke="#FFA000" stroke-width="2.5" stroke-linecap="round" stroke-linejoin="round"/>
<path d="M154.667 29V24" stroke="#FFA000" stroke-width="2.5" stroke-linecap="round" stroke-linejoin="round"/>
<path d="M161.333 30.6666V20.6666" stroke="#FFA000" stroke-width="2.5" stroke-linecap="round" stroke-linejoin="round"/>
<path d="M133 19V37.3333C133 42.833 133 45.5828 134.709 47.2915C136.417 49 139.167 49 144.667 49H163" stroke="#59AE9D" stroke-width="2.5" stroke-linecap="round"/>
</g>
<defs>
<clipPath id="clip0_844_6230">
<rect x="0.265625" y="0.106445" width="295.5" height="144.606" rx="16.766" fill="white"/>
</clipPath>
</defs>
</svg>
