<svg width="297" height="145" viewBox="0 0 297 145" fill="none" xmlns="http://www.w3.org/2000/svg">
<g clip-path="url(#clip0_844_6248)">
<rect x="0.532227" y="0.106445" width="295.5" height="144.606" rx="16.766" fill="#E3F7F3" fill-opacity="0.55"/>
<rect x="76.5029" y="-72.1968" width="143.559" height="143.559" rx="71.7793" fill="#73D7C3" fill-opacity="0.25"/>
<path d="M160.631 15V19.2105M135.368 15V19.2105" stroke="#00AEFF" stroke-width="2" stroke-linecap="round" stroke-linejoin="round"/>
<path d="M143.79 46.579L143.79 38.8889C143.79 38.4853 143.502 38.158 143.147 38.158H141.685M151.431 46.579L154.283 38.8931C154.416 38.5337 154.133 38.158 153.728 38.158H150.106" stroke="#00AEFF" stroke-width="2" stroke-linecap="round"/>
<path d="M128 36.5646C128 27.3914 128 22.8048 130.636 19.955C133.272 17.1052 137.515 17.1052 146 17.1052H150C158.485 17.1052 162.728 17.1052 165.364 19.955C168 22.8048 168 27.3914 168 36.5646V37.6459C168 46.8191 168 51.4056 165.364 54.2555C162.728 57.1052 158.485 57.1052 150 57.1052H146C137.515 57.1052 133.272 57.1052 130.636 54.2555C128 51.4056 128 46.8191 128 37.6459V36.5646Z" stroke="#00AEFF" stroke-width="2" stroke-linecap="round" stroke-linejoin="round"/>
<path d="M135.368 27.6316H160.631" stroke="#00AEFF" stroke-width="2" stroke-linecap="round" stroke-linejoin="round"/>
<rect x="-57.2051" y="91.7953" width="89.0692" height="89.0692" rx="44.5346" transform="rotate(-45 -57.2051 91.7953)" fill="#73D7C3" fill-opacity="0.1"/>
<rect x="246.258" y="-16.6595" width="89.0691" height="89.0691" rx="44.5346" fill="#73D7C3" fill-opacity="0.1"/>
<path d="M111.709 92.8504C111.709 93.7306 111.493 94.4991 111.06 95.1557C110.626 95.8124 109.998 96.3224 109.173 96.6856C108.363 97.0349 107.371 97.2096 106.197 97.2096C105.68 97.2096 105.171 97.1746 104.668 97.1048C104.179 97.0349 103.704 96.9371 103.242 96.8114C102.795 96.6717 102.369 96.504 101.964 96.3084V93.3534C102.677 93.6608 103.41 93.9472 104.165 94.2127C104.933 94.4641 105.694 94.5899 106.449 94.5899C106.966 94.5899 107.378 94.52 107.685 94.3803C108.007 94.2406 108.237 94.052 108.377 93.8145C108.531 93.577 108.608 93.3045 108.608 92.9971C108.608 92.6199 108.475 92.2985 108.209 92.0331C107.958 91.7676 107.616 91.5231 107.182 91.2996C106.749 91.0621 106.253 90.8106 105.694 90.5451C105.345 90.3774 104.968 90.1818 104.563 89.9583C104.158 89.7208 103.766 89.4344 103.389 89.099C103.026 88.7498 102.725 88.3306 102.488 87.8416C102.25 87.3526 102.132 86.7658 102.132 86.0812C102.132 85.187 102.334 84.4255 102.739 83.7968C103.159 83.1541 103.745 82.6651 104.5 82.3298C105.268 81.9945 106.17 81.8268 107.203 81.8268C107.986 81.8268 108.726 81.9176 109.425 82.0993C110.137 82.2809 110.878 82.5394 111.646 82.8747L110.619 85.3477C109.935 85.0682 109.32 84.8517 108.775 84.698C108.23 84.5443 107.671 84.4674 107.099 84.4674C106.707 84.4674 106.372 84.5303 106.093 84.6561C105.813 84.7818 105.597 84.9565 105.443 85.18C105.303 85.4035 105.233 85.669 105.233 85.9764C105.233 86.3257 105.338 86.6261 105.548 86.8776C105.757 87.1151 106.072 87.3456 106.491 87.5691C106.91 87.7927 107.434 88.0582 108.063 88.3655C108.831 88.7288 109.481 89.106 110.012 89.4972C110.557 89.8884 110.976 90.3495 111.269 90.8804C111.563 91.4113 111.709 92.068 111.709 92.8504ZM118.83 97.2096C117.699 97.2096 116.734 97.007 115.938 96.6018C115.142 96.1827 114.534 95.54 114.115 94.6737C113.696 93.8075 113.486 92.6967 113.486 91.3415C113.486 89.9443 113.724 88.8056 114.199 87.9254C114.674 87.0452 115.33 86.3955 116.169 85.9764C117.021 85.5572 117.999 85.3477 119.103 85.3477C119.885 85.3477 120.563 85.4245 121.136 85.5782C121.722 85.7319 122.232 85.9135 122.665 86.1231L121.743 88.5332C121.254 88.3376 120.793 88.1769 120.36 88.0512C119.941 87.9254 119.522 87.8626 119.103 87.8626C118.558 87.8626 118.104 87.9953 117.74 88.2607C117.377 88.5122 117.105 88.8965 116.923 89.4134C116.755 89.9164 116.672 90.5521 116.672 91.3205C116.672 92.075 116.762 92.7037 116.944 93.2067C117.14 93.6957 117.419 94.066 117.782 94.3174C118.146 94.555 118.586 94.6737 119.103 94.6737C119.759 94.6737 120.339 94.5899 120.842 94.4222C121.345 94.2406 121.834 93.9961 122.309 93.6887V96.3503C121.834 96.6577 121.331 96.8743 120.8 97C120.283 97.1397 119.627 97.2096 118.83 97.2096ZM128.066 84.3207C128.066 84.8796 128.045 85.4175 128.003 85.9345C127.975 86.4514 127.947 86.8147 127.919 87.0243H128.087C128.338 86.633 128.631 86.3187 128.967 86.0812C129.302 85.8297 129.672 85.648 130.077 85.5363C130.497 85.4105 130.937 85.3477 131.398 85.3477C132.222 85.3477 132.942 85.4944 133.556 85.7878C134.171 86.0812 134.646 86.5352 134.982 87.15C135.331 87.7648 135.505 88.5611 135.505 89.5391V97H132.383V90.3146C132.383 89.4902 132.229 88.8755 131.922 88.4703C131.628 88.0512 131.167 87.8416 130.539 87.8416C129.91 87.8416 129.414 87.9883 129.051 88.2817C128.701 88.5751 128.45 89.0012 128.296 89.5601C128.142 90.119 128.066 90.8036 128.066 91.6139V97H124.943V81.0723H128.066V84.3207ZM143.432 85.3477C144.494 85.3477 145.402 85.5502 146.157 85.9554C146.925 86.3606 147.519 86.9474 147.938 87.7159C148.357 88.4843 148.567 89.4274 148.567 90.5451V92.054H141.19C141.218 92.9343 141.476 93.6259 141.965 94.1288C142.468 94.6318 143.16 94.8833 144.04 94.8833C144.78 94.8833 145.451 94.8134 146.052 94.6737C146.653 94.52 147.274 94.2895 147.917 93.9821V96.3922C147.358 96.6717 146.764 96.8743 146.136 97C145.521 97.1397 144.773 97.2096 143.893 97.2096C142.748 97.2096 141.735 97 140.854 96.5809C139.974 96.1477 139.283 95.498 138.78 94.6318C138.277 93.7656 138.025 92.6758 138.025 91.3624C138.025 90.0212 138.249 88.9104 138.696 88.0302C139.157 87.136 139.793 86.4654 140.603 86.0183C141.413 85.5712 142.356 85.3477 143.432 85.3477ZM143.453 87.5691C142.852 87.5691 142.349 87.7648 141.944 88.156C141.553 88.5472 141.322 89.1549 141.253 89.9793H145.633C145.633 89.5182 145.549 89.106 145.381 88.7428C145.227 88.3795 144.99 88.0931 144.669 87.8835C144.347 87.6739 143.942 87.5691 143.453 87.5691ZM154.724 97.2096C153.453 97.2096 152.412 96.7136 151.602 95.7216C150.805 94.7156 150.407 93.2416 150.407 91.2996C150.407 89.3435 150.812 87.8626 151.623 86.8566C152.433 85.8506 153.495 85.3477 154.808 85.3477C155.353 85.3477 155.835 85.4245 156.254 85.5782C156.673 85.7179 157.03 85.9135 157.323 86.165C157.631 86.4165 157.889 86.7029 158.099 87.0243H158.203C158.161 86.8007 158.113 86.4794 158.057 86.0602C158.001 85.6271 157.973 85.187 157.973 84.7399V81.0723H161.095V97H158.706L158.099 95.512H157.973C157.777 95.8194 157.526 96.1058 157.218 96.3713C156.925 96.6228 156.576 96.8254 156.17 96.979C155.765 97.1327 155.283 97.2096 154.724 97.2096ZM155.814 94.7156C156.68 94.7156 157.288 94.4641 157.638 93.9612C157.987 93.4442 158.168 92.6758 158.182 91.6559V91.3205C158.182 90.2028 158.008 89.3505 157.658 88.7637C157.323 88.1769 156.694 87.8835 155.772 87.8835C155.088 87.8835 154.55 88.1839 154.159 88.7847C153.767 89.3715 153.572 90.2238 153.572 91.3415C153.572 92.4592 153.767 93.3045 154.159 93.8773C154.55 94.4362 155.102 94.7156 155.814 94.7156ZM174.861 85.5572V97H172.471L172.052 95.533H171.885C171.647 95.9242 171.34 96.2455 170.963 96.497C170.599 96.7345 170.194 96.9092 169.747 97.021C169.3 97.1467 168.839 97.2096 168.364 97.2096C167.553 97.2096 166.841 97.0629 166.226 96.7695C165.611 96.4761 165.136 96.022 164.801 95.4072C164.466 94.7925 164.298 93.9961 164.298 93.0181V85.5572H167.421V92.2427C167.421 93.053 167.567 93.6678 167.861 94.0869C168.154 94.5061 168.622 94.7156 169.265 94.7156C169.908 94.7156 170.404 94.5689 170.753 94.2755C171.116 93.9821 171.368 93.556 171.507 92.9971C171.661 92.4383 171.738 91.7537 171.738 90.9433V85.5572H174.861ZM181.257 97H178.135V81.0723H181.257V97ZM189.236 85.3477C190.297 85.3477 191.206 85.5502 191.96 85.9554C192.729 86.3606 193.322 86.9474 193.741 87.7159C194.161 88.4843 194.37 89.4274 194.37 90.5451V92.054H186.993C187.021 92.9343 187.28 93.6259 187.769 94.1288C188.272 94.6318 188.963 94.8833 189.843 94.8833C190.584 94.8833 191.255 94.8134 191.855 94.6737C192.456 94.52 193.078 94.2895 193.72 93.9821V96.3922C193.162 96.6717 192.568 96.8743 191.939 97C191.324 97.1397 190.577 97.2096 189.697 97.2096C188.551 97.2096 187.538 97 186.658 96.5809C185.778 96.1477 185.086 95.498 184.583 94.6318C184.08 93.7656 183.829 92.6758 183.829 91.3624C183.829 90.0212 184.052 88.9104 184.499 88.0302C184.96 87.136 185.596 86.4654 186.406 86.0183C187.217 85.5712 188.16 85.3477 189.236 85.3477ZM189.257 87.5691C188.656 87.5691 188.153 87.7648 187.748 88.156C187.356 88.5472 187.126 89.1549 187.056 89.9793H191.436C191.436 89.5182 191.352 89.106 191.185 88.7428C191.031 88.3795 190.793 88.0931 190.472 87.8835C190.151 87.6739 189.746 87.5691 189.257 87.5691Z" fill="#18564A"/>
<path d="M83.9477 121.598C83.9477 122.135 83.822 122.592 83.5705 122.969C83.3274 123.338 82.9795 123.623 82.5268 123.824C82.0825 124.025 81.5502 124.126 80.9299 124.126C80.6197 124.126 80.3179 124.109 80.0245 124.075C79.7395 124.042 79.4754 123.996 79.2323 123.937C78.9976 123.87 78.788 123.79 78.6036 123.698V122.617C78.897 122.751 79.2533 122.872 79.6724 122.981C80.0999 123.09 80.5359 123.145 80.9801 123.145C81.3909 123.145 81.7304 123.086 81.9987 122.969C82.2753 122.852 82.4807 122.684 82.6148 122.466C82.7573 122.248 82.8286 121.992 82.8286 121.699C82.8286 121.405 82.7657 121.158 82.64 120.957C82.5226 120.756 82.3214 120.571 82.0364 120.404C81.7514 120.228 81.3616 120.043 80.867 119.85C80.5149 119.708 80.2047 119.557 79.9365 119.398C79.6682 119.23 79.4419 119.041 79.2574 118.832C79.073 118.622 78.9347 118.383 78.8425 118.115C78.7503 117.847 78.7042 117.537 78.7042 117.185C78.7042 116.707 78.8173 116.3 79.0437 115.965C79.2784 115.621 79.597 115.357 79.9993 115.173C80.4101 114.988 80.8837 114.896 81.4203 114.896C81.8813 114.896 82.3047 114.942 82.6903 115.034C83.0759 115.127 83.4322 115.248 83.7591 115.399L83.407 116.367C83.1052 116.233 82.7825 116.12 82.4388 116.028C82.1035 115.936 81.7556 115.889 81.3951 115.889C81.0514 115.889 80.7622 115.944 80.5275 116.053C80.3011 116.162 80.1293 116.317 80.0119 116.518C79.8946 116.711 79.8359 116.937 79.8359 117.197C79.8359 117.499 79.8946 117.75 80.0119 117.952C80.1293 118.153 80.3221 118.333 80.5903 118.492C80.8586 118.652 81.2149 118.824 81.6592 119.008C82.1538 119.201 82.5687 119.41 82.904 119.637C83.2477 119.855 83.5076 120.119 83.6837 120.429C83.8597 120.739 83.9477 121.129 83.9477 121.598ZM87.954 117.134C88.4989 117.134 88.9683 117.26 89.3623 117.512C89.7563 117.763 90.0581 118.119 90.2677 118.58C90.4856 119.033 90.5946 119.565 90.5946 120.177V120.844H86.269C86.2858 121.607 86.466 122.189 86.8097 122.592C87.1534 122.986 87.6354 123.183 88.2558 123.183C88.6581 123.183 89.0144 123.145 89.3246 123.069C89.6431 122.986 89.9701 122.868 90.3054 122.717V123.686C89.9785 123.837 89.6557 123.946 89.3372 124.013C89.027 124.088 88.6498 124.126 88.2055 124.126C87.6019 124.126 87.0696 123.996 86.6085 123.736C86.1474 123.476 85.787 123.09 85.5271 122.579C85.2672 122.059 85.1373 121.426 85.1373 120.68C85.1373 119.943 85.2546 119.31 85.4894 118.782C85.7241 118.253 86.051 117.847 86.4702 117.562C86.8977 117.277 87.3923 117.134 87.954 117.134ZM87.954 118.04C87.4678 118.04 87.0821 118.212 86.7971 118.555C86.5121 118.891 86.3444 119.36 86.2941 119.964H89.4629C89.4629 119.578 89.4084 119.243 89.2994 118.958C89.1905 118.673 89.0228 118.45 88.7965 118.291C88.5785 118.124 88.2977 118.04 87.954 118.04ZM94.6464 117.134C95.1913 117.134 95.6608 117.26 96.0548 117.512C96.4488 117.763 96.7506 118.119 96.9601 118.58C97.1781 119.033 97.2871 119.565 97.2871 120.177V120.844H92.9615C92.9782 121.607 93.1585 122.189 93.5022 122.592C93.8459 122.986 94.3279 123.183 94.9482 123.183C95.3506 123.183 95.7069 123.145 96.0171 123.069C96.3356 122.986 96.6625 122.868 96.9979 122.717V123.686C96.6709 123.837 96.3482 123.946 96.0296 124.013C95.7195 124.088 95.3422 124.126 94.8979 124.126C94.2943 124.126 93.762 123.996 93.301 123.736C92.8399 123.476 92.4794 123.09 92.2196 122.579C91.9597 122.059 91.8298 121.426 91.8298 120.68C91.8298 119.943 91.9471 119.31 92.1818 118.782C92.4166 118.253 92.7435 117.847 93.1626 117.562C93.5902 117.277 94.0848 117.134 94.6464 117.134ZM94.6464 118.04C94.1602 118.04 93.7746 118.212 93.4896 118.555C93.2046 118.891 93.0369 119.36 92.9866 119.964H96.1554C96.1554 119.578 96.1009 119.243 95.9919 118.958C95.8829 118.673 95.7153 118.45 95.4889 118.291C95.271 118.124 94.9901 118.04 94.6464 118.04ZM104.371 117.147C105.142 117.147 105.717 117.327 106.094 117.688C106.479 118.048 106.672 118.622 106.672 119.41V124H105.88L105.666 123.044H105.616C105.432 123.287 105.243 123.493 105.05 123.66C104.866 123.82 104.648 123.937 104.396 124.013C104.153 124.088 103.851 124.126 103.491 124.126C103.114 124.126 102.774 124.054 102.472 123.912C102.171 123.769 101.932 123.552 101.756 123.258C101.58 122.956 101.492 122.579 101.492 122.126C101.492 121.456 101.739 120.94 102.233 120.58C102.728 120.211 103.491 120.01 104.522 119.976L105.591 119.938V119.536C105.591 118.974 105.478 118.585 105.251 118.367C105.033 118.149 104.719 118.04 104.308 118.04C103.981 118.04 103.667 118.094 103.365 118.203C103.072 118.304 102.791 118.421 102.523 118.555L102.183 117.725C102.468 117.566 102.799 117.432 103.177 117.323C103.554 117.206 103.952 117.147 104.371 117.147ZM104.673 120.743C103.902 120.777 103.365 120.911 103.063 121.146C102.77 121.38 102.623 121.711 102.623 122.139C102.623 122.516 102.728 122.793 102.938 122.969C103.147 123.145 103.42 123.233 103.755 123.233C104.275 123.233 104.711 123.078 105.063 122.768C105.415 122.449 105.591 121.963 105.591 121.309V120.705L104.673 120.743ZM109.718 117.248C109.718 117.407 109.71 117.57 109.693 117.738C109.685 117.906 109.672 118.056 109.656 118.191H109.731C109.865 117.956 110.033 117.763 110.234 117.612C110.444 117.461 110.67 117.348 110.913 117.273C111.164 117.189 111.424 117.147 111.693 117.147C112.204 117.147 112.631 117.235 112.975 117.411C113.319 117.579 113.579 117.843 113.755 118.203C113.931 118.564 114.019 119.033 114.019 119.612V124H112.925V119.687C112.925 119.142 112.812 118.735 112.585 118.467C112.359 118.199 112.011 118.065 111.542 118.065C111.081 118.065 110.716 118.161 110.448 118.354C110.179 118.538 109.991 118.815 109.882 119.184C109.773 119.544 109.718 119.989 109.718 120.517V124H108.624V114.443H109.718V117.248ZM118.432 117.134C118.977 117.134 119.447 117.26 119.841 117.512C120.235 117.763 120.536 118.119 120.746 118.58C120.964 119.033 121.073 119.565 121.073 120.177V120.844H116.747C116.764 121.607 116.944 122.189 117.288 122.592C117.632 122.986 118.114 123.183 118.734 123.183C119.136 123.183 119.493 123.145 119.803 123.069C120.121 122.986 120.448 122.868 120.784 122.717V123.686C120.457 123.837 120.134 123.946 119.816 124.013C119.505 124.088 119.128 124.126 118.684 124.126C118.08 124.126 117.548 123.996 117.087 123.736C116.626 123.476 116.265 123.09 116.005 122.579C115.746 122.059 115.616 121.426 115.616 120.68C115.616 119.943 115.733 119.31 115.968 118.782C116.202 118.253 116.529 117.847 116.949 117.562C117.376 117.277 117.871 117.134 118.432 117.134ZM118.432 118.04C117.946 118.04 117.56 118.212 117.275 118.555C116.99 118.891 116.823 119.36 116.772 119.964H119.941C119.941 119.578 119.887 119.243 119.778 118.958C119.669 118.673 119.501 118.45 119.275 118.291C119.057 118.124 118.776 118.04 118.432 118.04ZM125.087 117.147C125.858 117.147 126.433 117.327 126.81 117.688C127.195 118.048 127.388 118.622 127.388 119.41V124H126.596L126.382 123.044H126.332C126.148 123.287 125.959 123.493 125.766 123.66C125.582 123.82 125.364 123.937 125.112 124.013C124.869 124.088 124.567 124.126 124.207 124.126C123.83 124.126 123.49 124.054 123.188 123.912C122.887 123.769 122.648 123.552 122.472 123.258C122.296 122.956 122.208 122.579 122.208 122.126C122.208 121.456 122.455 120.94 122.949 120.58C123.444 120.211 124.207 120.01 125.238 119.976L126.307 119.938V119.536C126.307 118.974 126.194 118.585 125.967 118.367C125.749 118.149 125.435 118.04 125.024 118.04C124.697 118.04 124.383 118.094 124.081 118.203C123.788 118.304 123.507 118.421 123.239 118.555L122.899 117.725C123.184 117.566 123.515 117.432 123.892 117.323C124.27 117.206 124.668 117.147 125.087 117.147ZM125.389 120.743C124.618 120.777 124.081 120.911 123.779 121.146C123.486 121.38 123.339 121.711 123.339 122.139C123.339 122.516 123.444 122.793 123.654 122.969C123.863 123.145 124.136 123.233 124.471 123.233C124.991 123.233 125.427 123.078 125.779 122.768C126.131 122.449 126.307 121.963 126.307 121.309V120.705L125.389 120.743ZM131.579 124.126C130.799 124.126 130.17 123.837 129.692 123.258C129.223 122.671 128.988 121.799 128.988 120.643C128.988 119.486 129.227 118.614 129.705 118.027C130.183 117.432 130.812 117.134 131.591 117.134C131.918 117.134 132.203 117.18 132.446 117.273C132.689 117.356 132.899 117.474 133.075 117.625C133.259 117.776 133.414 117.943 133.54 118.128H133.616C133.607 118.019 133.591 117.859 133.565 117.65C133.549 117.432 133.54 117.26 133.54 117.134V114.443H134.634V124H133.754L133.591 123.095H133.54C133.414 123.287 133.259 123.463 133.075 123.623C132.899 123.774 132.685 123.895 132.434 123.987C132.191 124.08 131.906 124.126 131.579 124.126ZM131.78 123.208C132.434 123.208 132.891 123.015 133.15 122.629C133.419 122.235 133.553 121.644 133.553 120.856V120.655C133.553 119.817 133.427 119.176 133.176 118.731C132.924 118.279 132.455 118.052 131.767 118.052C131.214 118.052 130.799 118.291 130.522 118.769C130.254 119.238 130.12 119.871 130.12 120.668C130.12 121.473 130.254 122.097 130.522 122.541C130.799 122.986 131.218 123.208 131.78 123.208ZM143.842 120.19C143.791 120.014 143.741 119.842 143.691 119.674C143.649 119.498 143.607 119.335 143.565 119.184C143.523 119.025 143.486 118.878 143.452 118.744C143.427 118.61 143.406 118.497 143.389 118.404H143.339C143.322 118.497 143.297 118.61 143.263 118.744C143.238 118.878 143.205 119.025 143.163 119.184C143.129 119.343 143.087 119.511 143.037 119.687C142.995 119.855 142.949 120.026 142.899 120.203L141.805 123.987H140.572L138.825 117.248H139.956L140.824 120.844C140.883 121.087 140.937 121.334 140.987 121.586C141.046 121.829 141.096 122.064 141.138 122.29C141.18 122.508 141.21 122.696 141.226 122.856H141.277C141.293 122.755 141.314 122.629 141.339 122.478C141.373 122.328 141.407 122.168 141.44 122.001C141.482 121.833 141.524 121.665 141.566 121.498C141.608 121.33 141.65 121.179 141.692 121.045L142.786 117.248H143.993L145.049 121.045C145.108 121.238 145.162 121.443 145.212 121.661C145.271 121.879 145.321 122.093 145.363 122.302C145.414 122.504 145.447 122.684 145.464 122.843H145.502C145.518 122.701 145.548 122.525 145.59 122.315C145.632 122.097 145.682 121.862 145.741 121.611C145.808 121.351 145.87 121.095 145.929 120.844L146.809 117.248H147.916L146.155 123.987H144.885L143.842 120.19ZM150.131 117.248C150.131 117.407 150.123 117.57 150.106 117.738C150.098 117.906 150.085 118.056 150.068 118.191H150.144C150.278 117.956 150.445 117.763 150.647 117.612C150.856 117.461 151.083 117.348 151.326 117.273C151.577 117.189 151.837 117.147 152.105 117.147C152.617 117.147 153.044 117.235 153.388 117.411C153.732 117.579 153.991 117.843 154.167 118.203C154.344 118.564 154.432 119.033 154.432 119.612V124H153.338V119.687C153.338 119.142 153.224 118.735 152.998 118.467C152.772 118.199 152.424 118.065 151.954 118.065C151.493 118.065 151.129 118.161 150.86 118.354C150.592 118.538 150.404 118.815 150.295 119.184C150.186 119.544 150.131 119.989 150.131 120.517V124H149.037V114.443H150.131V117.248ZM158.807 117.147C159.578 117.147 160.153 117.327 160.53 117.688C160.916 118.048 161.108 118.622 161.108 119.41V124H160.316L160.102 123.044H160.052C159.868 123.287 159.679 123.493 159.486 123.66C159.302 123.82 159.084 123.937 158.832 124.013C158.589 124.088 158.288 124.126 157.927 124.126C157.55 124.126 157.21 124.054 156.909 123.912C156.607 123.769 156.368 123.552 156.192 123.258C156.016 122.956 155.928 122.579 155.928 122.126C155.928 121.456 156.175 120.94 156.67 120.58C157.164 120.211 157.927 120.01 158.958 119.976L160.027 119.938V119.536C160.027 118.974 159.914 118.585 159.687 118.367C159.47 118.149 159.155 118.04 158.744 118.04C158.417 118.04 158.103 118.094 157.801 118.203C157.508 118.304 157.227 118.421 156.959 118.555L156.619 117.725C156.904 117.566 157.235 117.432 157.613 117.323C157.99 117.206 158.388 117.147 158.807 117.147ZM159.109 120.743C158.338 120.777 157.801 120.911 157.5 121.146C157.206 121.38 157.059 121.711 157.059 122.139C157.059 122.516 157.164 122.793 157.374 122.969C157.583 123.145 157.856 123.233 158.191 123.233C158.711 123.233 159.147 123.078 159.499 122.768C159.851 122.449 160.027 121.963 160.027 121.309V120.705L159.109 120.743ZM165.236 123.22C165.395 123.22 165.559 123.208 165.726 123.183C165.894 123.149 166.032 123.116 166.141 123.082V123.925C166.024 123.983 165.856 124.029 165.638 124.063C165.429 124.105 165.228 124.126 165.035 124.126C164.699 124.126 164.389 124.067 164.104 123.95C163.819 123.824 163.589 123.61 163.413 123.308C163.245 123.007 163.161 122.583 163.161 122.038V118.115H162.268V117.587L163.186 117.147L163.601 115.713H164.255V117.26H166.091V118.115H164.255V122.013C164.255 122.424 164.347 122.73 164.532 122.931C164.716 123.124 164.951 123.22 165.236 123.22ZM168.597 115.16C168.53 115.454 168.438 115.772 168.32 116.116C168.211 116.46 168.09 116.803 167.956 117.147C167.83 117.482 167.704 117.801 167.578 118.103H166.774C166.832 117.868 166.891 117.616 166.95 117.348C167.008 117.08 167.063 116.812 167.113 116.543C167.163 116.267 167.209 115.998 167.251 115.739C167.302 115.479 167.339 115.24 167.365 115.022H168.509L168.597 115.16ZM173.535 122.139C173.535 122.575 173.43 122.94 173.22 123.233C173.019 123.526 172.73 123.749 172.353 123.899C171.975 124.05 171.523 124.126 170.994 124.126C170.55 124.126 170.165 124.088 169.838 124.013C169.519 123.937 169.238 123.832 168.995 123.698V122.692C169.255 122.826 169.565 122.952 169.926 123.069C170.286 123.178 170.651 123.233 171.02 123.233C171.531 123.233 171.9 123.145 172.126 122.969C172.361 122.784 172.478 122.541 172.478 122.24C172.478 122.072 172.432 121.921 172.34 121.787C172.256 121.653 172.101 121.519 171.875 121.385C171.657 121.25 171.338 121.099 170.919 120.932C170.517 120.764 170.169 120.597 169.875 120.429C169.59 120.261 169.368 120.06 169.209 119.825C169.058 119.591 168.983 119.289 168.983 118.92C168.983 118.35 169.201 117.91 169.636 117.6C170.081 117.289 170.659 117.134 171.372 117.134C171.757 117.134 172.118 117.176 172.453 117.26C172.788 117.336 173.107 117.445 173.409 117.587L173.044 118.467C172.868 118.383 172.684 118.312 172.491 118.253C172.298 118.186 172.101 118.136 171.9 118.103C171.707 118.061 171.51 118.04 171.309 118.04C170.898 118.04 170.584 118.115 170.366 118.266C170.148 118.409 170.039 118.606 170.039 118.857C170.039 119.041 170.089 119.201 170.19 119.335C170.29 119.469 170.454 119.599 170.68 119.725C170.915 119.842 171.233 119.98 171.636 120.14C172.038 120.299 172.382 120.462 172.667 120.63C172.952 120.798 173.166 121.003 173.308 121.246C173.459 121.481 173.535 121.779 173.535 122.139ZM180.68 124.126C180.11 124.126 179.607 124.004 179.172 123.761C178.736 123.518 178.392 123.141 178.14 122.629C177.897 122.118 177.776 121.464 177.776 120.668C177.776 119.838 177.906 119.163 178.166 118.643C178.425 118.124 178.778 117.742 179.222 117.499C179.674 117.256 180.186 117.134 180.756 117.134C181.083 117.134 181.397 117.172 181.699 117.248C182.009 117.315 182.261 117.398 182.453 117.499L182.114 118.417C181.921 118.341 181.695 118.27 181.435 118.203C181.183 118.136 180.949 118.103 180.731 118.103C180.32 118.103 179.98 118.199 179.712 118.392C179.444 118.585 179.243 118.87 179.109 119.247C178.975 119.624 178.907 120.094 178.907 120.655C178.907 121.192 178.975 121.649 179.109 122.026C179.243 122.403 179.44 122.688 179.7 122.881C179.968 123.074 180.295 123.17 180.68 123.17C181.024 123.17 181.33 123.132 181.598 123.057C181.867 122.981 182.114 122.889 182.34 122.78V123.761C182.122 123.878 181.883 123.966 181.624 124.025C181.364 124.092 181.049 124.126 180.68 124.126ZM189.383 120.617C189.383 121.179 189.312 121.678 189.169 122.114C189.035 122.541 188.838 122.906 188.578 123.208C188.319 123.51 188.004 123.74 187.635 123.899C187.267 124.05 186.856 124.126 186.403 124.126C185.984 124.126 185.594 124.05 185.234 123.899C184.882 123.74 184.571 123.51 184.303 123.208C184.043 122.906 183.842 122.541 183.7 122.114C183.557 121.678 183.486 121.179 183.486 120.617C183.486 119.871 183.603 119.243 183.838 118.731C184.081 118.212 184.425 117.818 184.869 117.549C185.313 117.273 185.837 117.134 186.441 117.134C187.019 117.134 187.526 117.273 187.962 117.549C188.407 117.818 188.755 118.212 189.006 118.731C189.258 119.243 189.383 119.871 189.383 120.617ZM184.618 120.617C184.618 121.146 184.68 121.607 184.806 122.001C184.932 122.386 185.129 122.684 185.397 122.893C185.665 123.103 186.009 123.208 186.428 123.208C186.847 123.208 187.191 123.103 187.459 122.893C187.728 122.684 187.925 122.386 188.05 122.001C188.184 121.607 188.252 121.146 188.252 120.617C188.252 120.081 188.184 119.624 188.05 119.247C187.925 118.87 187.728 118.58 187.459 118.379C187.191 118.17 186.843 118.065 186.416 118.065C185.787 118.065 185.33 118.291 185.045 118.744C184.76 119.197 184.618 119.821 184.618 120.617ZM198.013 117.134C198.734 117.134 199.271 117.331 199.623 117.725C199.975 118.111 200.151 118.74 200.151 119.612V124H199.07V119.662C199.07 119.134 198.965 118.735 198.755 118.467C198.554 118.199 198.235 118.065 197.8 118.065C197.196 118.065 196.764 118.253 196.504 118.631C196.253 119.008 196.127 119.557 196.127 120.278V124H195.033V119.662C195.033 119.31 194.987 119.016 194.895 118.782C194.803 118.538 194.664 118.358 194.48 118.241C194.295 118.124 194.057 118.065 193.763 118.065C193.344 118.065 193.013 118.161 192.77 118.354C192.527 118.538 192.355 118.811 192.254 119.171C192.154 119.532 192.103 119.976 192.103 120.504V124H191.009V117.26H191.89L192.053 118.178H192.116C192.25 117.943 192.413 117.75 192.606 117.6C192.799 117.44 193.013 117.323 193.248 117.248C193.482 117.172 193.725 117.134 193.977 117.134C194.463 117.134 194.87 117.227 195.197 117.411C195.524 117.595 195.762 117.88 195.913 118.266H195.989C196.198 117.88 196.483 117.595 196.844 117.411C197.213 117.227 197.603 117.134 198.013 117.134ZM203.204 117.26V124H202.11V117.26H203.204ZM202.664 114.733C202.831 114.733 202.978 114.791 203.104 114.909C203.23 115.018 203.292 115.194 203.292 115.437C203.292 115.672 203.23 115.848 203.104 115.965C202.978 116.082 202.831 116.141 202.664 116.141C202.488 116.141 202.337 116.082 202.211 115.965C202.085 115.848 202.022 115.672 202.022 115.437C202.022 115.194 202.085 115.018 202.211 114.909C202.337 114.791 202.488 114.733 202.664 114.733ZM208.286 117.134C209.04 117.134 209.61 117.331 209.996 117.725C210.39 118.111 210.587 118.74 210.587 119.612V124H209.493V119.687C209.493 119.142 209.38 118.735 209.153 118.467C208.927 118.199 208.579 118.065 208.11 118.065C207.422 118.065 206.944 118.274 206.676 118.694C206.416 119.113 206.286 119.716 206.286 120.504V124H205.192V117.26H206.073L206.236 118.178H206.299C206.433 117.943 206.605 117.75 206.815 117.6C207.024 117.44 207.255 117.323 207.506 117.248C207.758 117.172 208.017 117.134 208.286 117.134ZM214.774 117.134C215.193 117.134 215.566 117.218 215.893 117.386C216.228 117.553 216.513 117.809 216.748 118.153H216.811L216.949 117.26H217.83V124.113C217.83 124.75 217.725 125.283 217.515 125.71C217.314 126.146 217 126.473 216.572 126.691C216.153 126.909 215.616 127.018 214.963 127.018C214.502 127.018 214.082 126.98 213.705 126.905C213.328 126.838 212.984 126.733 212.674 126.59V125.572C212.884 125.681 213.11 125.773 213.353 125.848C213.605 125.932 213.869 125.995 214.145 126.037C214.43 126.079 214.724 126.1 215.025 126.1C215.562 126.1 215.981 125.928 216.283 125.584C216.593 125.249 216.748 124.788 216.748 124.201V123.937C216.748 123.837 216.752 123.694 216.761 123.51C216.769 123.317 216.777 123.183 216.786 123.107H216.736C216.518 123.451 216.245 123.707 215.918 123.874C215.591 124.042 215.214 124.126 214.787 124.126C213.973 124.126 213.336 123.82 212.875 123.208C212.414 122.596 212.184 121.741 212.184 120.643C212.184 119.922 212.284 119.301 212.485 118.782C212.695 118.253 212.993 117.847 213.378 117.562C213.772 117.277 214.237 117.134 214.774 117.134ZM214.95 118.065C214.606 118.065 214.309 118.165 214.057 118.367C213.814 118.568 213.63 118.861 213.504 119.247C213.378 119.632 213.315 120.102 213.315 120.655C213.315 121.485 213.454 122.122 213.73 122.567C214.015 123.002 214.43 123.22 214.975 123.22C215.285 123.22 215.554 123.178 215.78 123.095C216.006 123.002 216.191 122.864 216.333 122.68C216.476 122.487 216.58 122.244 216.648 121.95C216.723 121.657 216.761 121.309 216.761 120.907V120.643C216.761 120.031 216.694 119.536 216.56 119.159C216.434 118.782 216.237 118.505 215.969 118.329C215.709 118.153 215.369 118.065 214.95 118.065Z" fill="black"/>
</g>
<defs>
<clipPath id="clip0_844_6248">
<rect x="0.532227" y="0.106445" width="295.5" height="144.606" rx="16.766" fill="white"/>
</clipPath>
</defs>
</svg>
