<svg width="297" height="145" viewBox="0 0 297 145" fill="none" xmlns="http://www.w3.org/2000/svg">
<g clip-path="url(#clip0_844_6262)">
<rect x="0.797852" y="0.106445" width="295.5" height="144.606" rx="16.766" fill="#F9D1EC" fill-opacity="0.3"/>
<rect x="76.7686" y="-72.1968" width="143.559" height="143.559" rx="71.7793" fill="#E119A0" fill-opacity="0.1"/>
<g clip-path="url(#clip1_844_6262)">
<path d="M154.158 38.2813H142.931C141.692 38.2813 140.687 37.2754 140.687 36.0365V34.9142C140.687 30.5748 144.203 27.0546 148.546 27.0546C152.889 27.0546 156.406 30.5714 156.406 34.9142V36.0365C156.406 37.2754 155.4 38.2813 154.161 38.2813H154.158ZM148.546 29.2992C145.449 29.3026 142.938 31.8137 142.934 34.9109V36.0333H154.161V34.9109C154.158 31.8137 151.647 29.3026 148.549 29.2992H148.546Z" fill="#E119A0"/>
<path d="M148.547 29.2991C144.827 29.2991 141.81 26.2818 141.81 22.5618C141.81 18.8418 144.827 15.8245 148.547 15.8245C152.267 15.8245 155.284 18.8418 155.284 22.5618C155.281 26.2818 152.267 29.2923 148.547 29.2991ZM148.547 18.0725C146.066 18.0725 144.058 20.084 144.058 22.5618C144.058 25.0395 146.069 27.0511 148.547 27.0511C151.025 27.0511 153.036 25.0395 153.036 22.5618C153.036 20.084 151.025 18.0725 148.547 18.0725Z" fill="#6E00BE"/>
<path d="M138.442 62.9787H127.215C125.976 62.9787 124.971 61.9729 124.971 60.734V59.6116C124.971 55.2722 128.488 51.7521 132.83 51.7521C137.173 51.7521 140.69 55.2688 140.69 59.6116V60.734C140.69 61.9729 139.684 62.9787 138.445 62.9787H138.442ZM132.83 53.9967C129.733 54 127.222 56.5111 127.219 59.6083V60.7307H138.445V59.6083C138.442 56.5111 135.931 54 132.834 53.9967H132.83Z" fill="#E119A0"/>
<path d="M132.83 53.9967C129.11 53.9967 126.093 50.9794 126.093 47.2594C126.093 43.5394 129.11 40.5221 132.83 40.5221C136.55 40.5221 139.567 43.5394 139.567 47.2594C139.564 50.9794 136.55 53.9901 132.83 53.9967ZM132.83 42.7701C130.349 42.7701 128.341 44.7817 128.341 47.2594C128.341 49.7372 130.352 51.7488 132.83 51.7488C135.308 51.7488 137.319 49.7372 137.319 47.2594C137.319 44.7817 135.308 42.7701 132.83 42.7701Z" fill="#6E00BE"/>
<path d="M169.877 62.9787H158.651C157.412 62.9787 156.406 61.9729 156.406 60.734V59.6116C156.406 55.2722 159.923 51.7521 164.266 51.7521C168.609 51.7521 172.125 55.2688 172.125 59.6116V60.734C172.125 61.9729 171.12 62.9787 169.881 62.9787H169.877ZM164.266 53.9967C161.169 54 158.658 56.5111 158.654 59.6083V60.7307H169.881V59.6083C169.877 56.5111 167.366 54 164.269 53.9967H164.266Z" fill="#E119A0"/>
<path d="M164.262 53.9967C160.542 53.9967 157.524 50.9794 157.524 47.2594C157.524 43.5394 160.542 40.5221 164.262 40.5221C167.982 40.5221 170.999 43.5394 170.999 47.2594C170.996 50.9794 167.982 53.9901 164.262 53.9967ZM164.262 42.7701C161.781 42.7701 159.772 44.7817 159.772 47.2594C159.772 49.7372 161.784 51.7488 164.262 51.7488C166.739 51.7488 168.751 49.7372 168.751 47.2594C168.751 44.7817 166.739 42.7701 164.262 42.7701Z" fill="#6E00BE"/>
<path d="M148.545 48.3854C147.926 48.3854 147.423 47.8825 147.423 47.2631V41.6514C147.423 41.032 147.926 40.5291 148.545 40.5291C149.165 40.5291 149.667 41.032 149.667 41.6514V47.2631C149.667 47.8825 149.165 48.3854 148.545 48.3854Z" fill="#E119A0"/>
<path d="M153.035 51.7522C152.792 51.7522 152.555 51.6722 152.362 51.5291L148.546 48.6649L144.729 51.5291C144.233 51.902 143.53 51.8022 143.157 51.3059C142.784 50.8097 142.884 50.107 143.38 49.734L147.87 46.3671C148.269 46.0673 148.819 46.0673 149.218 46.3671L153.708 49.734C154.204 50.107 154.304 50.8097 153.931 51.3059C153.718 51.589 153.385 51.7555 153.032 51.7555L153.035 51.7522Z" fill="#E119A0"/>
</g>
<rect x="-56.9395" y="91.7953" width="89.0692" height="89.0692" rx="44.5346" transform="rotate(-45 -56.9395 91.7953)" fill="#E119A0" fill-opacity="0.03"/>
<rect x="246.524" y="-16.6595" width="89.0691" height="89.0691" rx="44.5346" fill="#E119A0" fill-opacity="0.03"/>
<path d="M100.236 87.4674C99.6355 87.4674 99.0976 87.5862 98.6226 87.8237C98.1615 88.0612 97.7703 88.4035 97.4489 88.8506C97.1276 89.2838 96.8831 89.8147 96.7154 90.4434C96.5617 91.0721 96.4849 91.7777 96.4849 92.5601C96.4849 93.6219 96.6106 94.5301 96.8621 95.2846C97.1276 96.0251 97.5398 96.5909 98.0986 96.9821C98.6575 97.3733 99.37 97.5689 100.236 97.5689C100.851 97.5689 101.459 97.4991 102.06 97.3594C102.674 97.2196 103.338 97.024 104.051 96.7726V99.4341C103.394 99.6996 102.744 99.8952 102.101 100.021C101.459 100.147 100.739 100.21 99.9429 100.21C98.406 100.21 97.1346 99.8952 96.1286 99.2665C95.1366 98.6238 94.4031 97.7296 93.9281 96.5839C93.453 95.4243 93.2155 94.076 93.2155 92.5391C93.2155 91.4074 93.3692 90.3735 93.6766 89.4374C93.984 88.4874 94.4311 87.67 95.0179 86.9854C95.6187 86.3008 96.3522 85.7699 97.2184 85.3927C98.0986 85.0154 99.1046 84.8268 100.236 84.8268C100.977 84.8268 101.717 84.9246 102.458 85.1202C103.212 85.3018 103.932 85.5533 104.616 85.8747L103.589 88.4524C103.031 88.187 102.465 87.9565 101.892 87.7608C101.333 87.5652 100.781 87.4674 100.236 87.4674ZM117.374 94.2577C117.374 95.2077 117.241 96.053 116.975 96.7935C116.724 97.534 116.354 98.1627 115.865 98.6797C115.39 99.1827 114.81 99.5669 114.125 99.8323C113.441 100.084 112.665 100.21 111.799 100.21C111.003 100.21 110.262 100.084 109.577 99.8323C108.907 99.5669 108.327 99.1827 107.838 98.6797C107.349 98.1627 106.965 97.534 106.685 96.7935C106.42 96.053 106.287 95.2077 106.287 94.2577C106.287 92.9862 106.511 91.9174 106.958 91.0512C107.405 90.171 108.048 89.5003 108.886 89.0393C109.724 88.5782 110.716 88.3477 111.862 88.3477C112.938 88.3477 113.888 88.5782 114.712 89.0393C115.536 89.5003 116.186 90.171 116.661 91.0512C117.136 91.9174 117.374 92.9862 117.374 94.2577ZM109.473 94.2577C109.473 95.0121 109.549 95.6478 109.703 96.1648C109.871 96.6678 110.129 97.052 110.479 97.3174C110.828 97.5689 111.282 97.6947 111.841 97.6947C112.4 97.6947 112.847 97.5689 113.182 97.3174C113.531 97.052 113.783 96.6678 113.937 96.1648C114.104 95.6478 114.188 95.0121 114.188 94.2577C114.188 93.5032 114.104 92.8745 113.937 92.3715C113.783 91.8685 113.531 91.4913 113.182 91.2398C112.833 90.9883 112.379 90.8626 111.82 90.8626C110.996 90.8626 110.395 91.149 110.018 91.7218C109.654 92.2807 109.473 93.126 109.473 94.2577ZM133.388 88.3477C134.687 88.3477 135.665 88.683 136.322 89.3536C136.993 90.0103 137.328 91.0721 137.328 92.5391V100H134.205V93.3146C134.205 92.4902 134.066 91.8755 133.786 91.4703C133.507 91.0512 133.074 90.8416 132.487 90.8416C131.663 90.8416 131.076 91.135 130.726 91.7218C130.377 92.3086 130.202 93.1539 130.202 94.2577V100H127.08V93.3146C127.08 92.7697 127.017 92.3156 126.891 91.9523C126.765 91.5891 126.577 91.3166 126.325 91.135C126.074 90.9394 125.753 90.8416 125.361 90.8416C124.788 90.8416 124.334 90.9883 123.999 91.2817C123.664 91.5751 123.426 92.0012 123.287 92.5601C123.147 93.119 123.077 93.8036 123.077 94.6139V100H119.954V88.5572H122.343L122.763 90.0243H122.93C123.168 89.633 123.461 89.3187 123.81 89.0812C124.16 88.8297 124.544 88.648 124.963 88.5363C125.396 88.4105 125.829 88.3477 126.262 88.3477C127.101 88.3477 127.813 88.4874 128.4 88.7668C128.987 89.0323 129.434 89.4514 129.741 90.0243H130.014C130.363 89.4374 130.845 89.0113 131.46 88.7459C132.089 88.4804 132.731 88.3477 133.388 88.3477ZM153.977 88.3477C155.276 88.3477 156.254 88.683 156.911 89.3536C157.582 90.0103 157.917 91.0721 157.917 92.5391V100H154.794V93.3146C154.794 92.4902 154.655 91.8755 154.375 91.4703C154.096 91.0512 153.663 90.8416 153.076 90.8416C152.252 90.8416 151.665 91.135 151.315 91.7218C150.966 92.3086 150.792 93.1539 150.792 94.2577V100H147.669V93.3146C147.669 92.7697 147.606 92.3156 147.48 91.9523C147.355 91.5891 147.166 91.3166 146.914 91.135C146.663 90.9394 146.342 90.8416 145.95 90.8416C145.378 90.8416 144.923 90.9883 144.588 91.2817C144.253 91.5751 144.015 92.0012 143.876 92.5601C143.736 93.119 143.666 93.8036 143.666 94.6139V100H140.543V88.5572H142.932L143.352 90.0243H143.519C143.757 89.633 144.05 89.3187 144.4 89.0812C144.749 88.8297 145.133 88.648 145.552 88.5363C145.985 88.4105 146.418 88.3477 146.852 88.3477C147.69 88.3477 148.402 88.4874 148.989 88.7668C149.576 89.0323 150.023 89.4514 150.33 90.0243H150.603C150.952 89.4374 151.434 89.0113 152.049 88.7459C152.678 88.4804 153.32 88.3477 153.977 88.3477ZM171.632 88.5572V100H169.243L168.824 98.533H168.656C168.419 98.9242 168.111 99.2455 167.734 99.497C167.371 99.7345 166.966 99.9092 166.518 100.021C166.071 100.147 165.61 100.21 165.135 100.21C164.325 100.21 163.612 100.063 162.998 99.7695C162.383 99.4761 161.908 99.022 161.572 98.4072C161.237 97.7925 161.07 96.9961 161.07 96.0181V88.5572H164.192V95.2427C164.192 96.053 164.339 96.6678 164.632 97.0869C164.926 97.5061 165.394 97.7156 166.036 97.7156C166.679 97.7156 167.175 97.5689 167.524 97.2755C167.888 96.9821 168.139 96.556 168.279 95.9971C168.433 95.4383 168.509 94.7537 168.509 93.9433V88.5572H171.632ZM181.403 88.3477C182.633 88.3477 183.618 88.683 184.358 89.3536C185.098 90.0103 185.469 91.0721 185.469 92.5391V100H182.346V93.3146C182.346 92.4902 182.199 91.8755 181.906 91.4703C181.613 91.0512 181.145 90.8416 180.502 90.8416C179.552 90.8416 178.902 91.1699 178.553 91.8266C178.203 92.4693 178.029 93.3984 178.029 94.6139V100H174.906V88.5572H177.295L177.714 90.0243H177.882C178.134 89.633 178.441 89.3187 178.804 89.0812C179.168 88.8297 179.573 88.648 180.02 88.5363C180.467 88.4105 180.928 88.3477 181.403 88.3477ZM191.803 88.5572V100H188.68V88.5572H191.803ZM190.252 84.0723C190.713 84.0723 191.111 84.1841 191.446 84.4077C191.782 84.6172 191.949 85.0154 191.949 85.6022C191.949 86.1751 191.782 86.5733 191.446 86.7968C191.111 87.0204 190.713 87.1321 190.252 87.1321C189.777 87.1321 189.372 87.0204 189.036 86.7968C188.715 86.5733 188.554 86.1751 188.554 85.6022C188.554 85.0154 188.715 84.6172 189.036 84.4077C189.372 84.1841 189.777 84.0723 190.252 84.0723ZM199.886 97.7156C200.235 97.7156 200.57 97.6807 200.892 97.6109C201.213 97.541 201.534 97.4572 201.856 97.3594V99.6856C201.52 99.8254 201.101 99.9441 200.598 100.042C200.109 100.154 199.571 100.21 198.984 100.21C198.3 100.21 197.685 100.098 197.14 99.8743C196.609 99.6507 196.183 99.2665 195.862 98.7216C195.554 98.1627 195.401 97.3943 195.401 96.4163V90.9045H193.913V89.5841L195.631 88.5363L196.532 86.1262H198.523V88.5572H201.73V90.9045H198.523V96.4163C198.523 96.8494 198.649 97.1777 198.901 97.4013C199.152 97.6109 199.48 97.7156 199.886 97.7156ZM202.518 88.5572H205.934L208.092 94.9912C208.162 95.2007 208.218 95.4103 208.26 95.6199C208.316 95.8295 208.358 96.046 208.386 96.2696C208.428 96.4931 208.456 96.7306 208.47 96.9821H208.533C208.574 96.6189 208.63 96.2766 208.7 95.9552C208.784 95.6199 208.875 95.2985 208.973 94.9912L211.089 88.5572H214.443L209.601 101.467C209.308 102.249 208.924 102.906 208.449 103.437C207.988 103.968 207.45 104.366 206.835 104.632C206.22 104.897 205.55 105.03 204.823 105.03C204.474 105.03 204.166 105.009 203.901 104.967C203.649 104.939 203.426 104.904 203.23 104.862V102.389C203.384 102.417 203.566 102.445 203.775 102.473C203.999 102.501 204.229 102.515 204.467 102.515C204.9 102.515 205.27 102.424 205.578 102.242C205.899 102.061 206.164 101.809 206.374 101.488C206.584 101.181 206.751 100.845 206.877 100.482L207.066 99.9162L202.518 88.5572Z" fill="#661C4D"/>
<path d="M80.7657 119.259H83.7207V123.66C83.268 123.82 82.807 123.937 82.3375 124.013C81.8765 124.088 81.3483 124.126 80.7531 124.126C79.8813 124.126 79.1436 123.941 78.54 123.572C77.9449 123.195 77.4922 122.663 77.182 121.976C76.8718 121.28 76.7167 120.458 76.7167 119.511C76.7167 118.572 76.8886 117.759 77.2323 117.071C77.576 116.384 78.0748 115.852 78.7287 115.475C79.3825 115.089 80.1705 114.896 81.0927 114.896C81.5621 114.896 82.0064 114.942 82.4256 115.034C82.8531 115.127 83.2471 115.257 83.6076 115.424L83.1926 116.405C82.8992 116.263 82.5639 116.141 82.1866 116.04C81.8178 115.94 81.4364 115.889 81.0424 115.889C80.3801 115.889 79.8143 116.036 79.3448 116.33C78.8754 116.623 78.5149 117.042 78.2634 117.587C78.0119 118.124 77.8862 118.765 77.8862 119.511C77.8862 120.223 77.991 120.856 78.2005 121.41C78.4101 121.955 78.7412 122.382 79.1939 122.692C79.655 122.994 80.2544 123.145 80.9921 123.145C81.2352 123.145 81.4489 123.137 81.6334 123.12C81.8262 123.095 82.0022 123.065 82.1615 123.032C82.3208 122.998 82.4675 122.965 82.6016 122.931V120.265H80.7657V119.259ZM88.5945 117.134C88.7119 117.134 88.8376 117.143 88.9717 117.159C89.1059 117.168 89.2232 117.185 89.3238 117.21L89.1981 118.228C89.0975 118.203 88.9843 118.182 88.8586 118.165C88.7412 118.149 88.628 118.14 88.5191 118.14C88.276 118.14 88.0454 118.195 87.8275 118.304C87.6095 118.413 87.4125 118.568 87.2365 118.769C87.0688 118.962 86.9347 119.197 86.8341 119.473C86.7335 119.75 86.6832 120.06 86.6832 120.404V124H85.5892V117.26H86.482L86.6077 118.492H86.658C86.7922 118.241 86.9514 118.015 87.1359 117.813C87.3287 117.604 87.5466 117.44 87.7897 117.323C88.0328 117.197 88.3011 117.134 88.5945 117.134ZM95.8131 120.617C95.8131 121.179 95.7419 121.678 95.5994 122.114C95.4652 122.541 95.2682 122.906 95.0084 123.208C94.7485 123.51 94.4341 123.74 94.0653 123.899C93.6964 124.05 93.2857 124.126 92.833 124.126C92.4138 124.126 92.024 124.05 91.6636 123.899C91.3115 123.74 91.0013 123.51 90.7331 123.208C90.4732 122.906 90.272 122.541 90.1295 122.114C89.987 121.678 89.9157 121.179 89.9157 120.617C89.9157 119.871 90.0331 119.243 90.2678 118.731C90.5109 118.212 90.8546 117.818 91.2989 117.549C91.7432 117.273 92.2671 117.134 92.8707 117.134C93.4491 117.134 93.9563 117.273 94.3922 117.549C94.8365 117.818 95.1844 118.212 95.4359 118.731C95.6874 119.243 95.8131 119.871 95.8131 120.617ZM91.0474 120.617C91.0474 121.146 91.1103 121.607 91.236 122.001C91.3618 122.386 91.5588 122.684 91.827 122.893C92.0953 123.103 92.439 123.208 92.8581 123.208C93.2773 123.208 93.621 123.103 93.8892 122.893C94.1575 122.684 94.3545 122.386 94.4802 122.001C94.6144 121.607 94.6814 121.146 94.6814 120.617C94.6814 120.081 94.6144 119.624 94.4802 119.247C94.3545 118.87 94.1575 118.58 93.8892 118.379C93.621 118.17 93.2731 118.065 92.8456 118.065C92.2168 118.065 91.76 118.291 91.4749 118.744C91.1899 119.197 91.0474 119.821 91.0474 120.617ZM101.355 120.19C101.305 120.014 101.255 119.842 101.205 119.674C101.163 119.498 101.121 119.335 101.079 119.184C101.037 119.025 100.999 118.878 100.966 118.744C100.94 118.61 100.92 118.497 100.903 118.404H100.852C100.836 118.497 100.811 118.61 100.777 118.744C100.752 118.878 100.718 119.025 100.676 119.184C100.643 119.343 100.601 119.511 100.551 119.687C100.509 119.855 100.463 120.026 100.412 120.203L99.3184 123.987H98.0861L96.3382 117.248H97.4699L98.3376 120.844C98.3962 121.087 98.4507 121.334 98.501 121.586C98.5597 121.829 98.61 122.064 98.6519 122.29C98.6938 122.508 98.7232 122.696 98.7399 122.856H98.7902C98.807 122.755 98.828 122.629 98.8531 122.478C98.8866 122.328 98.9202 122.168 98.9537 122.001C98.9956 121.833 99.0375 121.665 99.0795 121.498C99.1214 121.33 99.1633 121.179 99.2052 121.045L100.299 117.248H101.506L102.563 121.045C102.621 121.238 102.676 121.443 102.726 121.661C102.785 121.879 102.835 122.093 102.877 122.302C102.927 122.504 102.961 122.684 102.978 122.843H103.015C103.032 122.701 103.061 122.525 103.103 122.315C103.145 122.097 103.195 121.862 103.254 121.611C103.321 121.351 103.384 121.095 103.443 120.844L104.323 117.248H105.43L103.669 123.987H102.399L101.355 120.19ZM113.77 120.19C113.72 120.014 113.67 119.842 113.619 119.674C113.577 119.498 113.536 119.335 113.494 119.184C113.452 119.025 113.414 118.878 113.38 118.744C113.355 118.61 113.334 118.497 113.318 118.404H113.267C113.251 118.497 113.225 118.61 113.192 118.744C113.167 118.878 113.133 119.025 113.091 119.184C113.058 119.343 113.016 119.511 112.965 119.687C112.924 119.855 112.877 120.026 112.827 120.203L111.733 123.987H110.501L108.753 117.248H109.885L110.752 120.844C110.811 121.087 110.866 121.334 110.916 121.586C110.975 121.829 111.025 122.064 111.067 122.29C111.109 122.508 111.138 122.696 111.155 122.856H111.205C111.222 122.755 111.243 122.629 111.268 122.478C111.301 122.328 111.335 122.168 111.369 122.001C111.41 121.833 111.452 121.665 111.494 121.498C111.536 121.33 111.578 121.179 111.62 121.045L112.714 117.248H113.921L114.977 121.045C115.036 121.238 115.091 121.443 115.141 121.661C115.2 121.879 115.25 122.093 115.292 122.302C115.342 122.504 115.376 122.684 115.392 122.843H115.43C115.447 122.701 115.476 122.525 115.518 122.315C115.56 122.097 115.61 121.862 115.669 121.611C115.736 121.351 115.799 121.095 115.858 120.844L116.738 117.248H117.844L116.084 123.987H114.814L113.77 120.19ZM120.072 117.26V124H118.978V117.26H120.072ZM119.531 114.733C119.699 114.733 119.846 114.791 119.972 114.909C120.097 115.018 120.16 115.194 120.16 115.437C120.16 115.672 120.097 115.848 119.972 115.965C119.846 116.082 119.699 116.141 119.531 116.141C119.355 116.141 119.204 116.082 119.079 115.965C118.953 115.848 118.89 115.672 118.89 115.437C118.89 115.194 118.953 115.018 119.079 114.909C119.204 114.791 119.355 114.733 119.531 114.733ZM124.235 123.22C124.395 123.22 124.558 123.208 124.726 123.183C124.894 123.149 125.032 123.116 125.141 123.082V123.925C125.023 123.983 124.856 124.029 124.638 124.063C124.428 124.105 124.227 124.126 124.034 124.126C123.699 124.126 123.389 124.067 123.104 123.95C122.819 123.824 122.588 123.61 122.412 123.308C122.245 123.007 122.161 122.583 122.161 122.038V118.115H121.268V117.587L122.186 117.147L122.601 115.713H123.255V117.26H125.091V118.115H123.255V122.013C123.255 122.424 123.347 122.73 123.531 122.931C123.716 123.124 123.95 123.22 124.235 123.22ZM127.489 117.248C127.489 117.407 127.48 117.57 127.464 117.738C127.455 117.906 127.443 118.056 127.426 118.191H127.501C127.636 117.956 127.803 117.763 128.004 117.612C128.214 117.461 128.44 117.348 128.683 117.273C128.935 117.189 129.195 117.147 129.463 117.147C129.974 117.147 130.402 117.235 130.746 117.411C131.089 117.579 131.349 117.843 131.525 118.203C131.701 118.564 131.789 119.033 131.789 119.612V124H130.695V119.687C130.695 119.142 130.582 118.735 130.356 118.467C130.129 118.199 129.782 118.065 129.312 118.065C128.851 118.065 128.486 118.161 128.218 118.354C127.95 118.538 127.761 118.815 127.652 119.184C127.543 119.544 127.489 119.989 127.489 120.517V124H126.395V114.443H127.489V117.248ZM139.864 117.134C140.643 117.134 141.268 117.424 141.737 118.002C142.215 118.58 142.454 119.452 142.454 120.617C142.454 121.38 142.345 122.026 142.127 122.554C141.909 123.074 141.603 123.468 141.209 123.736C140.824 123.996 140.371 124.126 139.851 124.126C139.524 124.126 139.235 124.08 138.983 123.987C138.74 123.895 138.531 123.778 138.355 123.635C138.179 123.484 138.028 123.321 137.902 123.145H137.827C137.843 123.287 137.86 123.468 137.877 123.686C137.894 123.904 137.902 124.092 137.902 124.251V127.018H136.808V117.26H137.701L137.852 118.178H137.902C138.028 117.985 138.179 117.809 138.355 117.65C138.531 117.491 138.74 117.365 138.983 117.273C139.235 117.18 139.528 117.134 139.864 117.134ZM139.65 118.065C139.231 118.065 138.891 118.153 138.631 118.329C138.38 118.497 138.195 118.752 138.078 119.096C137.961 119.44 137.902 119.876 137.902 120.404V120.617C137.902 121.171 137.952 121.64 138.053 122.026C138.162 122.411 138.346 122.705 138.606 122.906C138.866 123.107 139.222 123.208 139.675 123.208C140.052 123.208 140.362 123.095 140.606 122.868C140.849 122.642 141.029 122.336 141.146 121.95C141.264 121.556 141.322 121.108 141.322 120.605C141.322 119.834 141.184 119.218 140.907 118.756C140.639 118.295 140.22 118.065 139.65 118.065ZM146.555 117.134C147.099 117.134 147.569 117.26 147.963 117.512C148.357 117.763 148.659 118.119 148.868 118.58C149.086 119.033 149.195 119.565 149.195 120.177V120.844H144.87C144.886 121.607 145.067 122.189 145.41 122.592C145.754 122.986 146.236 123.183 146.856 123.183C147.259 123.183 147.615 123.145 147.925 123.069C148.244 122.986 148.571 122.868 148.906 122.717V123.686C148.579 123.837 148.256 123.946 147.938 124.013C147.628 124.088 147.25 124.126 146.806 124.126C146.202 124.126 145.67 123.996 145.209 123.736C144.748 123.476 144.388 123.09 144.128 122.579C143.868 122.059 143.738 121.426 143.738 120.68C143.738 119.943 143.855 119.31 144.09 118.782C144.325 118.253 144.652 117.847 145.071 117.562C145.498 117.277 145.993 117.134 146.555 117.134ZM146.555 118.04C146.068 118.04 145.683 118.212 145.398 118.555C145.113 118.891 144.945 119.36 144.895 119.964H148.063C148.063 119.578 148.009 119.243 147.9 118.958C147.791 118.673 147.623 118.45 147.397 118.291C147.179 118.124 146.898 118.04 146.555 118.04ZM153.247 117.134C153.792 117.134 154.261 117.26 154.655 117.512C155.049 117.763 155.351 118.119 155.561 118.58C155.779 119.033 155.888 119.565 155.888 120.177V120.844H151.562C151.579 121.607 151.759 122.189 152.103 122.592C152.446 122.986 152.928 123.183 153.549 123.183C153.951 123.183 154.307 123.145 154.618 123.069C154.936 122.986 155.263 122.868 155.598 122.717V123.686C155.272 123.837 154.949 123.946 154.63 124.013C154.32 124.088 153.943 124.126 153.499 124.126C152.895 124.126 152.363 123.996 151.902 123.736C151.44 123.476 151.08 123.09 150.82 122.579C150.56 122.059 150.43 121.426 150.43 120.68C150.43 119.943 150.548 119.31 150.782 118.782C151.017 118.253 151.344 117.847 151.763 117.562C152.191 117.277 152.685 117.134 153.247 117.134ZM153.247 118.04C152.761 118.04 152.375 118.212 152.09 118.555C151.805 118.891 151.637 119.36 151.587 119.964H154.756C154.756 119.578 154.701 119.243 154.592 118.958C154.484 118.673 154.316 118.45 154.09 118.291C153.872 118.124 153.591 118.04 153.247 118.04ZM160.48 117.134C160.598 117.134 160.723 117.143 160.857 117.159C160.992 117.168 161.109 117.185 161.21 117.21L161.084 118.228C160.983 118.203 160.87 118.182 160.744 118.165C160.627 118.149 160.514 118.14 160.405 118.14C160.162 118.14 159.931 118.195 159.713 118.304C159.495 118.413 159.298 118.568 159.122 118.769C158.954 118.962 158.82 119.197 158.72 119.473C158.619 119.75 158.569 120.06 158.569 120.404V124H157.475V117.26H158.368L158.493 118.492H158.544C158.678 118.241 158.837 118.015 159.022 117.813C159.214 117.604 159.432 117.44 159.675 117.323C159.919 117.197 160.187 117.134 160.48 117.134ZM166.549 122.139C166.549 122.575 166.444 122.94 166.235 123.233C166.033 123.526 165.744 123.749 165.367 123.899C164.99 124.05 164.537 124.126 164.009 124.126C163.565 124.126 163.179 124.088 162.852 124.013C162.533 123.937 162.253 123.832 162.01 123.698V122.692C162.269 122.826 162.58 122.952 162.94 123.069C163.301 123.178 163.665 123.233 164.034 123.233C164.545 123.233 164.914 123.145 165.141 122.969C165.375 122.784 165.493 122.541 165.493 122.24C165.493 122.072 165.447 121.921 165.354 121.787C165.271 121.653 165.115 121.519 164.889 121.385C164.671 121.25 164.353 121.099 163.933 120.932C163.531 120.764 163.183 120.597 162.89 120.429C162.605 120.261 162.383 120.06 162.223 119.825C162.072 119.591 161.997 119.289 161.997 118.92C161.997 118.35 162.215 117.91 162.651 117.6C163.095 117.289 163.674 117.134 164.386 117.134C164.772 117.134 165.132 117.176 165.468 117.26C165.803 117.336 166.121 117.445 166.423 117.587L166.059 118.467C165.882 118.383 165.698 118.312 165.505 118.253C165.312 118.186 165.115 118.136 164.914 118.103C164.721 118.061 164.524 118.04 164.323 118.04C163.912 118.04 163.598 118.115 163.38 118.266C163.162 118.409 163.053 118.606 163.053 118.857C163.053 119.041 163.104 119.201 163.204 119.335C163.305 119.469 163.468 119.599 163.695 119.725C163.929 119.842 164.248 119.98 164.65 120.14C165.053 120.299 165.396 120.462 165.681 120.63C165.966 120.798 166.18 121.003 166.323 121.246C166.473 121.481 166.549 121.779 166.549 122.139ZM173.745 114.884C174.173 114.884 174.542 114.963 174.852 115.122C175.162 115.273 175.401 115.491 175.568 115.776C175.736 116.061 175.82 116.409 175.82 116.82C175.82 117.348 175.656 117.797 175.33 118.165C175.011 118.534 174.609 118.87 174.122 119.171L176.361 121.51C176.562 121.25 176.725 120.953 176.851 120.617C176.985 120.274 177.094 119.905 177.178 119.511H178.285C178.167 120.047 178.008 120.546 177.807 121.007C177.614 121.468 177.367 121.871 177.065 122.214L178.8 124H177.329L176.336 122.944C176.151 123.12 175.954 123.283 175.745 123.434C175.543 123.577 175.325 123.698 175.091 123.799C174.864 123.899 174.613 123.979 174.336 124.038C174.068 124.096 173.775 124.126 173.456 124.126C172.903 124.126 172.425 124.034 172.022 123.849C171.62 123.656 171.31 123.375 171.092 123.007C170.874 122.638 170.765 122.189 170.765 121.661C170.765 121.234 170.836 120.865 170.979 120.555C171.13 120.244 171.339 119.968 171.608 119.725C171.876 119.482 172.194 119.247 172.563 119.021C172.396 118.819 172.232 118.61 172.073 118.392C171.922 118.174 171.796 117.939 171.696 117.688C171.603 117.428 171.557 117.147 171.557 116.845C171.557 116.434 171.645 116.082 171.821 115.789C171.997 115.495 172.249 115.273 172.576 115.122C172.911 114.963 173.301 114.884 173.745 114.884ZM173.217 119.712C172.949 119.888 172.714 120.068 172.513 120.253C172.32 120.429 172.169 120.626 172.06 120.844C171.96 121.062 171.909 121.322 171.909 121.623C171.909 122.084 172.052 122.453 172.337 122.73C172.63 123.007 173.016 123.145 173.494 123.145C173.98 123.145 174.399 123.057 174.751 122.881C175.103 122.705 175.401 122.495 175.644 122.252L173.217 119.712ZM173.72 115.789C173.401 115.789 173.137 115.881 172.928 116.066C172.718 116.25 172.613 116.506 172.613 116.833C172.613 117.134 172.685 117.415 172.827 117.675C172.978 117.927 173.192 118.207 173.469 118.518C173.921 118.233 174.244 117.964 174.437 117.713C174.638 117.453 174.739 117.155 174.739 116.82C174.739 116.518 174.646 116.271 174.462 116.078C174.277 115.885 174.03 115.789 173.72 115.789ZM189.898 117.134C190.619 117.134 191.155 117.331 191.507 117.725C191.86 118.111 192.036 118.74 192.036 119.612V124H190.954V119.662C190.954 119.134 190.849 118.735 190.64 118.467C190.439 118.199 190.12 118.065 189.684 118.065C189.081 118.065 188.649 118.253 188.389 118.631C188.138 119.008 188.012 119.557 188.012 120.278V124H186.918V119.662C186.918 119.31 186.872 119.016 186.779 118.782C186.687 118.538 186.549 118.358 186.365 118.241C186.18 118.124 185.941 118.065 185.648 118.065C185.229 118.065 184.898 118.161 184.654 118.354C184.411 118.538 184.239 118.811 184.139 119.171C184.038 119.532 183.988 119.976 183.988 120.504V124H182.894V117.26H183.774L183.938 118.178H184.001C184.135 117.943 184.298 117.75 184.491 117.6C184.684 117.44 184.898 117.323 185.132 117.248C185.367 117.172 185.61 117.134 185.862 117.134C186.348 117.134 186.754 117.227 187.081 117.411C187.408 117.595 187.647 117.88 187.798 118.266H187.873C188.083 117.88 188.368 117.595 188.729 117.411C189.097 117.227 189.487 117.134 189.898 117.134ZM196.447 117.134C196.992 117.134 197.462 117.26 197.856 117.512C198.25 117.763 198.551 118.119 198.761 118.58C198.979 119.033 199.088 119.565 199.088 120.177V120.844H194.762C194.779 121.607 194.959 122.189 195.303 122.592C195.647 122.986 196.129 123.183 196.749 123.183C197.151 123.183 197.508 123.145 197.818 123.069C198.136 122.986 198.463 122.868 198.799 122.717V123.686C198.472 123.837 198.149 123.946 197.83 124.013C197.52 124.088 197.143 124.126 196.699 124.126C196.095 124.126 195.563 123.996 195.102 123.736C194.641 123.476 194.28 123.09 194.02 122.579C193.76 122.059 193.631 121.426 193.631 120.68C193.631 119.943 193.748 119.31 193.983 118.782C194.217 118.253 194.544 117.847 194.963 117.562C195.391 117.277 195.886 117.134 196.447 117.134ZM196.447 118.04C195.961 118.04 195.575 118.212 195.29 118.555C195.005 118.891 194.838 119.36 194.787 119.964H197.956C197.956 119.578 197.902 119.243 197.793 118.958C197.684 118.673 197.516 118.45 197.29 118.291C197.072 118.124 196.791 118.04 196.447 118.04ZM203.768 117.134C204.523 117.134 205.093 117.331 205.479 117.725C205.873 118.111 206.07 118.74 206.07 119.612V124H204.976V119.687C204.976 119.142 204.862 118.735 204.636 118.467C204.41 118.199 204.062 118.065 203.592 118.065C202.905 118.065 202.427 118.274 202.159 118.694C201.899 119.113 201.769 119.716 201.769 120.504V124H200.675V117.26H201.555L201.719 118.178H201.782C201.916 117.943 202.088 117.75 202.297 117.6C202.507 117.44 202.737 117.323 202.989 117.248C203.24 117.172 203.5 117.134 203.768 117.134ZM210.194 123.22C210.353 123.22 210.516 123.208 210.684 123.183C210.852 123.149 210.99 123.116 211.099 123.082V123.925C210.982 123.983 210.814 124.029 210.596 124.063C210.387 124.105 210.185 124.126 209.993 124.126C209.657 124.126 209.347 124.067 209.062 123.95C208.777 123.824 208.546 123.61 208.37 123.308C208.203 123.007 208.119 122.583 208.119 122.038V118.115H207.226V117.587L208.144 117.147L208.559 115.713H209.213V117.26H211.049V118.115H209.213V122.013C209.213 122.424 209.305 122.73 209.49 122.931C209.674 123.124 209.909 123.22 210.194 123.22ZM217.898 120.617C217.898 121.179 217.827 121.678 217.685 122.114C217.551 122.541 217.354 122.906 217.094 123.208C216.834 123.51 216.519 123.74 216.151 123.899C215.782 124.05 215.371 124.126 214.918 124.126C214.499 124.126 214.109 124.05 213.749 123.899C213.397 123.74 213.087 123.51 212.818 123.208C212.558 122.906 212.357 122.541 212.215 122.114C212.072 121.678 212.001 121.179 212.001 120.617C212.001 119.871 212.118 119.243 212.353 118.731C212.596 118.212 212.94 117.818 213.384 117.549C213.829 117.273 214.352 117.134 214.956 117.134C215.534 117.134 216.042 117.273 216.478 117.549C216.922 117.818 217.27 118.212 217.521 118.731C217.773 119.243 217.898 119.871 217.898 120.617ZM213.133 120.617C213.133 121.146 213.196 121.607 213.321 122.001C213.447 122.386 213.644 122.684 213.912 122.893C214.181 123.103 214.524 123.208 214.943 123.208C215.363 123.208 215.706 123.103 215.975 122.893C216.243 122.684 216.44 122.386 216.566 122.001C216.7 121.607 216.767 121.146 216.767 120.617C216.767 120.081 216.7 119.624 216.566 119.247C216.44 118.87 216.243 118.58 215.975 118.379C215.706 118.17 215.358 118.065 214.931 118.065C214.302 118.065 213.845 118.291 213.56 118.744C213.275 119.197 213.133 119.821 213.133 120.617ZM222.53 117.134C222.647 117.134 222.773 117.143 222.907 117.159C223.041 117.168 223.159 117.185 223.259 117.21L223.133 118.228C223.033 118.203 222.92 118.182 222.794 118.165C222.676 118.149 222.563 118.14 222.454 118.14C222.211 118.14 221.981 118.195 221.763 118.304C221.545 118.413 221.348 118.568 221.172 118.769C221.004 118.962 220.87 119.197 220.769 119.473C220.669 119.75 220.618 120.06 220.618 120.404V124H219.524V117.26H220.417L220.543 118.492H220.593C220.727 118.241 220.887 118.015 221.071 117.813C221.264 117.604 221.482 117.44 221.725 117.323C221.968 117.197 222.236 117.134 222.53 117.134ZM228.599 122.139C228.599 122.575 228.494 122.94 228.284 123.233C228.083 123.526 227.794 123.749 227.417 123.899C227.039 124.05 226.587 124.126 226.058 124.126C225.614 124.126 225.229 124.088 224.902 124.013C224.583 123.937 224.302 123.832 224.059 123.698V122.692C224.319 122.826 224.629 122.952 224.99 123.069C225.35 123.178 225.715 123.233 226.084 123.233C226.595 123.233 226.964 123.145 227.19 122.969C227.425 122.784 227.542 122.541 227.542 122.24C227.542 122.072 227.496 121.921 227.404 121.787C227.32 121.653 227.165 121.519 226.939 121.385C226.721 121.25 226.402 121.099 225.983 120.932C225.581 120.764 225.233 120.597 224.939 120.429C224.654 120.261 224.432 120.06 224.273 119.825C224.122 119.591 224.047 119.289 224.047 118.92C224.047 118.35 224.265 117.91 224.7 117.6C225.145 117.289 225.723 117.134 226.436 117.134C226.821 117.134 227.182 117.176 227.517 117.26C227.852 117.336 228.171 117.445 228.473 117.587L228.108 118.467C227.932 118.383 227.748 118.312 227.555 118.253C227.362 118.186 227.165 118.136 226.964 118.103C226.771 118.061 226.574 118.04 226.373 118.04C225.962 118.04 225.648 118.115 225.43 118.266C225.212 118.409 225.103 118.606 225.103 118.857C225.103 119.041 225.153 119.201 225.254 119.335C225.354 119.469 225.518 119.599 225.744 119.725C225.979 119.842 226.297 119.98 226.7 120.14C227.102 120.299 227.446 120.462 227.731 120.63C228.016 120.798 228.23 121.003 228.372 121.246C228.523 121.481 228.599 121.779 228.599 122.139Z" fill="black"/>
</g>
<defs>
<clipPath id="clip0_844_6262">
<rect x="0.797852" y="0.106445" width="295.5" height="144.606" rx="16.766" fill="white"/>
</clipPath>
<clipPath id="clip1_844_6262">
<rect width="47.1543" height="47.1543" fill="white" transform="translate(124.971 15.8245)"/>
</clipPath>
</defs>
</svg>
